%TF.GenerationSoftware,KiCad,Pcbnew,7.0.2*%
%TF.CreationDate,2023-05-02T00:15:14+02:00*%
%TF.ProjectId,Test1,54657374-312e-46b6-9963-61645f706362,rev?*%
%TF.SameCoordinates,PX669d880PY237a080*%
%TF.FileFunction,Soldermask,Bot*%
%TF.FilePolarity,Negative*%
%FSLAX46Y46*%
G04 Gerber Fmt 4.6, Leading zero omitted, Abs format (unit mm)*
G04 Created by KiCad (PCBNEW 7.0.2) date 2023-05-02 00:15:14*
%MOMM*%
%LPD*%
G01*
G04 APERTURE LIST*
G04 Aperture macros list*
%AMRoundRect*
0 Rectangle with rounded corners*
0 $1 Rounding radius*
0 $2 $3 $4 $5 $6 $7 $8 $9 X,Y pos of 4 corners*
0 Add a 4 corners polygon primitive as box body*
4,1,4,$2,$3,$4,$5,$6,$7,$8,$9,$2,$3,0*
0 Add four circle primitives for the rounded corners*
1,1,$1+$1,$2,$3*
1,1,$1+$1,$4,$5*
1,1,$1+$1,$6,$7*
1,1,$1+$1,$8,$9*
0 Add four rect primitives between the rounded corners*
20,1,$1+$1,$2,$3,$4,$5,0*
20,1,$1+$1,$4,$5,$6,$7,0*
20,1,$1+$1,$6,$7,$8,$9,0*
20,1,$1+$1,$8,$9,$2,$3,0*%
G04 Aperture macros list end*
%ADD10O,1.600000X1.600000*%
%ADD11R,1.600000X1.600000*%
%ADD12C,1.600000*%
%ADD13R,1.050000X1.500000*%
%ADD14O,1.050000X1.500000*%
%ADD15O,3.500000X3.500000*%
%ADD16R,1.905000X2.000000*%
%ADD17O,1.905000X2.000000*%
%ADD18R,2.250000X1.750000*%
%ADD19O,2.250000X1.750000*%
%ADD20RoundRect,0.250002X-1.499998X-1.499998X1.499998X-1.499998X1.499998X1.499998X-1.499998X1.499998X0*%
%ADD21C,3.500000*%
%ADD22RoundRect,0.250002X-1.499998X1.499998X-1.499998X-1.499998X1.499998X-1.499998X1.499998X1.499998X0*%
%ADD23RoundRect,0.249999X-1.025001X-1.025001X1.025001X-1.025001X1.025001X1.025001X-1.025001X1.025001X0*%
%ADD24RoundRect,0.250002X1.499998X1.499998X-1.499998X1.499998X-1.499998X-1.499998X1.499998X-1.499998X0*%
%ADD25R,3.200000X3.200000*%
%ADD26O,3.200000X3.200000*%
%ADD27R,2.000000X2.000000*%
%ADD28C,2.000000*%
%ADD29C,6.400000*%
%ADD30R,1.800000X1.800000*%
%ADD31C,1.800000*%
G04 APERTURE END LIST*
D10*
%TO.C,U1*%
X37220000Y-26025000D03*
X37220000Y-28565000D03*
X29600000Y-28565000D03*
D11*
X29600000Y-26025000D03*
%TD*%
D12*
%TO.C,C7*%
X32400000Y-13800000D03*
X32400000Y-11800000D03*
%TD*%
%TO.C,R14*%
X23400000Y-40800000D03*
D10*
X23400000Y-45880000D03*
%TD*%
D12*
%TO.C,R13*%
X25260000Y-49800000D03*
D10*
X30340000Y-49800000D03*
%TD*%
D12*
%TO.C,R12*%
X23400000Y-26180000D03*
D10*
X23400000Y-31260000D03*
%TD*%
D12*
%TO.C,R11*%
X10400000Y-6940000D03*
D10*
X10400000Y-1860000D03*
%TD*%
D12*
%TO.C,R10*%
X62400000Y-21720000D03*
D10*
X67480000Y-21720000D03*
%TD*%
D12*
%TO.C,R9*%
X62260000Y-25720000D03*
D10*
X67340000Y-25720000D03*
%TD*%
D12*
%TO.C,R8*%
X62400000Y-17720000D03*
D10*
X67480000Y-17720000D03*
%TD*%
D12*
%TO.C,R7*%
X62400000Y-13720000D03*
D10*
X67480000Y-13720000D03*
%TD*%
D12*
%TO.C,R6*%
X62400000Y-9800000D03*
D10*
X67480000Y-9800000D03*
%TD*%
D12*
%TO.C,R5*%
X23260000Y-35800000D03*
D10*
X28340000Y-35800000D03*
%TD*%
D12*
%TO.C,R4*%
X37260000Y-40800000D03*
D10*
X42340000Y-40800000D03*
%TD*%
D12*
%TO.C,R3*%
X31400000Y-40800000D03*
D10*
X31400000Y-45880000D03*
%TD*%
D12*
%TO.C,R2*%
X44400000Y-46800000D03*
D10*
X44400000Y-51880000D03*
%TD*%
D12*
%TO.C,R1*%
X52400000Y-26800000D03*
D10*
X47320000Y-26800000D03*
%TD*%
D13*
%TO.C,U2*%
X22860000Y-4800000D03*
D14*
X24130000Y-4800000D03*
X25400000Y-4800000D03*
%TD*%
D15*
%TO.C,Q1*%
X52400000Y-4800000D03*
D16*
X49860000Y-21460000D03*
D17*
X52400000Y-21460000D03*
X54940000Y-21460000D03*
%TD*%
D18*
%TO.C,PS1*%
X22557500Y-12800000D03*
D19*
X22557500Y-15340000D03*
X22557500Y-17880000D03*
X22557500Y-20420000D03*
%TD*%
D20*
%TO.C,J5*%
X21900000Y-54300000D03*
D21*
X28900000Y-54300000D03*
%TD*%
D22*
%TO.C,J4*%
X65400000Y-35800000D03*
D21*
X65400000Y-42800000D03*
%TD*%
D23*
%TO.C,J3*%
X53400000Y-40800000D03*
%TD*%
%TO.C,J2*%
X58400000Y-28800000D03*
%TD*%
D24*
%TO.C,J1*%
X41400000Y-4800000D03*
D21*
X34400000Y-4800000D03*
%TD*%
D25*
%TO.C,D1*%
X58020000Y-33800000D03*
D26*
X42780000Y-33800000D03*
%TD*%
D11*
%TO.C,C5*%
X35400000Y-33300000D03*
D12*
X35400000Y-35800000D03*
%TD*%
D11*
%TO.C,C4*%
X37400000Y-49300000D03*
D12*
X37400000Y-51800000D03*
%TD*%
D27*
%TO.C,C3*%
X55400000Y-46432323D03*
D28*
X55400000Y-51432323D03*
%TD*%
D12*
%TO.C,C1*%
X40400000Y-13800000D03*
X43900000Y-13800000D03*
%TD*%
D29*
%TO.C,REF\u002A\u002A*%
X66400000Y-51800000D03*
%TD*%
D10*
%TO.C,A1*%
X17400000Y-13750000D03*
X17400000Y-16290000D03*
X17400000Y-18830000D03*
X17400000Y-21370000D03*
X17400000Y-23910000D03*
X17400000Y-26450000D03*
X17400000Y-28990000D03*
X17400000Y-31530000D03*
X17400000Y-34070000D03*
X17400000Y-36610000D03*
X17400000Y-39150000D03*
X17400000Y-41690000D03*
X17400000Y-44230000D03*
X17400000Y-46770000D03*
X17400000Y-49310000D03*
X2160000Y-49310000D03*
X2160000Y-46770000D03*
X2160000Y-44230000D03*
X2160000Y-41690000D03*
X2160000Y-39150000D03*
X2160000Y-36610000D03*
X2160000Y-34070000D03*
X2160000Y-31530000D03*
X2160000Y-28990000D03*
X2160000Y-26450000D03*
X2160000Y-23910000D03*
X2160000Y-21370000D03*
X2160000Y-18830000D03*
X2160000Y-16290000D03*
D11*
X2160000Y-13750000D03*
%TD*%
D30*
%TO.C,D2*%
X17400000Y-4800000D03*
D31*
X14860000Y-4800000D03*
%TD*%
D29*
%TO.C,REF\u002A\u002A*%
X65900000Y-3800000D03*
%TD*%
%TO.C,REF\u002A\u002A*%
X3400000Y-3800000D03*
%TD*%
M02*
