%TF.GenerationSoftware,KiCad,Pcbnew,7.0.2*%
%TF.CreationDate,2023-05-02T00:15:14+02:00*%
%TF.ProjectId,Test1,54657374-312e-46b6-9963-61645f706362,rev?*%
%TF.SameCoordinates,PX669d880PY237a080*%
%TF.FileFunction,Copper,L1,Top*%
%TF.FilePolarity,Positive*%
%FSLAX46Y46*%
G04 Gerber Fmt 4.6, Leading zero omitted, Abs format (unit mm)*
G04 Created by KiCad (PCBNEW 7.0.2) date 2023-05-02 00:15:14*
%MOMM*%
%LPD*%
G01*
G04 APERTURE LIST*
G04 Aperture macros list*
%AMRoundRect*
0 Rectangle with rounded corners*
0 $1 Rounding radius*
0 $2 $3 $4 $5 $6 $7 $8 $9 X,Y pos of 4 corners*
0 Add a 4 corners polygon primitive as box body*
4,1,4,$2,$3,$4,$5,$6,$7,$8,$9,$2,$3,0*
0 Add four circle primitives for the rounded corners*
1,1,$1+$1,$2,$3*
1,1,$1+$1,$4,$5*
1,1,$1+$1,$6,$7*
1,1,$1+$1,$8,$9*
0 Add four rect primitives between the rounded corners*
20,1,$1+$1,$2,$3,$4,$5,0*
20,1,$1+$1,$4,$5,$6,$7,0*
20,1,$1+$1,$6,$7,$8,$9,0*
20,1,$1+$1,$8,$9,$2,$3,0*%
G04 Aperture macros list end*
%TA.AperFunction,ComponentPad*%
%ADD10O,1.600000X1.600000*%
%TD*%
%TA.AperFunction,ComponentPad*%
%ADD11R,1.600000X1.600000*%
%TD*%
%TA.AperFunction,ComponentPad*%
%ADD12C,1.600000*%
%TD*%
%TA.AperFunction,SMDPad,CuDef*%
%ADD13RoundRect,0.250000X-0.412500X-0.650000X0.412500X-0.650000X0.412500X0.650000X-0.412500X0.650000X0*%
%TD*%
%TA.AperFunction,ComponentPad*%
%ADD14R,1.050000X1.500000*%
%TD*%
%TA.AperFunction,ComponentPad*%
%ADD15O,1.050000X1.500000*%
%TD*%
%TA.AperFunction,ComponentPad*%
%ADD16R,1.905000X2.000000*%
%TD*%
%TA.AperFunction,ComponentPad*%
%ADD17O,1.905000X2.000000*%
%TD*%
%TA.AperFunction,ComponentPad*%
%ADD18R,2.250000X1.750000*%
%TD*%
%TA.AperFunction,ComponentPad*%
%ADD19O,2.250000X1.750000*%
%TD*%
%TA.AperFunction,ComponentPad*%
%ADD20RoundRect,0.250002X-1.499998X-1.499998X1.499998X-1.499998X1.499998X1.499998X-1.499998X1.499998X0*%
%TD*%
%TA.AperFunction,ComponentPad*%
%ADD21C,3.500000*%
%TD*%
%TA.AperFunction,ComponentPad*%
%ADD22RoundRect,0.250002X-1.499998X1.499998X-1.499998X-1.499998X1.499998X-1.499998X1.499998X1.499998X0*%
%TD*%
%TA.AperFunction,ComponentPad*%
%ADD23RoundRect,0.249999X-1.025001X-1.025001X1.025001X-1.025001X1.025001X1.025001X-1.025001X1.025001X0*%
%TD*%
%TA.AperFunction,ComponentPad*%
%ADD24RoundRect,0.250002X1.499998X1.499998X-1.499998X1.499998X-1.499998X-1.499998X1.499998X-1.499998X0*%
%TD*%
%TA.AperFunction,ComponentPad*%
%ADD25R,3.200000X3.200000*%
%TD*%
%TA.AperFunction,ComponentPad*%
%ADD26O,3.200000X3.200000*%
%TD*%
%TA.AperFunction,ComponentPad*%
%ADD27R,2.000000X2.000000*%
%TD*%
%TA.AperFunction,ComponentPad*%
%ADD28C,2.000000*%
%TD*%
%TA.AperFunction,ComponentPad*%
%ADD29C,6.400000*%
%TD*%
%TA.AperFunction,ComponentPad*%
%ADD30R,1.800000X1.800000*%
%TD*%
%TA.AperFunction,ComponentPad*%
%ADD31C,1.800000*%
%TD*%
%TA.AperFunction,ViaPad*%
%ADD32C,0.800000*%
%TD*%
%TA.AperFunction,Conductor*%
%ADD33C,0.300000*%
%TD*%
%TA.AperFunction,Conductor*%
%ADD34C,0.500000*%
%TD*%
%TA.AperFunction,Conductor*%
%ADD35C,1.000000*%
%TD*%
G04 APERTURE END LIST*
D10*
%TO.P,U1,4*%
%TO.N,DC_OUT5*%
X37220000Y-26025000D03*
%TO.P,U1,3*%
%TO.N,Net-(Q1-G)*%
X37220000Y-28565000D03*
%TO.P,U1,2*%
%TO.N,Net-(R5-Pad1)*%
X29600000Y-28565000D03*
D11*
%TO.P,U1,1*%
%TO.N,PWM*%
X29600000Y-26025000D03*
%TD*%
D12*
%TO.P,C7,1*%
%TO.N,+5V*%
X32400000Y-13800000D03*
%TO.P,C7,2*%
%TO.N,GND*%
X32400000Y-11800000D03*
%TD*%
%TO.P,R14,1*%
%TO.N,ADC2*%
X23400000Y-40800000D03*
D10*
%TO.P,R14,2*%
%TO.N,GND*%
X23400000Y-45880000D03*
%TD*%
D12*
%TO.P,R13,1*%
%TO.N,Net-(J5-Pin_2)*%
X25260000Y-49800000D03*
D10*
%TO.P,R13,2*%
%TO.N,ADC2*%
X30340000Y-49800000D03*
%TD*%
D12*
%TO.P,R12,1*%
%TO.N,+5V*%
X23400000Y-26180000D03*
D10*
%TO.P,R12,2*%
%TO.N,ADC2*%
X23400000Y-31260000D03*
%TD*%
D12*
%TO.P,R11,1*%
%TO.N,Net-(A1-D2)*%
X10400000Y-6940000D03*
D10*
%TO.P,R11,2*%
%TO.N,Net-(D2-A)*%
X10400000Y-1860000D03*
%TD*%
D12*
%TO.P,R10,1*%
%TO.N,MOTN*%
X62400000Y-21720000D03*
D10*
%TO.P,R10,2*%
%TO.N,GND*%
X67480000Y-21720000D03*
%TD*%
D12*
%TO.P,R9,1*%
%TO.N,MOTN*%
X62260000Y-25720000D03*
D10*
%TO.P,R9,2*%
%TO.N,GND*%
X67340000Y-25720000D03*
%TD*%
D12*
%TO.P,R8,1*%
%TO.N,MOTN*%
X62400000Y-17720000D03*
D10*
%TO.P,R8,2*%
%TO.N,GND*%
X67480000Y-17720000D03*
%TD*%
D12*
%TO.P,R7,1*%
%TO.N,MOTN*%
X62400000Y-13720000D03*
D10*
%TO.P,R7,2*%
%TO.N,GND*%
X67480000Y-13720000D03*
%TD*%
D12*
%TO.P,R6,1*%
%TO.N,MOTN*%
X62400000Y-9800000D03*
D10*
%TO.P,R6,2*%
%TO.N,GND*%
X67480000Y-9800000D03*
%TD*%
D12*
%TO.P,R5,1*%
%TO.N,Net-(R5-Pad1)*%
X23260000Y-35800000D03*
D10*
%TO.P,R5,2*%
%TO.N,GND*%
X28340000Y-35800000D03*
%TD*%
D12*
%TO.P,R4,1*%
%TO.N,ADC0*%
X37260000Y-40800000D03*
D10*
%TO.P,R4,2*%
%TO.N,MOTN*%
X42340000Y-40800000D03*
%TD*%
D12*
%TO.P,R3,1*%
%TO.N,ADC1*%
X31400000Y-40800000D03*
D10*
%TO.P,R3,2*%
%TO.N,GND*%
X31400000Y-45880000D03*
%TD*%
D12*
%TO.P,R2,1*%
%TO.N,MOTP*%
X44400000Y-46800000D03*
D10*
%TO.P,R2,2*%
%TO.N,ADC1*%
X44400000Y-51880000D03*
%TD*%
D12*
%TO.P,R1,1*%
%TO.N,DC_OUT0*%
X52400000Y-26800000D03*
D10*
%TO.P,R1,2*%
%TO.N,Net-(Q1-G)*%
X47320000Y-26800000D03*
%TD*%
D13*
%TO.P,C6,1*%
%TO.N,+5V*%
X33837500Y-18800000D03*
%TO.P,C6,2*%
%TO.N,GND*%
X36962500Y-18800000D03*
%TD*%
%TO.P,C2,1*%
%TO.N,12V*%
X40837500Y-20800000D03*
%TO.P,C2,2*%
%TO.N,GND*%
X43962500Y-20800000D03*
%TD*%
D14*
%TO.P,U2,1,VO*%
%TO.N,+5V*%
X22860000Y-4800000D03*
D15*
%TO.P,U2,2,GND*%
%TO.N,GND*%
X24130000Y-4800000D03*
%TO.P,U2,3,VI*%
%TO.N,12V*%
X25400000Y-4800000D03*
%TD*%
D16*
%TO.P,Q1,1,G*%
%TO.N,Net-(Q1-G)*%
X49860000Y-21460000D03*
D17*
%TO.P,Q1,2,D*%
%TO.N,12V*%
X52400000Y-21460000D03*
%TO.P,Q1,3,S*%
%TO.N,DC_OUT0*%
X54940000Y-21460000D03*
%TD*%
D18*
%TO.P,PS1,1,-Vin*%
%TO.N,GND*%
X22557500Y-12800000D03*
D19*
%TO.P,PS1,2,+Vin*%
%TO.N,+5V*%
X22557500Y-15340000D03*
%TO.P,PS1,3,-Vout*%
%TO.N,DC_OUT0*%
X22557500Y-17880000D03*
%TO.P,PS1,4,+Vout*%
%TO.N,DC_OUT5*%
X22557500Y-20420000D03*
%TD*%
D20*
%TO.P,J5,1,Pin_1*%
%TO.N,GND*%
X21900000Y-54300000D03*
D21*
%TO.P,J5,2,Pin_2*%
%TO.N,Net-(J5-Pin_2)*%
X28900000Y-54300000D03*
%TD*%
D22*
%TO.P,J4,1,Pin_1*%
%TO.N,MOTN*%
X65400000Y-35800000D03*
D21*
%TO.P,J4,2,Pin_2*%
%TO.N,MOTP*%
X65400000Y-42800000D03*
%TD*%
D23*
%TO.P,J3,1,Pin_1*%
%TO.N,MOTP*%
X53400000Y-40800000D03*
%TD*%
%TO.P,J2,1,Pin_1*%
%TO.N,DC_OUT0*%
X58400000Y-28800000D03*
%TD*%
D24*
%TO.P,J1,1,Pin_1*%
%TO.N,GND*%
X41400000Y-4800000D03*
D21*
%TO.P,J1,2,Pin_2*%
%TO.N,12V*%
X34400000Y-4800000D03*
%TD*%
D25*
%TO.P,D1,1,K*%
%TO.N,DC_OUT0*%
X58020000Y-33800000D03*
D26*
%TO.P,D1,2,A*%
%TO.N,GND*%
X42780000Y-33800000D03*
%TD*%
D11*
%TO.P,C5,1*%
%TO.N,ADC0*%
X35400000Y-33300000D03*
D12*
%TO.P,C5,2*%
%TO.N,GND*%
X35400000Y-35800000D03*
%TD*%
D11*
%TO.P,C4,1*%
%TO.N,ADC1*%
X37400000Y-49300000D03*
D12*
%TO.P,C4,2*%
%TO.N,GND*%
X37400000Y-51800000D03*
%TD*%
D27*
%TO.P,C3,1*%
%TO.N,MOTP*%
X55400000Y-46432323D03*
D28*
%TO.P,C3,2*%
%TO.N,GND*%
X55400000Y-51432323D03*
%TD*%
D12*
%TO.P,C1,1*%
%TO.N,12V*%
X40400000Y-13800000D03*
%TO.P,C1,2*%
%TO.N,GND*%
X43900000Y-13800000D03*
%TD*%
D29*
%TO.P,REF\u002A\u002A,1*%
%TO.N,N/C*%
X66400000Y-51800000D03*
%TD*%
D10*
%TO.P,A1,30,VIN*%
%TO.N,unconnected-(A1-VIN-Pad30)*%
X17400000Y-13750000D03*
%TO.P,A1,29,GND*%
%TO.N,GND*%
X17400000Y-16290000D03*
%TO.P,A1,28,~{RESET}*%
%TO.N,unconnected-(A1-~{RESET}-Pad28)*%
X17400000Y-18830000D03*
%TO.P,A1,27,+5V*%
%TO.N,+5V*%
X17400000Y-21370000D03*
%TO.P,A1,26,A7*%
%TO.N,unconnected-(A1-A7-Pad26)*%
X17400000Y-23910000D03*
%TO.P,A1,25,A6*%
%TO.N,unconnected-(A1-A6-Pad25)*%
X17400000Y-26450000D03*
%TO.P,A1,24,A5*%
%TO.N,unconnected-(A1-A5-Pad24)*%
X17400000Y-28990000D03*
%TO.P,A1,23,A4*%
%TO.N,unconnected-(A1-A4-Pad23)*%
X17400000Y-31530000D03*
%TO.P,A1,22,A3*%
%TO.N,unconnected-(A1-A3-Pad22)*%
X17400000Y-34070000D03*
%TO.P,A1,21,A2*%
%TO.N,ADC2*%
X17400000Y-36610000D03*
%TO.P,A1,20,A1*%
%TO.N,ADC1*%
X17400000Y-39150000D03*
%TO.P,A1,19,A0*%
%TO.N,ADC0*%
X17400000Y-41690000D03*
%TO.P,A1,18,AREF*%
%TO.N,unconnected-(A1-AREF-Pad18)*%
X17400000Y-44230000D03*
%TO.P,A1,17,3V3*%
%TO.N,unconnected-(A1-3V3-Pad17)*%
X17400000Y-46770000D03*
%TO.P,A1,16,D13*%
%TO.N,unconnected-(A1-D13-Pad16)*%
X17400000Y-49310000D03*
%TO.P,A1,15,D12*%
%TO.N,unconnected-(A1-D12-Pad15)*%
X2160000Y-49310000D03*
%TO.P,A1,14,D11*%
%TO.N,unconnected-(A1-D11-Pad14)*%
X2160000Y-46770000D03*
%TO.P,A1,13,D10*%
%TO.N,unconnected-(A1-D10-Pad13)*%
X2160000Y-44230000D03*
%TO.P,A1,12,D9*%
%TO.N,unconnected-(A1-D9-Pad12)*%
X2160000Y-41690000D03*
%TO.P,A1,11,D8*%
%TO.N,unconnected-(A1-D8-Pad11)*%
X2160000Y-39150000D03*
%TO.P,A1,10,D7*%
%TO.N,unconnected-(A1-D7-Pad10)*%
X2160000Y-36610000D03*
%TO.P,A1,9,D6*%
%TO.N,PWM*%
X2160000Y-34070000D03*
%TO.P,A1,8,D5*%
%TO.N,unconnected-(A1-D5-Pad8)*%
X2160000Y-31530000D03*
%TO.P,A1,7,D4*%
%TO.N,unconnected-(A1-D4-Pad7)*%
X2160000Y-28990000D03*
%TO.P,A1,6,D3*%
%TO.N,unconnected-(A1-D3-Pad6)*%
X2160000Y-26450000D03*
%TO.P,A1,5,D2*%
%TO.N,Net-(A1-D2)*%
X2160000Y-23910000D03*
%TO.P,A1,4,GND*%
%TO.N,GND*%
X2160000Y-21370000D03*
%TO.P,A1,3,~{RESET}*%
%TO.N,unconnected-(A1-~{RESET}-Pad3)*%
X2160000Y-18830000D03*
%TO.P,A1,2,D0/RX*%
%TO.N,unconnected-(A1-D0{slash}RX-Pad2)*%
X2160000Y-16290000D03*
D11*
%TO.P,A1,1,D1/TX*%
%TO.N,unconnected-(A1-D1{slash}TX-Pad1)*%
X2160000Y-13750000D03*
%TD*%
D30*
%TO.P,D2,1,K*%
%TO.N,GND*%
X17400000Y-4800000D03*
D31*
%TO.P,D2,2,A*%
%TO.N,Net-(D2-A)*%
X14860000Y-4800000D03*
%TD*%
D29*
%TO.P,REF\u002A\u002A,1*%
%TO.N,N/C*%
X65900000Y-3800000D03*
%TD*%
%TO.P,REF\u002A\u002A,1*%
%TO.N,N/C*%
X3400000Y-3800000D03*
%TD*%
D32*
%TO.N,GND*%
X37400000Y-16800000D03*
X46400000Y-19800000D03*
%TD*%
D33*
%TO.N,Net-(R5-Pad1)*%
X29600000Y-29460000D02*
X29600000Y-28565000D01*
X23260000Y-35800000D02*
X29600000Y-29460000D01*
D34*
%TO.N,ADC1*%
X16050000Y-39150000D02*
X17400000Y-39150000D01*
X15400000Y-39800000D02*
X16050000Y-39150000D01*
X15400000Y-49077767D02*
X15400000Y-39800000D01*
X29713883Y-51800000D02*
X25056941Y-47143058D01*
X32400000Y-51800000D02*
X29713883Y-51800000D01*
X32650000Y-51550000D02*
X32400000Y-51800000D01*
X32650000Y-42050000D02*
X32650000Y-51550000D01*
X25056941Y-47143058D02*
X21400000Y-50800000D01*
X21400000Y-50800000D02*
X17122233Y-50800000D01*
X17122233Y-50800000D02*
X15400000Y-49077767D01*
X31400000Y-40800000D02*
X32650000Y-42050000D01*
D33*
%TO.N,PWM*%
X29100000Y-26025000D02*
X26325000Y-28800000D01*
X29600000Y-26025000D02*
X29100000Y-26025000D01*
%TO.N,DC_OUT5*%
X27020000Y-20420000D02*
X22557500Y-20420000D01*
X32625000Y-26025000D02*
X27020000Y-20420000D01*
X37220000Y-26025000D02*
X32625000Y-26025000D01*
%TO.N,DC_OUT0*%
X49485000Y-29715000D02*
X52400000Y-26800000D01*
X29675000Y-23800000D02*
X35590000Y-29715000D01*
X35590000Y-29715000D02*
X49485000Y-29715000D01*
X21082500Y-20982500D02*
X23900000Y-23800000D01*
X21082500Y-19355000D02*
X21082500Y-20982500D01*
X23900000Y-23800000D02*
X29675000Y-23800000D01*
X22557500Y-17880000D02*
X21082500Y-19355000D01*
%TO.N,Net-(Q1-G)*%
X45135000Y-28565000D02*
X37220000Y-28565000D01*
X45820000Y-28300000D02*
X45400000Y-28300000D01*
X47320000Y-26800000D02*
X45820000Y-28300000D01*
X45400000Y-28300000D02*
X45135000Y-28565000D01*
%TO.N,PWM*%
X6090000Y-30140000D02*
X2160000Y-34070000D01*
X17876346Y-30140000D02*
X6090000Y-30140000D01*
X19216346Y-28800000D02*
X17876346Y-30140000D01*
X26325000Y-28800000D02*
X19216346Y-28800000D01*
%TO.N,Net-(J5-Pin_2)*%
X25260000Y-50660000D02*
X25260000Y-49800000D01*
X29400000Y-54800000D02*
X25260000Y-50660000D01*
D34*
%TO.N,ADC1*%
X37400000Y-46800000D02*
X31400000Y-40800000D01*
X37400000Y-49300000D02*
X37400000Y-46800000D01*
X39980000Y-51880000D02*
X37400000Y-49300000D01*
X44400000Y-51880000D02*
X39980000Y-51880000D01*
%TO.N,MOTN*%
X64400000Y-36800000D02*
X65400000Y-35800000D01*
X46340000Y-36800000D02*
X64400000Y-36800000D01*
X42340000Y-40800000D02*
X46340000Y-36800000D01*
D35*
X62260000Y-32660000D02*
X65400000Y-35800000D01*
X62260000Y-25720000D02*
X62260000Y-32660000D01*
X62260000Y-20940000D02*
X62260000Y-25720000D01*
X62400000Y-20800000D02*
X62260000Y-20940000D01*
X62400000Y-20800000D02*
X62400000Y-21720000D01*
X62400000Y-17720000D02*
X62400000Y-20800000D01*
X62400000Y-17720000D02*
X62400000Y-13720000D01*
X62400000Y-9800000D02*
X62400000Y-13720000D01*
D33*
%TO.N,GND*%
X37400000Y-18362500D02*
X36962500Y-18800000D01*
X37400000Y-16800000D02*
X37400000Y-18362500D01*
X45400000Y-20800000D02*
X46400000Y-19800000D01*
X43962500Y-20800000D02*
X45400000Y-20800000D01*
%TO.N,Net-(D2-A)*%
X11920000Y-1860000D02*
X14860000Y-4800000D01*
X10400000Y-1860000D02*
X11920000Y-1860000D01*
%TO.N,Net-(A1-D2)*%
X1683654Y-17680000D02*
X1010000Y-18353654D01*
X3520000Y-17680000D02*
X1683654Y-17680000D01*
X1010000Y-22760000D02*
X2160000Y-23910000D01*
X10400000Y-6940000D02*
X10400000Y-10800000D01*
X10400000Y-10800000D02*
X3520000Y-17680000D01*
X1010000Y-18353654D02*
X1010000Y-22760000D01*
%TO.N,ADC0*%
X21290000Y-41690000D02*
X17400000Y-41690000D01*
X29190000Y-49590000D02*
X21290000Y-41690000D01*
X29190000Y-50276346D02*
X29190000Y-49590000D01*
X29863654Y-50950000D02*
X29190000Y-50276346D01*
X30816346Y-50950000D02*
X29863654Y-50950000D01*
X31490000Y-49323654D02*
X31490000Y-50276346D01*
X31490000Y-50276346D02*
X30816346Y-50950000D01*
X29897106Y-47730760D02*
X31490000Y-49323654D01*
X29897106Y-38802894D02*
X29897106Y-47730760D01*
X35400000Y-33300000D02*
X29897106Y-38802894D01*
X37400000Y-33800000D02*
X36900000Y-33300000D01*
X36900000Y-33300000D02*
X35400000Y-33300000D01*
X37260000Y-33940000D02*
X37400000Y-33800000D01*
X37260000Y-40800000D02*
X37260000Y-33940000D01*
%TO.N,ADC2*%
X23400000Y-42860000D02*
X30340000Y-49800000D01*
X23400000Y-40800000D02*
X23400000Y-42860000D01*
X19210000Y-36610000D02*
X23400000Y-40800000D01*
X17400000Y-36610000D02*
X19210000Y-36610000D01*
X18050000Y-36610000D02*
X17400000Y-36610000D01*
X23400000Y-31260000D02*
X18050000Y-36610000D01*
%TO.N,Net-(Q1-G)*%
X47320000Y-24000000D02*
X49860000Y-21460000D01*
X47320000Y-26800000D02*
X47320000Y-24000000D01*
D35*
%TO.N,DC_OUT0*%
X54940000Y-24260000D02*
X54940000Y-21460000D01*
X52400000Y-26800000D02*
X54940000Y-24260000D01*
X54400000Y-28800000D02*
X52400000Y-26800000D01*
X58400000Y-28800000D02*
X54400000Y-28800000D01*
X58020000Y-29180000D02*
X58400000Y-28800000D01*
X58020000Y-33800000D02*
X58020000Y-29180000D01*
%TO.N,MOTP*%
X44767677Y-46432323D02*
X44400000Y-46800000D01*
X55400000Y-46432323D02*
X44767677Y-46432323D01*
X55400000Y-42800000D02*
X53400000Y-40800000D01*
X65400000Y-42800000D02*
X55400000Y-42800000D01*
X47400000Y-46800000D02*
X44400000Y-46800000D01*
X53400000Y-40800000D02*
X47400000Y-46800000D01*
X55400000Y-46432323D02*
X55400000Y-42800000D01*
X59032323Y-42800000D02*
X55400000Y-46432323D01*
X65400000Y-42800000D02*
X59032323Y-42800000D01*
%TO.N,+5V*%
X22210000Y-26180000D02*
X17400000Y-21370000D01*
X23400000Y-26180000D02*
X22210000Y-26180000D01*
X20400000Y-14807500D02*
X20400000Y-7260000D01*
X20400000Y-7260000D02*
X22860000Y-4800000D01*
X20932500Y-15340000D02*
X20400000Y-14807500D01*
X22557500Y-15340000D02*
X20932500Y-15340000D01*
X18900000Y-19870000D02*
X17400000Y-21370000D01*
X18900000Y-18997500D02*
X18900000Y-19870000D01*
X22557500Y-15340000D02*
X18900000Y-18997500D01*
X32400000Y-17362500D02*
X33837500Y-18800000D01*
X32400000Y-13800000D02*
X32400000Y-17362500D01*
X30860000Y-15340000D02*
X32400000Y-13800000D01*
X22557500Y-15340000D02*
X30860000Y-15340000D01*
%TO.N,12V*%
X42400000Y-17800000D02*
X40400000Y-15800000D01*
X52400000Y-17800000D02*
X42400000Y-17800000D01*
X40400000Y-15800000D02*
X40400000Y-20362500D01*
X40400000Y-13800000D02*
X40400000Y-15800000D01*
X52400000Y-21460000D02*
X52400000Y-17800000D01*
X34400000Y-4800000D02*
X25400000Y-4800000D01*
X40400000Y-20362500D02*
X40837500Y-20800000D01*
X34400000Y-4800000D02*
X34400000Y-7800000D01*
X34400000Y-7800000D02*
X40400000Y-13800000D01*
%TD*%
%TA.AperFunction,Conductor*%
%TO.N,12V*%
G36*
X64168627Y-319685D02*
G01*
X64214382Y-372489D01*
X64224326Y-441647D01*
X64195301Y-505203D01*
X64157883Y-534485D01*
X64050104Y-589400D01*
X64050090Y-589408D01*
X64047211Y-590875D01*
X64044491Y-592641D01*
X64044483Y-592646D01*
X63724644Y-800352D01*
X63724638Y-800355D01*
X63721916Y-802124D01*
X63719396Y-804164D01*
X63719390Y-804169D01*
X63423002Y-1044179D01*
X63422991Y-1044188D01*
X63420484Y-1046219D01*
X63418199Y-1048503D01*
X63418189Y-1048513D01*
X63148513Y-1318189D01*
X63148503Y-1318199D01*
X63146219Y-1320484D01*
X63144188Y-1322991D01*
X63144179Y-1323002D01*
X62904169Y-1619390D01*
X62904164Y-1619396D01*
X62902124Y-1621916D01*
X62900355Y-1624638D01*
X62900352Y-1624644D01*
X62692646Y-1944483D01*
X62692641Y-1944491D01*
X62690875Y-1947211D01*
X62689408Y-1950090D01*
X62689400Y-1950104D01*
X62516259Y-2289913D01*
X62516251Y-2289929D01*
X62514786Y-2292806D01*
X62513625Y-2295828D01*
X62513622Y-2295837D01*
X62376946Y-2651889D01*
X62376941Y-2651902D01*
X62375786Y-2654913D01*
X62374950Y-2658031D01*
X62374947Y-2658042D01*
X62276237Y-3026433D01*
X62276234Y-3026446D01*
X62275398Y-3029567D01*
X62274892Y-3032758D01*
X62274889Y-3032775D01*
X62215229Y-3409456D01*
X62215227Y-3409470D01*
X62214722Y-3412662D01*
X62214552Y-3415894D01*
X62214552Y-3415900D01*
X62201113Y-3672336D01*
X62194422Y-3800000D01*
X62194592Y-3803243D01*
X62211605Y-4127876D01*
X62214722Y-4187338D01*
X62215227Y-4190531D01*
X62215229Y-4190543D01*
X62274889Y-4567224D01*
X62274891Y-4567237D01*
X62275398Y-4570433D01*
X62276235Y-4573557D01*
X62276237Y-4573566D01*
X62374947Y-4941957D01*
X62375786Y-4945087D01*
X62376943Y-4948102D01*
X62376946Y-4948110D01*
X62483592Y-5225932D01*
X62514786Y-5307194D01*
X62516255Y-5310077D01*
X62516259Y-5310086D01*
X62689400Y-5649895D01*
X62690875Y-5652789D01*
X62902124Y-5978084D01*
X63146219Y-6279516D01*
X63420484Y-6553781D01*
X63721916Y-6797876D01*
X64047211Y-7009125D01*
X64099558Y-7035797D01*
X64266311Y-7120762D01*
X64392806Y-7185214D01*
X64754913Y-7324214D01*
X65129567Y-7424602D01*
X65512662Y-7485278D01*
X65900000Y-7505578D01*
X66287338Y-7485278D01*
X66670433Y-7424602D01*
X67045087Y-7324214D01*
X67407194Y-7185214D01*
X67752789Y-7009125D01*
X68078084Y-6797876D01*
X68379516Y-6553781D01*
X68653781Y-6279516D01*
X68897876Y-5978084D01*
X69109125Y-5652789D01*
X69285214Y-5307194D01*
X69424214Y-4945087D01*
X69524602Y-4570433D01*
X69585278Y-4187338D01*
X69605578Y-3800000D01*
X69585278Y-3412662D01*
X69524602Y-3029567D01*
X69424214Y-2654913D01*
X69285214Y-2292806D01*
X69109125Y-1947211D01*
X68897876Y-1621916D01*
X68653781Y-1320484D01*
X68379516Y-1046219D01*
X68078084Y-802124D01*
X67752789Y-590875D01*
X67749901Y-589403D01*
X67749895Y-589400D01*
X67642117Y-534485D01*
X67591321Y-486511D01*
X67574526Y-418690D01*
X67597063Y-352555D01*
X67651778Y-309103D01*
X67698412Y-300000D01*
X69776000Y-300000D01*
X69843039Y-319685D01*
X69888794Y-372489D01*
X69900000Y-424000D01*
X69900000Y-28176000D01*
X69880315Y-28243039D01*
X69827511Y-28288794D01*
X69776000Y-28300000D01*
X63384500Y-28300000D01*
X63317461Y-28280315D01*
X63271706Y-28227511D01*
X63260500Y-28176000D01*
X63260500Y-26597588D01*
X63280185Y-26530549D01*
X63282925Y-26526465D01*
X63390568Y-26372734D01*
X63486739Y-26166496D01*
X63545635Y-25946692D01*
X63565468Y-25720000D01*
X63565468Y-25719999D01*
X66034531Y-25719999D01*
X66054364Y-25946689D01*
X66113261Y-26166497D01*
X66209432Y-26372735D01*
X66339953Y-26559140D01*
X66500859Y-26720046D01*
X66687264Y-26850567D01*
X66687265Y-26850567D01*
X66687266Y-26850568D01*
X66893504Y-26946739D01*
X67113308Y-27005635D01*
X67340000Y-27025468D01*
X67566692Y-27005635D01*
X67786496Y-26946739D01*
X67992734Y-26850568D01*
X68179139Y-26720047D01*
X68340047Y-26559139D01*
X68470568Y-26372734D01*
X68566739Y-26166496D01*
X68625635Y-25946692D01*
X68645468Y-25720000D01*
X68625635Y-25493308D01*
X68566739Y-25273504D01*
X68470568Y-25067266D01*
X68440941Y-25024953D01*
X68340046Y-24880859D01*
X68179140Y-24719953D01*
X67992735Y-24589432D01*
X67786497Y-24493261D01*
X67566689Y-24434364D01*
X67340000Y-24414531D01*
X67113310Y-24434364D01*
X66893502Y-24493261D01*
X66687264Y-24589432D01*
X66500859Y-24719953D01*
X66339953Y-24880859D01*
X66209432Y-25067264D01*
X66113261Y-25273502D01*
X66054364Y-25493310D01*
X66034531Y-25719999D01*
X63565468Y-25719999D01*
X63545635Y-25493308D01*
X63486739Y-25273504D01*
X63390568Y-25067266D01*
X63360941Y-25024953D01*
X63282925Y-24913533D01*
X63260597Y-24847326D01*
X63260500Y-24842410D01*
X63260500Y-22750048D01*
X63280185Y-22683009D01*
X63296814Y-22662371D01*
X63400047Y-22559139D01*
X63530568Y-22372734D01*
X63626739Y-22166496D01*
X63685635Y-21946692D01*
X63705468Y-21720000D01*
X63705468Y-21719999D01*
X66174531Y-21719999D01*
X66194364Y-21946689D01*
X66253261Y-22166497D01*
X66349432Y-22372735D01*
X66479953Y-22559140D01*
X66640859Y-22720046D01*
X66827264Y-22850567D01*
X66827265Y-22850567D01*
X66827266Y-22850568D01*
X67033504Y-22946739D01*
X67253308Y-23005635D01*
X67480000Y-23025468D01*
X67706692Y-23005635D01*
X67926496Y-22946739D01*
X68132734Y-22850568D01*
X68319139Y-22720047D01*
X68480047Y-22559139D01*
X68610568Y-22372734D01*
X68706739Y-22166496D01*
X68765635Y-21946692D01*
X68785468Y-21720000D01*
X68765635Y-21493308D01*
X68706739Y-21273504D01*
X68610568Y-21067266D01*
X68606233Y-21061074D01*
X68480046Y-20880859D01*
X68319140Y-20719953D01*
X68132735Y-20589432D01*
X67926497Y-20493261D01*
X67706689Y-20434364D01*
X67480000Y-20414531D01*
X67253310Y-20434364D01*
X67033502Y-20493261D01*
X66827264Y-20589432D01*
X66640859Y-20719953D01*
X66479953Y-20880859D01*
X66349432Y-21067264D01*
X66253261Y-21273502D01*
X66194364Y-21493310D01*
X66174531Y-21719999D01*
X63705468Y-21719999D01*
X63685635Y-21493308D01*
X63626739Y-21273504D01*
X63530568Y-21067266D01*
X63526232Y-21061074D01*
X63440823Y-20939095D01*
X63422947Y-20913566D01*
X63400621Y-20847361D01*
X63400880Y-20833044D01*
X63405337Y-20774524D01*
X63401493Y-20744339D01*
X63400500Y-20728676D01*
X63400500Y-18597588D01*
X63420185Y-18530549D01*
X63422925Y-18526465D01*
X63480602Y-18444093D01*
X63530568Y-18372734D01*
X63626739Y-18166496D01*
X63685635Y-17946692D01*
X63705468Y-17720000D01*
X66174531Y-17720000D01*
X66194364Y-17946689D01*
X66253261Y-18166497D01*
X66349432Y-18372735D01*
X66479953Y-18559140D01*
X66640859Y-18720046D01*
X66827264Y-18850567D01*
X66827265Y-18850567D01*
X66827266Y-18850568D01*
X67033504Y-18946739D01*
X67253308Y-19005635D01*
X67480000Y-19025468D01*
X67706692Y-19005635D01*
X67926496Y-18946739D01*
X68132734Y-18850568D01*
X68319139Y-18720047D01*
X68480047Y-18559139D01*
X68610568Y-18372734D01*
X68706739Y-18166496D01*
X68765635Y-17946692D01*
X68785468Y-17720000D01*
X68765635Y-17493308D01*
X68706739Y-17273504D01*
X68610568Y-17067266D01*
X68555246Y-16988256D01*
X68480046Y-16880859D01*
X68319140Y-16719953D01*
X68132735Y-16589432D01*
X67926497Y-16493261D01*
X67706689Y-16434364D01*
X67480000Y-16414531D01*
X67253310Y-16434364D01*
X67033502Y-16493261D01*
X66827264Y-16589432D01*
X66640859Y-16719953D01*
X66479953Y-16880859D01*
X66349432Y-17067264D01*
X66253261Y-17273502D01*
X66194364Y-17493310D01*
X66174531Y-17720000D01*
X63705468Y-17720000D01*
X63704125Y-17704655D01*
X63691902Y-17564938D01*
X63685635Y-17493308D01*
X63626739Y-17273504D01*
X63530568Y-17067266D01*
X63524868Y-17059125D01*
X63422925Y-16913533D01*
X63400597Y-16847326D01*
X63400500Y-16842410D01*
X63400500Y-14597588D01*
X63420185Y-14530549D01*
X63422925Y-14526465D01*
X63530568Y-14372734D01*
X63626739Y-14166496D01*
X63685635Y-13946692D01*
X63705468Y-13720000D01*
X63705468Y-13719999D01*
X66174531Y-13719999D01*
X66194364Y-13946689D01*
X66253261Y-14166497D01*
X66349432Y-14372735D01*
X66479953Y-14559140D01*
X66640859Y-14720046D01*
X66827264Y-14850567D01*
X66827265Y-14850567D01*
X66827266Y-14850568D01*
X67033504Y-14946739D01*
X67253308Y-15005635D01*
X67480000Y-15025468D01*
X67706692Y-15005635D01*
X67926496Y-14946739D01*
X68132734Y-14850568D01*
X68319139Y-14720047D01*
X68480047Y-14559139D01*
X68610568Y-14372734D01*
X68706739Y-14166496D01*
X68765635Y-13946692D01*
X68785468Y-13720000D01*
X68765635Y-13493308D01*
X68706739Y-13273504D01*
X68610568Y-13067266D01*
X68500065Y-12909449D01*
X68480046Y-12880859D01*
X68319140Y-12719953D01*
X68132735Y-12589432D01*
X67926497Y-12493261D01*
X67706689Y-12434364D01*
X67480000Y-12414531D01*
X67253310Y-12434364D01*
X67033502Y-12493261D01*
X66827264Y-12589432D01*
X66640859Y-12719953D01*
X66479953Y-12880859D01*
X66349432Y-13067264D01*
X66253261Y-13273502D01*
X66194364Y-13493310D01*
X66174531Y-13719999D01*
X63705468Y-13719999D01*
X63685635Y-13493308D01*
X63626739Y-13273504D01*
X63530568Y-13067266D01*
X63530567Y-13067264D01*
X63422925Y-12913533D01*
X63400597Y-12847326D01*
X63400500Y-12842410D01*
X63400500Y-10677588D01*
X63420185Y-10610549D01*
X63422925Y-10606465D01*
X63530568Y-10452734D01*
X63626739Y-10246496D01*
X63685635Y-10026692D01*
X63705468Y-9800000D01*
X66174531Y-9800000D01*
X66194364Y-10026689D01*
X66253261Y-10246497D01*
X66349432Y-10452735D01*
X66479953Y-10639140D01*
X66640859Y-10800046D01*
X66827264Y-10930567D01*
X66827265Y-10930567D01*
X66827266Y-10930568D01*
X67033504Y-11026739D01*
X67253308Y-11085635D01*
X67404436Y-11098857D01*
X67479999Y-11105468D01*
X67479999Y-11105467D01*
X67480000Y-11105468D01*
X67706692Y-11085635D01*
X67926496Y-11026739D01*
X68132734Y-10930568D01*
X68319139Y-10800047D01*
X68480047Y-10639139D01*
X68610568Y-10452734D01*
X68706739Y-10246496D01*
X68765635Y-10026692D01*
X68785468Y-9800000D01*
X68765635Y-9573308D01*
X68706739Y-9353504D01*
X68610568Y-9147266D01*
X68480047Y-8960861D01*
X68480046Y-8960859D01*
X68319140Y-8799953D01*
X68132735Y-8669432D01*
X67926497Y-8573261D01*
X67706689Y-8514364D01*
X67479999Y-8494531D01*
X67253310Y-8514364D01*
X67033502Y-8573261D01*
X66827264Y-8669432D01*
X66640859Y-8799953D01*
X66479953Y-8960859D01*
X66349432Y-9147264D01*
X66253261Y-9353502D01*
X66194364Y-9573310D01*
X66174531Y-9800000D01*
X63705468Y-9800000D01*
X63685635Y-9573308D01*
X63626739Y-9353504D01*
X63530568Y-9147266D01*
X63400047Y-8960861D01*
X63400046Y-8960859D01*
X63239140Y-8799953D01*
X63052735Y-8669432D01*
X62846497Y-8573261D01*
X62626689Y-8514364D01*
X62400000Y-8494531D01*
X62173310Y-8514364D01*
X61953502Y-8573261D01*
X61747264Y-8669432D01*
X61560859Y-8799953D01*
X61399953Y-8960859D01*
X61269432Y-9147264D01*
X61173261Y-9353502D01*
X61114364Y-9573310D01*
X61094531Y-9800000D01*
X61114364Y-10026689D01*
X61114365Y-10026692D01*
X61173261Y-10246496D01*
X61269432Y-10452734D01*
X61312585Y-10514364D01*
X61377075Y-10606465D01*
X61399402Y-10672671D01*
X61399500Y-10677588D01*
X61399500Y-12842410D01*
X61379815Y-12909449D01*
X61377075Y-12913533D01*
X61269432Y-13067264D01*
X61173261Y-13273502D01*
X61114364Y-13493310D01*
X61094531Y-13719999D01*
X61114364Y-13946689D01*
X61173261Y-14166497D01*
X61210566Y-14246496D01*
X61269432Y-14372734D01*
X61376379Y-14525472D01*
X61377075Y-14526465D01*
X61399402Y-14592671D01*
X61399500Y-14597588D01*
X61399500Y-16842410D01*
X61379815Y-16909449D01*
X61377075Y-16913533D01*
X61269432Y-17067264D01*
X61173261Y-17273502D01*
X61114364Y-17493310D01*
X61094531Y-17719999D01*
X61114364Y-17946689D01*
X61173261Y-18166497D01*
X61269432Y-18372734D01*
X61377075Y-18526465D01*
X61399402Y-18592671D01*
X61399500Y-18597588D01*
X61399500Y-20386042D01*
X61383787Y-20439553D01*
X61385677Y-20440365D01*
X61357439Y-20506164D01*
X61353399Y-20514671D01*
X61326090Y-20566952D01*
X61317720Y-20596201D01*
X61312459Y-20610978D01*
X61300460Y-20638942D01*
X61288587Y-20696713D01*
X61286342Y-20705860D01*
X61270113Y-20762580D01*
X61267802Y-20792925D01*
X61265622Y-20808466D01*
X61259500Y-20838258D01*
X61259500Y-20897241D01*
X61259142Y-20906655D01*
X61254663Y-20965477D01*
X61258506Y-20995651D01*
X61259500Y-21011317D01*
X61259500Y-21061074D01*
X61247882Y-21113479D01*
X61173261Y-21273501D01*
X61114364Y-21493310D01*
X61094531Y-21719999D01*
X61114364Y-21946689D01*
X61173261Y-22166497D01*
X61247882Y-22326519D01*
X61259500Y-22378924D01*
X61259500Y-24842410D01*
X61239815Y-24909449D01*
X61237075Y-24913533D01*
X61129432Y-25067264D01*
X61033261Y-25273502D01*
X60974364Y-25493310D01*
X60954531Y-25720000D01*
X60974364Y-25946689D01*
X60978161Y-25960861D01*
X61033261Y-26166496D01*
X61129432Y-26372734D01*
X61198585Y-26471496D01*
X61237075Y-26526465D01*
X61259402Y-26592671D01*
X61259500Y-26597588D01*
X61259500Y-28176000D01*
X61239815Y-28243039D01*
X61187011Y-28288794D01*
X61135500Y-28300000D01*
X60400000Y-28300000D01*
X60299500Y-28300000D01*
X60232461Y-28280315D01*
X60186706Y-28227511D01*
X60175500Y-28176000D01*
X60175500Y-27728138D01*
X60175500Y-27724990D01*
X60167557Y-27647240D01*
X60164999Y-27622201D01*
X60146029Y-27564953D01*
X60109814Y-27455665D01*
X60029527Y-27325499D01*
X60017711Y-27306342D01*
X59893657Y-27182288D01*
X59744335Y-27090186D01*
X59577798Y-27035000D01*
X59478142Y-27024819D01*
X59478123Y-27024818D01*
X59475010Y-27024500D01*
X57324990Y-27024500D01*
X57321877Y-27024817D01*
X57321857Y-27024819D01*
X57222201Y-27035000D01*
X57055664Y-27090186D01*
X56906342Y-27182288D01*
X56782288Y-27306342D01*
X56690186Y-27455664D01*
X56635000Y-27622201D01*
X56628268Y-27688103D01*
X56601872Y-27752794D01*
X56544691Y-27792946D01*
X56504910Y-27799500D01*
X54865783Y-27799500D01*
X54798744Y-27779815D01*
X54778102Y-27763181D01*
X53902601Y-26887680D01*
X53869116Y-26826357D01*
X53874100Y-26756665D01*
X53902599Y-26712320D01*
X55637409Y-24977510D01*
X55639579Y-24975394D01*
X55703053Y-24915059D01*
X55736763Y-24866624D01*
X55742405Y-24859141D01*
X55779697Y-24813408D01*
X55793786Y-24786433D01*
X55801908Y-24773027D01*
X55819295Y-24748049D01*
X55842568Y-24693815D01*
X55846590Y-24685346D01*
X55873909Y-24633049D01*
X55882275Y-24603808D01*
X55887539Y-24589019D01*
X55899540Y-24561058D01*
X55911417Y-24503256D01*
X55913652Y-24494148D01*
X55929886Y-24437418D01*
X55932196Y-24407078D01*
X55934376Y-24391540D01*
X55940500Y-24361742D01*
X55940500Y-24302754D01*
X55940858Y-24293339D01*
X55941195Y-24288912D01*
X55945337Y-24234524D01*
X55941493Y-24204339D01*
X55940500Y-24188676D01*
X55940500Y-22614394D01*
X55960185Y-22547355D01*
X55973270Y-22530411D01*
X55973271Y-22530410D01*
X56090551Y-22403010D01*
X56222255Y-22201422D01*
X56318983Y-21980905D01*
X56378095Y-21747476D01*
X56393000Y-21567600D01*
X56393000Y-21352400D01*
X56378095Y-21172524D01*
X56318983Y-20939095D01*
X56222255Y-20718578D01*
X56090551Y-20516990D01*
X55927463Y-20339829D01*
X55737439Y-20191928D01*
X55525664Y-20077321D01*
X55525660Y-20077319D01*
X55525659Y-20077319D01*
X55297915Y-19999134D01*
X55060399Y-19959500D01*
X54819601Y-19959500D01*
X54582084Y-19999134D01*
X54354340Y-20077319D01*
X54354336Y-20077320D01*
X54354336Y-20077321D01*
X54248100Y-20134813D01*
X54142559Y-20191929D01*
X53952536Y-20339829D01*
X53789446Y-20516992D01*
X53773508Y-20541388D01*
X53720361Y-20586743D01*
X53651129Y-20596165D01*
X53587794Y-20566662D01*
X53565892Y-20541385D01*
X53550153Y-20517294D01*
X53387126Y-20340201D01*
X53197164Y-20192348D01*
X52985460Y-20077780D01*
X52757792Y-19999619D01*
X52650000Y-19981633D01*
X52650000Y-20968316D01*
X52621181Y-20950791D01*
X52475596Y-20910000D01*
X52362378Y-20910000D01*
X52250217Y-20925416D01*
X52150000Y-20968946D01*
X52150000Y-19981633D01*
X52149999Y-19981633D01*
X52042207Y-19999619D01*
X51814539Y-20077780D01*
X51602835Y-20192348D01*
X51460252Y-20303324D01*
X51395258Y-20328966D01*
X51326718Y-20315399D01*
X51276393Y-20266930D01*
X51267910Y-20248810D01*
X51256296Y-20217669D01*
X51170046Y-20102454D01*
X51054831Y-20016204D01*
X50919983Y-19965909D01*
X50860373Y-19959500D01*
X50857050Y-19959500D01*
X48862939Y-19959500D01*
X48862920Y-19959500D01*
X48859628Y-19959501D01*
X48856348Y-19959853D01*
X48856340Y-19959854D01*
X48800015Y-19965909D01*
X48665169Y-20016204D01*
X48549954Y-20102454D01*
X48463704Y-20217668D01*
X48413409Y-20352516D01*
X48409805Y-20386042D01*
X48407000Y-20412127D01*
X48407000Y-20415448D01*
X48407000Y-20415449D01*
X48407000Y-21941691D01*
X48387315Y-22008730D01*
X48370681Y-22029372D01*
X46920484Y-23479568D01*
X46903831Y-23492910D01*
X46854133Y-23545833D01*
X46851428Y-23548625D01*
X46831089Y-23568965D01*
X46828713Y-23572027D01*
X46828702Y-23572040D01*
X46828378Y-23572459D01*
X46820806Y-23581323D01*
X46789550Y-23614607D01*
X46779322Y-23633212D01*
X46768645Y-23649467D01*
X46755636Y-23666238D01*
X46737506Y-23708132D01*
X46732370Y-23718616D01*
X46710372Y-23758632D01*
X46705091Y-23779199D01*
X46698791Y-23797600D01*
X46690364Y-23817074D01*
X46683223Y-23862161D01*
X46680855Y-23873598D01*
X46669500Y-23917824D01*
X46669500Y-23939045D01*
X46667973Y-23958444D01*
X46664653Y-23979403D01*
X46668950Y-24024858D01*
X46669500Y-24036528D01*
X46669500Y-25603316D01*
X46649815Y-25670355D01*
X46616623Y-25704891D01*
X46480860Y-25799952D01*
X46319953Y-25960859D01*
X46189432Y-26147264D01*
X46093261Y-26353502D01*
X46034364Y-26573310D01*
X46014531Y-26799999D01*
X46034364Y-27026688D01*
X46045209Y-27067162D01*
X46043546Y-27137012D01*
X46013115Y-27186937D01*
X45936371Y-27263681D01*
X45875050Y-27297166D01*
X45848691Y-27300000D01*
X38059743Y-27300000D01*
X37992704Y-27280315D01*
X37946949Y-27227511D01*
X37937005Y-27158353D01*
X37966030Y-27094797D01*
X37988620Y-27074425D01*
X38044923Y-27035001D01*
X38059139Y-27025047D01*
X38220047Y-26864139D01*
X38350568Y-26677734D01*
X38446739Y-26471496D01*
X38505635Y-26251692D01*
X38525468Y-26025000D01*
X38505635Y-25798308D01*
X38446739Y-25578504D01*
X38350568Y-25372266D01*
X38328579Y-25340861D01*
X38220046Y-25185859D01*
X38059140Y-25024953D01*
X37872735Y-24894432D01*
X37666497Y-24798261D01*
X37446689Y-24739364D01*
X37220000Y-24719531D01*
X36993310Y-24739364D01*
X36773502Y-24798261D01*
X36567264Y-24894432D01*
X36380859Y-25024953D01*
X36219953Y-25185859D01*
X36124892Y-25321623D01*
X36070316Y-25365248D01*
X36023317Y-25374500D01*
X34353352Y-25374500D01*
X34286313Y-25354815D01*
X34240558Y-25302011D01*
X34230614Y-25232853D01*
X34238221Y-25204447D01*
X34293094Y-25067264D01*
X34400000Y-24800000D01*
X33900000Y-22800000D01*
X33851767Y-22727651D01*
X32917466Y-21326199D01*
X32897149Y-21268642D01*
X32877272Y-21050000D01*
X39675001Y-21050000D01*
X39675001Y-21496829D01*
X39675321Y-21503111D01*
X39685493Y-21602695D01*
X39740642Y-21769122D01*
X39832683Y-21918345D01*
X39956654Y-22042316D01*
X40105877Y-22134357D01*
X40272303Y-22189506D01*
X40371890Y-22199680D01*
X40378168Y-22199999D01*
X40587499Y-22199999D01*
X40587500Y-22199998D01*
X40587500Y-21050000D01*
X41087500Y-21050000D01*
X41087500Y-22199999D01*
X41296829Y-22199999D01*
X41303111Y-22199678D01*
X41402695Y-22189506D01*
X41569122Y-22134357D01*
X41718345Y-22042316D01*
X41842316Y-21918345D01*
X41934357Y-21769122D01*
X41989506Y-21602696D01*
X41999680Y-21503109D01*
X41999998Y-21496878D01*
X42799500Y-21496878D01*
X42799501Y-21500008D01*
X42799820Y-21503140D01*
X42799821Y-21503141D01*
X42810000Y-21602796D01*
X42865186Y-21769334D01*
X42957288Y-21918657D01*
X43081342Y-22042711D01*
X43081344Y-22042712D01*
X43230666Y-22134814D01*
X43326276Y-22166496D01*
X43397202Y-22189999D01*
X43496858Y-22200180D01*
X43496859Y-22200180D01*
X43499991Y-22200500D01*
X44425008Y-22200499D01*
X44527797Y-22189999D01*
X44694334Y-22134814D01*
X44843656Y-22042712D01*
X44967712Y-21918656D01*
X45059814Y-21769334D01*
X45114999Y-21602797D01*
X45119177Y-21561898D01*
X45145572Y-21497207D01*
X45202753Y-21457055D01*
X45242535Y-21450500D01*
X45314495Y-21450500D01*
X45335704Y-21452841D01*
X45338294Y-21452759D01*
X45338296Y-21452760D01*
X45408262Y-21450560D01*
X45412157Y-21450500D01*
X45437025Y-21450500D01*
X45440925Y-21450500D01*
X45445294Y-21449947D01*
X45456939Y-21449030D01*
X45502569Y-21447597D01*
X45522949Y-21441675D01*
X45541989Y-21437732D01*
X45563058Y-21435071D01*
X45605520Y-21418258D01*
X45616557Y-21414480D01*
X45660398Y-21401744D01*
X45678670Y-21390936D01*
X45696136Y-21382380D01*
X45715871Y-21374568D01*
X45752816Y-21347725D01*
X45762548Y-21341332D01*
X45801865Y-21318081D01*
X45816874Y-21303071D01*
X45831663Y-21290439D01*
X45848837Y-21277963D01*
X45877946Y-21242774D01*
X45885790Y-21234154D01*
X46383126Y-20736819D01*
X46444450Y-20703334D01*
X46470808Y-20700500D01*
X46494648Y-20700500D01*
X46618083Y-20674262D01*
X46679803Y-20661144D01*
X46852730Y-20584151D01*
X46852729Y-20584151D01*
X47005870Y-20472889D01*
X47063547Y-20408833D01*
X47132533Y-20332216D01*
X47227179Y-20168284D01*
X47285674Y-19988256D01*
X47305460Y-19800000D01*
X47285674Y-19611744D01*
X47227179Y-19431716D01*
X47227179Y-19431715D01*
X47132533Y-19267783D01*
X47005870Y-19127110D01*
X46852730Y-19015848D01*
X46679802Y-18938855D01*
X46494648Y-18899500D01*
X46494646Y-18899500D01*
X46305354Y-18899500D01*
X46305352Y-18899500D01*
X46120197Y-18938855D01*
X45947269Y-19015848D01*
X45794129Y-19127110D01*
X45667466Y-19267783D01*
X45572820Y-19431715D01*
X45514326Y-19611742D01*
X45500831Y-19740143D01*
X45474246Y-19804757D01*
X45465191Y-19814862D01*
X45298928Y-19981125D01*
X45237605Y-20014610D01*
X45167913Y-20009626D01*
X45111980Y-19967754D01*
X45093541Y-19932448D01*
X45088971Y-19918656D01*
X45059814Y-19830666D01*
X44967712Y-19681344D01*
X44967711Y-19681342D01*
X44843657Y-19557288D01*
X44694334Y-19465186D01*
X44527797Y-19410000D01*
X44428141Y-19399819D01*
X44428122Y-19399818D01*
X44425009Y-19399500D01*
X44421860Y-19399500D01*
X43503141Y-19399500D01*
X43503121Y-19399500D01*
X43499992Y-19399501D01*
X43496860Y-19399820D01*
X43496858Y-19399821D01*
X43397203Y-19410000D01*
X43230665Y-19465186D01*
X43081342Y-19557288D01*
X42957288Y-19681342D01*
X42865186Y-19830665D01*
X42810000Y-19997202D01*
X42799819Y-20096858D01*
X42799817Y-20096878D01*
X42799500Y-20099991D01*
X42799500Y-20103138D01*
X42799500Y-20103139D01*
X42799500Y-21496859D01*
X42799500Y-21496878D01*
X41999998Y-21496878D01*
X42000000Y-21496831D01*
X42000000Y-21050000D01*
X41087500Y-21050000D01*
X40587500Y-21050000D01*
X39675001Y-21050000D01*
X32877272Y-21050000D01*
X32831818Y-20550000D01*
X39675000Y-20550000D01*
X40587500Y-20550000D01*
X40587500Y-19400000D01*
X41087500Y-19400000D01*
X41087500Y-20550000D01*
X41999999Y-20550000D01*
X41999999Y-20103170D01*
X41999678Y-20096888D01*
X41989506Y-19997304D01*
X41934357Y-19830877D01*
X41842316Y-19681654D01*
X41718345Y-19557683D01*
X41569122Y-19465642D01*
X41402696Y-19410493D01*
X41303109Y-19400319D01*
X41296832Y-19400000D01*
X41087500Y-19400000D01*
X40587500Y-19400000D01*
X40378171Y-19400000D01*
X40371888Y-19400321D01*
X40272304Y-19410493D01*
X40105877Y-19465642D01*
X39956654Y-19557683D01*
X39832683Y-19681654D01*
X39740642Y-19830877D01*
X39685493Y-19997303D01*
X39675319Y-20096890D01*
X39675000Y-20103168D01*
X39675000Y-20550000D01*
X32831818Y-20550000D01*
X32798012Y-20178136D01*
X32811546Y-20109592D01*
X32859991Y-20059244D01*
X32927965Y-20043081D01*
X32986596Y-20061372D01*
X33105666Y-20134814D01*
X33188934Y-20162406D01*
X33272202Y-20189999D01*
X33371858Y-20200180D01*
X33371859Y-20200180D01*
X33374991Y-20200500D01*
X34300008Y-20200499D01*
X34402797Y-20189999D01*
X34569334Y-20134814D01*
X34718656Y-20042712D01*
X34842712Y-19918656D01*
X34934814Y-19769334D01*
X34989999Y-19602797D01*
X35000500Y-19500009D01*
X35000500Y-19496878D01*
X35799500Y-19496878D01*
X35799501Y-19500008D01*
X35799820Y-19503140D01*
X35799821Y-19503141D01*
X35810000Y-19602796D01*
X35865186Y-19769334D01*
X35957288Y-19918657D01*
X36081342Y-20042711D01*
X36081344Y-20042712D01*
X36230666Y-20134814D01*
X36331672Y-20168284D01*
X36397202Y-20189999D01*
X36496858Y-20200180D01*
X36496859Y-20200180D01*
X36499991Y-20200500D01*
X37425008Y-20200499D01*
X37527797Y-20189999D01*
X37694334Y-20134814D01*
X37843656Y-20042712D01*
X37967712Y-19918656D01*
X38059814Y-19769334D01*
X38114999Y-19602797D01*
X38125500Y-19500009D01*
X38125499Y-18099992D01*
X38114999Y-17997203D01*
X38095050Y-17937002D01*
X38056794Y-17821551D01*
X38050500Y-17782547D01*
X38050500Y-17470922D01*
X38070185Y-17403883D01*
X38082350Y-17387949D01*
X38089674Y-17379815D01*
X38132533Y-17332216D01*
X38166432Y-17273502D01*
X38227179Y-17168284D01*
X38260002Y-17067266D01*
X38285674Y-16988256D01*
X38305460Y-16800000D01*
X38285674Y-16611744D01*
X38228040Y-16434365D01*
X38227179Y-16431715D01*
X38132533Y-16267783D01*
X38005870Y-16127110D01*
X37852730Y-16015848D01*
X37679802Y-15938855D01*
X37494648Y-15899500D01*
X37494646Y-15899500D01*
X37305354Y-15899500D01*
X37305352Y-15899500D01*
X37120197Y-15938855D01*
X36947269Y-16015848D01*
X36794129Y-16127110D01*
X36667466Y-16267783D01*
X36572820Y-16431715D01*
X36514326Y-16611742D01*
X36494540Y-16800000D01*
X36514326Y-16988257D01*
X36572820Y-17168284D01*
X36599168Y-17213919D01*
X36615641Y-17281819D01*
X36592788Y-17347846D01*
X36537867Y-17391037D01*
X36498885Y-17399585D01*
X36499992Y-17399501D01*
X36498644Y-17399638D01*
X36498638Y-17399639D01*
X36496865Y-17399820D01*
X36496853Y-17399821D01*
X36397203Y-17410000D01*
X36230665Y-17465186D01*
X36081342Y-17557288D01*
X35957288Y-17681342D01*
X35865186Y-17830665D01*
X35810000Y-17997202D01*
X35799819Y-18096858D01*
X35799817Y-18096878D01*
X35799500Y-18099991D01*
X35799500Y-18103138D01*
X35799500Y-18103139D01*
X35799500Y-19496859D01*
X35799500Y-19496878D01*
X35000500Y-19496878D01*
X35000499Y-18099992D01*
X34989999Y-17997203D01*
X34934814Y-17830666D01*
X34866555Y-17720000D01*
X34842711Y-17681342D01*
X34718657Y-17557288D01*
X34569334Y-17465186D01*
X34402797Y-17410000D01*
X34303141Y-17399819D01*
X34303122Y-17399818D01*
X34300009Y-17399500D01*
X34296860Y-17399500D01*
X33903282Y-17399500D01*
X33836243Y-17379815D01*
X33815601Y-17363181D01*
X33436819Y-16984398D01*
X33403334Y-16923075D01*
X33400500Y-16896717D01*
X33400500Y-14677588D01*
X33420185Y-14610549D01*
X33422925Y-14606465D01*
X33456516Y-14558492D01*
X33530568Y-14452734D01*
X33626739Y-14246496D01*
X33685635Y-14026692D01*
X33705468Y-13800000D01*
X39095033Y-13800000D01*
X39114858Y-14026602D01*
X39173733Y-14246326D01*
X39269866Y-14452484D01*
X39320972Y-14525471D01*
X39320973Y-14525472D01*
X40002046Y-13844399D01*
X40014835Y-13925148D01*
X40072359Y-14038045D01*
X40161955Y-14127641D01*
X40274852Y-14185165D01*
X40355599Y-14197953D01*
X39674526Y-14879025D01*
X39674526Y-14879026D01*
X39747515Y-14930133D01*
X39953673Y-15026266D01*
X40173397Y-15085141D01*
X40400000Y-15104966D01*
X40626602Y-15085141D01*
X40846326Y-15026266D01*
X41052480Y-14930134D01*
X41125472Y-14879025D01*
X40444401Y-14197953D01*
X40525148Y-14185165D01*
X40638045Y-14127641D01*
X40727641Y-14038045D01*
X40785165Y-13925148D01*
X40797953Y-13844400D01*
X41479025Y-14525472D01*
X41530134Y-14452480D01*
X41626266Y-14246326D01*
X41685141Y-14026602D01*
X41704966Y-13800000D01*
X42594531Y-13800000D01*
X42614364Y-14026689D01*
X42673261Y-14246497D01*
X42769432Y-14452735D01*
X42899953Y-14639140D01*
X43060859Y-14800046D01*
X43247264Y-14930567D01*
X43247265Y-14930567D01*
X43247266Y-14930568D01*
X43453504Y-15026739D01*
X43673308Y-15085635D01*
X43824435Y-15098856D01*
X43899999Y-15105468D01*
X43899999Y-15105467D01*
X43900000Y-15105468D01*
X44126692Y-15085635D01*
X44346496Y-15026739D01*
X44552734Y-14930568D01*
X44739139Y-14800047D01*
X44900047Y-14639139D01*
X45030568Y-14452734D01*
X45126739Y-14246496D01*
X45185635Y-14026692D01*
X45205468Y-13800000D01*
X45185635Y-13573308D01*
X45126739Y-13353504D01*
X45030568Y-13147266D01*
X44979636Y-13074526D01*
X44900046Y-12960859D01*
X44739140Y-12799953D01*
X44552735Y-12669432D01*
X44346497Y-12573261D01*
X44126689Y-12514364D01*
X43900000Y-12494531D01*
X43673310Y-12514364D01*
X43453502Y-12573261D01*
X43247264Y-12669432D01*
X43060859Y-12799953D01*
X42899953Y-12960859D01*
X42769432Y-13147264D01*
X42673261Y-13353502D01*
X42614364Y-13573310D01*
X42594531Y-13800000D01*
X41704966Y-13800000D01*
X41704966Y-13799999D01*
X41685141Y-13573397D01*
X41626266Y-13353673D01*
X41530133Y-13147515D01*
X41479025Y-13074526D01*
X40797953Y-13755598D01*
X40785165Y-13674852D01*
X40727641Y-13561955D01*
X40638045Y-13472359D01*
X40525148Y-13414835D01*
X40444400Y-13402046D01*
X41125472Y-12720974D01*
X41125471Y-12720972D01*
X41052484Y-12669866D01*
X40846326Y-12573733D01*
X40626602Y-12514858D01*
X40400000Y-12495033D01*
X40173397Y-12514858D01*
X39953672Y-12573733D01*
X39747516Y-12669865D01*
X39674527Y-12720973D01*
X39674526Y-12720973D01*
X40355600Y-13402046D01*
X40274852Y-13414835D01*
X40161955Y-13472359D01*
X40072359Y-13561955D01*
X40014835Y-13674852D01*
X40002046Y-13755598D01*
X39320973Y-13074527D01*
X39269865Y-13147516D01*
X39173733Y-13353672D01*
X39114858Y-13573397D01*
X39095033Y-13800000D01*
X33705468Y-13800000D01*
X33703935Y-13782483D01*
X33694519Y-13674852D01*
X33685635Y-13573308D01*
X33626739Y-13353504D01*
X33530568Y-13147266D01*
X33479636Y-13074526D01*
X33400046Y-12960859D01*
X33326867Y-12887680D01*
X33293382Y-12826357D01*
X33298366Y-12756665D01*
X33326866Y-12712319D01*
X33400047Y-12639139D01*
X33530568Y-12452734D01*
X33626739Y-12246496D01*
X33685635Y-12026692D01*
X33705468Y-11800000D01*
X33685635Y-11573308D01*
X33626739Y-11353504D01*
X33530568Y-11147266D01*
X33446175Y-11026738D01*
X33400046Y-10960859D01*
X33239140Y-10799953D01*
X33052735Y-10669432D01*
X32846497Y-10573261D01*
X32626689Y-10514364D01*
X32400000Y-10494531D01*
X32173310Y-10514364D01*
X31953502Y-10573261D01*
X31747264Y-10669432D01*
X31560859Y-10799953D01*
X31399953Y-10960859D01*
X31269432Y-11147264D01*
X31173261Y-11353502D01*
X31114364Y-11573310D01*
X31094531Y-11799999D01*
X31114364Y-12026689D01*
X31173261Y-12246497D01*
X31269432Y-12452735D01*
X31399953Y-12639140D01*
X31473131Y-12712318D01*
X31506616Y-12773641D01*
X31501632Y-12843333D01*
X31473132Y-12887679D01*
X31399953Y-12960859D01*
X31269432Y-13147264D01*
X31173261Y-13353503D01*
X31114365Y-13573308D01*
X31108959Y-13635094D01*
X31083506Y-13700162D01*
X31073111Y-13711966D01*
X30615989Y-14169091D01*
X30481899Y-14303181D01*
X30420576Y-14336666D01*
X30394218Y-14339500D01*
X29754036Y-14339500D01*
X29694658Y-14324359D01*
X28733331Y-13799999D01*
X26915675Y-12808550D01*
X26887372Y-12787372D01*
X25400001Y-11300000D01*
X21497601Y-10432800D01*
X21436428Y-10399041D01*
X21403217Y-10337569D01*
X21400500Y-10311753D01*
X21400500Y-7725782D01*
X21420185Y-7658743D01*
X21436819Y-7638101D01*
X22988102Y-6086818D01*
X23049425Y-6053333D01*
X23075783Y-6050499D01*
X23429561Y-6050499D01*
X23432872Y-6050499D01*
X23492483Y-6044091D01*
X23627331Y-5993796D01*
X23627331Y-5993795D01*
X23644037Y-5987565D01*
X23644413Y-5988574D01*
X23689725Y-5971671D01*
X23734576Y-5976693D01*
X23735652Y-5977019D01*
X23735659Y-5977023D01*
X23928967Y-6035662D01*
X24130000Y-6055462D01*
X24331033Y-6035662D01*
X24524341Y-5977023D01*
X24702494Y-5881798D01*
X24702495Y-5881797D01*
X24707077Y-5879348D01*
X24775479Y-5865106D01*
X24823984Y-5879348D01*
X25005850Y-5976558D01*
X25150000Y-6020285D01*
X25150000Y-5137314D01*
X25150597Y-5125160D01*
X25153243Y-5098293D01*
X25154629Y-5084220D01*
X25219052Y-5134363D01*
X25337424Y-5175000D01*
X25431073Y-5175000D01*
X25523446Y-5159586D01*
X25633514Y-5100019D01*
X25649999Y-5082110D01*
X25650000Y-6020285D01*
X25794150Y-5976558D01*
X25972215Y-5881379D01*
X26128292Y-5753292D01*
X26256379Y-5597215D01*
X26351557Y-5419151D01*
X26410170Y-5225932D01*
X26424701Y-5078395D01*
X26425000Y-5072311D01*
X26425000Y-5050000D01*
X25679560Y-5050000D01*
X25718278Y-5007941D01*
X25768551Y-4893330D01*
X25775950Y-4804043D01*
X32145437Y-4804043D01*
X32164197Y-5090271D01*
X32165253Y-5098293D01*
X32221210Y-5379608D01*
X32223307Y-5387436D01*
X32315505Y-5659038D01*
X32318607Y-5666528D01*
X32445466Y-5923774D01*
X32449516Y-5930788D01*
X32608866Y-6169271D01*
X32613805Y-6175708D01*
X32640405Y-6206039D01*
X32640406Y-6206039D01*
X33701470Y-5144976D01*
X33790246Y-5286262D01*
X33913738Y-5409754D01*
X34055023Y-5498529D01*
X32993959Y-6559592D01*
X32993959Y-6559593D01*
X33024291Y-6586194D01*
X33030728Y-6591133D01*
X33269211Y-6750483D01*
X33276225Y-6754533D01*
X33533471Y-6881392D01*
X33540961Y-6884494D01*
X33812563Y-6976692D01*
X33820391Y-6978789D01*
X34101706Y-7034746D01*
X34109728Y-7035802D01*
X34395957Y-7054563D01*
X34404043Y-7054563D01*
X34690271Y-7035802D01*
X34698293Y-7034746D01*
X34979608Y-6978789D01*
X34987436Y-6976692D01*
X35259038Y-6884494D01*
X35266528Y-6881392D01*
X35523774Y-6754533D01*
X35530788Y-6750483D01*
X35769273Y-6591132D01*
X35775698Y-6586201D01*
X35806040Y-6559592D01*
X35593324Y-6346876D01*
X39149500Y-6346876D01*
X39149501Y-6350006D01*
X39149820Y-6353138D01*
X39149821Y-6353139D01*
X39160000Y-6452795D01*
X39215185Y-6619332D01*
X39307290Y-6768657D01*
X39431342Y-6892709D01*
X39431344Y-6892710D01*
X39431345Y-6892711D01*
X39580667Y-6984814D01*
X39604846Y-6992826D01*
X39747203Y-7039999D01*
X39846860Y-7050180D01*
X39846861Y-7050180D01*
X39849993Y-7050500D01*
X42950006Y-7050499D01*
X43052796Y-7039999D01*
X43219333Y-6984814D01*
X43368655Y-6892711D01*
X43492711Y-6768655D01*
X43584814Y-6619333D01*
X43639999Y-6452796D01*
X43650500Y-6350007D01*
X43650499Y-4800000D01*
X50144671Y-4800000D01*
X50144936Y-4804043D01*
X50146635Y-4829968D01*
X50146831Y-4842219D01*
X50145861Y-4871221D01*
X50145861Y-4871230D01*
X50145723Y-4875369D01*
X50146137Y-4879490D01*
X50146138Y-4879502D01*
X50156664Y-4984136D01*
X50157021Y-4988436D01*
X50162918Y-5078395D01*
X50163966Y-5094380D01*
X50164757Y-5098357D01*
X50164759Y-5098372D01*
X50170469Y-5127083D01*
X50172228Y-5138852D01*
X50175466Y-5171033D01*
X50175467Y-5171040D01*
X50175882Y-5175162D01*
X50176843Y-5179197D01*
X50176845Y-5179205D01*
X50200457Y-5278288D01*
X50201452Y-5282841D01*
X50210201Y-5326823D01*
X50221519Y-5383722D01*
X50222822Y-5387563D01*
X50222826Y-5387575D01*
X50233300Y-5418433D01*
X50236501Y-5429538D01*
X50244769Y-5464229D01*
X50244773Y-5464243D01*
X50245731Y-5468261D01*
X50247214Y-5472112D01*
X50247217Y-5472121D01*
X50282644Y-5564105D01*
X50284348Y-5568811D01*
X50314976Y-5659038D01*
X50316348Y-5663077D01*
X50318141Y-5666713D01*
X50318142Y-5666715D01*
X50334022Y-5698916D01*
X50338523Y-5709191D01*
X50352534Y-5745568D01*
X50354023Y-5749434D01*
X50356014Y-5753067D01*
X50401787Y-5836594D01*
X50404249Y-5841325D01*
X50446828Y-5927665D01*
X50449081Y-5931037D01*
X50449084Y-5931042D01*
X50470868Y-5963644D01*
X50476507Y-5972941D01*
X50498825Y-6013665D01*
X50501284Y-6017002D01*
X50501287Y-6017007D01*
X50555826Y-6091028D01*
X50559099Y-6095691D01*
X50610727Y-6172957D01*
X50613399Y-6176004D01*
X50613403Y-6176009D01*
X50641445Y-6207985D01*
X50648039Y-6216180D01*
X50677554Y-6256238D01*
X50680439Y-6259221D01*
X50742064Y-6322942D01*
X50746156Y-6327385D01*
X50784245Y-6370816D01*
X50805242Y-6394758D01*
X50808288Y-6397429D01*
X50808291Y-6397432D01*
X50842755Y-6427657D01*
X50850128Y-6434679D01*
X50867649Y-6452795D01*
X50887020Y-6472824D01*
X50896921Y-6480643D01*
X50957241Y-6528276D01*
X50962152Y-6532364D01*
X51027043Y-6589273D01*
X51071308Y-6618850D01*
X51079228Y-6624609D01*
X51123485Y-6659558D01*
X51127052Y-6661671D01*
X51127054Y-6661672D01*
X51197610Y-6703462D01*
X51203309Y-6707050D01*
X51268310Y-6750483D01*
X51272335Y-6753172D01*
X51275975Y-6754967D01*
X51323036Y-6778175D01*
X51331381Y-6782695D01*
X51382730Y-6813109D01*
X51386534Y-6814722D01*
X51386538Y-6814724D01*
X51459009Y-6845454D01*
X51465439Y-6848400D01*
X51536923Y-6883652D01*
X51593585Y-6902886D01*
X51602134Y-6906144D01*
X51660128Y-6930736D01*
X51734578Y-6951129D01*
X51736832Y-6951747D01*
X51743916Y-6953916D01*
X51816278Y-6978481D01*
X51878232Y-6990804D01*
X51886786Y-6992824D01*
X51950729Y-7010340D01*
X52026297Y-7020502D01*
X52033934Y-7021774D01*
X52105620Y-7036034D01*
X52109660Y-7036298D01*
X52109662Y-7036299D01*
X52116676Y-7036758D01*
X52171972Y-7040382D01*
X52180339Y-7041218D01*
X52249347Y-7050500D01*
X52322273Y-7050500D01*
X52330383Y-7050766D01*
X52400000Y-7055329D01*
X52472239Y-7050594D01*
X52474143Y-7050500D01*
X52475244Y-7050500D01*
X52548842Y-7045573D01*
X52694380Y-7036034D01*
X52695453Y-7035819D01*
X52695685Y-7035797D01*
X52696487Y-7035689D01*
X52700634Y-7035412D01*
X52843658Y-7006341D01*
X52983722Y-6978481D01*
X52986833Y-6977424D01*
X52991192Y-6976398D01*
X52991828Y-6976223D01*
X52995903Y-6975396D01*
X53130821Y-6928547D01*
X53263077Y-6883652D01*
X53266724Y-6881852D01*
X53270476Y-6880299D01*
X53262809Y-6883798D01*
X53274169Y-6879011D01*
X53272803Y-6879538D01*
X53276616Y-6877921D01*
X53280537Y-6876560D01*
X53405220Y-6813554D01*
X53527665Y-6753172D01*
X53531039Y-6750916D01*
X53534557Y-6748886D01*
X53534088Y-6749177D01*
X53543540Y-6743658D01*
X53549459Y-6740668D01*
X53662040Y-6663385D01*
X53772957Y-6589273D01*
X53778074Y-6584784D01*
X53789655Y-6575781D01*
X53797869Y-6570144D01*
X53896824Y-6480643D01*
X53994758Y-6394758D01*
X54001434Y-6387143D01*
X54011494Y-6376930D01*
X54021333Y-6368032D01*
X54105443Y-6268545D01*
X54189273Y-6172957D01*
X54196744Y-6161774D01*
X54205144Y-6150618D01*
X54215865Y-6137939D01*
X54283611Y-6031815D01*
X54284972Y-6029732D01*
X54353172Y-5927665D01*
X54360588Y-5912625D01*
X54367274Y-5900759D01*
X54377993Y-5883970D01*
X54429611Y-5772733D01*
X54430806Y-5770236D01*
X54483652Y-5663077D01*
X54490109Y-5644053D01*
X54495048Y-5631722D01*
X54503078Y-5614419D01*
X54503079Y-5614414D01*
X54504823Y-5610658D01*
X54540150Y-5496773D01*
X54541150Y-5493691D01*
X54578481Y-5383722D01*
X54583047Y-5360759D01*
X54586225Y-5348238D01*
X54594093Y-5322879D01*
X54613383Y-5208516D01*
X54614023Y-5205033D01*
X54636034Y-5094380D01*
X54637781Y-5067712D01*
X54639239Y-5055229D01*
X54644209Y-5025770D01*
X54647973Y-4913173D01*
X54648169Y-4909227D01*
X54650389Y-4875369D01*
X54655329Y-4800000D01*
X54653363Y-4770022D01*
X54653167Y-4757803D01*
X54654277Y-4724631D01*
X54643336Y-4615880D01*
X54642979Y-4611584D01*
X54640802Y-4578367D01*
X54636034Y-4505620D01*
X54629528Y-4472912D01*
X54627770Y-4461143D01*
X54624533Y-4428967D01*
X54624118Y-4424838D01*
X54599532Y-4321675D01*
X54598556Y-4317210D01*
X54578481Y-4216278D01*
X54566695Y-4181559D01*
X54563496Y-4170457D01*
X54555229Y-4135769D01*
X54554269Y-4131739D01*
X54517351Y-4035884D01*
X54515655Y-4031200D01*
X54483652Y-3936923D01*
X54465973Y-3901073D01*
X54461479Y-3890816D01*
X54445977Y-3850566D01*
X54398196Y-3763378D01*
X54395755Y-3758688D01*
X54353172Y-3672336D01*
X54350912Y-3668953D01*
X54350911Y-3668952D01*
X54329133Y-3636360D01*
X54323491Y-3627058D01*
X54321255Y-3622977D01*
X54301175Y-3586335D01*
X54244169Y-3508966D01*
X54240897Y-3504304D01*
X54189273Y-3427043D01*
X54162991Y-3397074D01*
X54158553Y-3392013D01*
X54151954Y-3383810D01*
X54124908Y-3347103D01*
X54124905Y-3347100D01*
X54122446Y-3343762D01*
X54057934Y-3277056D01*
X54053842Y-3272613D01*
X54006165Y-3218249D01*
X53994758Y-3205242D01*
X53991717Y-3202575D01*
X53991707Y-3202565D01*
X53957237Y-3172335D01*
X53949864Y-3165313D01*
X53915861Y-3130155D01*
X53912980Y-3127176D01*
X53909730Y-3124609D01*
X53909725Y-3124605D01*
X53842768Y-3071730D01*
X53837858Y-3067643D01*
X53776015Y-3013408D01*
X53776007Y-3013402D01*
X53772957Y-3010727D01*
X53769583Y-3008473D01*
X53769572Y-3008464D01*
X53728701Y-2981154D01*
X53720745Y-2975369D01*
X53679770Y-2943012D01*
X53679766Y-2943009D01*
X53676515Y-2940442D01*
X53672945Y-2938327D01*
X53672940Y-2938324D01*
X53602387Y-2896535D01*
X53596690Y-2892948D01*
X53531042Y-2849084D01*
X53531037Y-2849081D01*
X53527665Y-2846828D01*
X53524030Y-2845035D01*
X53524026Y-2845033D01*
X53476949Y-2821816D01*
X53468615Y-2817302D01*
X53417270Y-2786891D01*
X53340997Y-2754548D01*
X53334570Y-2751603D01*
X53266720Y-2718143D01*
X53266701Y-2718135D01*
X53263077Y-2716348D01*
X53259247Y-2715047D01*
X53259245Y-2715047D01*
X53206409Y-2697111D01*
X53197863Y-2693853D01*
X53143700Y-2670886D01*
X53143684Y-2670880D01*
X53139872Y-2669264D01*
X53135874Y-2668168D01*
X53135866Y-2668166D01*
X53063154Y-2648248D01*
X53056074Y-2646079D01*
X52983722Y-2621519D01*
X52979749Y-2620728D01*
X52979739Y-2620726D01*
X52921777Y-2609197D01*
X52913210Y-2607174D01*
X52853270Y-2590755D01*
X52853264Y-2590753D01*
X52849271Y-2589660D01*
X52845170Y-2589108D01*
X52845158Y-2589106D01*
X52773717Y-2579497D01*
X52766058Y-2578222D01*
X52698361Y-2564757D01*
X52698348Y-2564755D01*
X52694380Y-2563966D01*
X52690328Y-2563700D01*
X52690325Y-2563700D01*
X52628070Y-2559619D01*
X52619655Y-2558779D01*
X52554756Y-2550051D01*
X52554744Y-2550050D01*
X52550653Y-2549500D01*
X52546512Y-2549500D01*
X52477727Y-2549500D01*
X52469617Y-2549234D01*
X52436837Y-2547085D01*
X52400000Y-2544671D01*
X52327776Y-2549404D01*
X52325855Y-2549500D01*
X52324756Y-2549500D01*
X52322696Y-2549637D01*
X52322692Y-2549638D01*
X52251157Y-2554426D01*
X52108845Y-2563754D01*
X52108827Y-2563755D01*
X52105620Y-2563966D01*
X52104533Y-2564181D01*
X52104259Y-2564209D01*
X52103504Y-2564310D01*
X52099366Y-2564588D01*
X52095301Y-2565414D01*
X52095295Y-2565415D01*
X51956341Y-2593658D01*
X51820257Y-2620727D01*
X51820249Y-2620728D01*
X51816278Y-2621519D01*
X51813169Y-2622573D01*
X51808810Y-2623600D01*
X51808160Y-2623777D01*
X51804097Y-2624604D01*
X51800182Y-2625963D01*
X51800176Y-2625965D01*
X51669178Y-2671452D01*
X51540765Y-2715043D01*
X51540754Y-2715047D01*
X51536923Y-2716348D01*
X51533284Y-2718141D01*
X51529538Y-2719694D01*
X51536357Y-2716612D01*
X51526377Y-2720775D01*
X51527192Y-2720462D01*
X51523363Y-2722085D01*
X51519463Y-2723440D01*
X51515782Y-2725299D01*
X51515775Y-2725303D01*
X51394757Y-2786456D01*
X51275967Y-2845037D01*
X51275962Y-2845039D01*
X51272336Y-2846828D01*
X51268972Y-2849074D01*
X51265446Y-2851111D01*
X51265844Y-2850863D01*
X51256491Y-2856324D01*
X51254242Y-2857460D01*
X51254223Y-2857470D01*
X51250541Y-2859332D01*
X51247133Y-2861671D01*
X51247127Y-2861675D01*
X51137943Y-2936626D01*
X51030426Y-3008465D01*
X51030410Y-3008477D01*
X51027043Y-3010727D01*
X51023996Y-3013398D01*
X51023979Y-3013412D01*
X51021914Y-3015224D01*
X51010353Y-3024211D01*
X51005554Y-3027505D01*
X51005543Y-3027513D01*
X51002131Y-3029856D01*
X50999058Y-3032634D01*
X50999052Y-3032640D01*
X50903175Y-3119356D01*
X50808286Y-3202572D01*
X50808282Y-3202575D01*
X50805242Y-3205242D01*
X50802580Y-3208276D01*
X50802567Y-3208290D01*
X50798557Y-3212863D01*
X50788520Y-3223055D01*
X50781735Y-3229191D01*
X50781720Y-3229206D01*
X50778667Y-3231968D01*
X50775998Y-3235124D01*
X50775993Y-3235130D01*
X50694556Y-3331454D01*
X50613406Y-3423987D01*
X50613398Y-3423996D01*
X50610727Y-3427043D01*
X50608471Y-3430417D01*
X50608467Y-3430424D01*
X50603247Y-3438235D01*
X50594852Y-3449382D01*
X50586813Y-3458891D01*
X50586800Y-3458907D01*
X50584135Y-3462061D01*
X50581913Y-3465541D01*
X50581909Y-3465547D01*
X50516420Y-3568132D01*
X50515005Y-3570297D01*
X50449087Y-3668953D01*
X50449078Y-3668968D01*
X50446828Y-3672336D01*
X50445034Y-3675971D01*
X50445033Y-3675975D01*
X50439412Y-3687372D01*
X50432727Y-3699234D01*
X50424236Y-3712536D01*
X50424227Y-3712550D01*
X50422007Y-3716030D01*
X50420271Y-3719769D01*
X50420267Y-3719778D01*
X50370412Y-3827212D01*
X50369146Y-3829857D01*
X50336508Y-3896042D01*
X50316348Y-3936923D01*
X50315046Y-3940755D01*
X50315045Y-3940760D01*
X50309891Y-3955943D01*
X50304954Y-3968271D01*
X50296923Y-3985577D01*
X50296918Y-3985589D01*
X50295177Y-3989342D01*
X50293949Y-3993298D01*
X50293946Y-3993308D01*
X50259852Y-4103215D01*
X50258850Y-4106300D01*
X50221519Y-4216278D01*
X50220727Y-4220254D01*
X50220723Y-4220273D01*
X50216951Y-4239236D01*
X50213769Y-4251774D01*
X50205907Y-4277121D01*
X50205219Y-4281194D01*
X50205214Y-4281219D01*
X50186622Y-4391434D01*
X50185968Y-4394996D01*
X50164758Y-4501636D01*
X50163966Y-4505620D01*
X50163701Y-4509662D01*
X50163700Y-4509672D01*
X50162218Y-4532274D01*
X50160758Y-4544777D01*
X50156479Y-4570148D01*
X50155791Y-4574230D01*
X50155652Y-4578357D01*
X50155652Y-4578367D01*
X50152027Y-4686779D01*
X50151831Y-4690743D01*
X50146634Y-4770046D01*
X50144671Y-4800000D01*
X43650499Y-4800000D01*
X43650499Y-3249994D01*
X43639999Y-3147204D01*
X43584814Y-2980667D01*
X43492711Y-2831345D01*
X43492710Y-2831344D01*
X43492709Y-2831342D01*
X43368657Y-2707290D01*
X43228316Y-2620727D01*
X43219333Y-2615186D01*
X43219332Y-2615185D01*
X43219331Y-2615185D01*
X43052796Y-2560000D01*
X42953139Y-2549819D01*
X42953120Y-2549818D01*
X42950007Y-2549500D01*
X42946858Y-2549500D01*
X39853142Y-2549500D01*
X39853122Y-2549500D01*
X39849994Y-2549501D01*
X39846862Y-2549820D01*
X39846860Y-2549821D01*
X39747204Y-2560000D01*
X39580667Y-2615185D01*
X39431342Y-2707290D01*
X39307290Y-2831342D01*
X39215185Y-2980668D01*
X39160000Y-3147203D01*
X39149819Y-3246860D01*
X39149817Y-3246880D01*
X39149500Y-3249993D01*
X39149500Y-3253140D01*
X39149500Y-3253141D01*
X39149500Y-6346857D01*
X39149500Y-6346876D01*
X35593324Y-6346876D01*
X34744976Y-5498529D01*
X34886262Y-5409754D01*
X35009754Y-5286262D01*
X35098529Y-5144976D01*
X36159592Y-6206040D01*
X36186201Y-6175698D01*
X36191132Y-6169273D01*
X36350483Y-5930788D01*
X36354533Y-5923774D01*
X36481392Y-5666528D01*
X36484494Y-5659038D01*
X36576692Y-5387436D01*
X36578789Y-5379608D01*
X36634746Y-5098293D01*
X36635802Y-5090271D01*
X36654563Y-4804043D01*
X36654563Y-4795956D01*
X36635802Y-4509728D01*
X36634746Y-4501706D01*
X36578789Y-4220391D01*
X36576692Y-4212563D01*
X36484494Y-3940961D01*
X36481392Y-3933471D01*
X36354533Y-3676225D01*
X36350483Y-3669211D01*
X36191133Y-3430728D01*
X36186194Y-3424291D01*
X36159592Y-3393959D01*
X35098528Y-4455022D01*
X35009754Y-4313738D01*
X34886262Y-4190246D01*
X34744976Y-4101470D01*
X35806039Y-3040406D01*
X35806039Y-3040405D01*
X35775708Y-3013805D01*
X35769271Y-3008866D01*
X35530788Y-2849516D01*
X35523774Y-2845466D01*
X35266528Y-2718607D01*
X35259038Y-2715505D01*
X34987436Y-2623307D01*
X34979608Y-2621210D01*
X34698293Y-2565253D01*
X34690271Y-2564197D01*
X34404043Y-2545437D01*
X34395957Y-2545437D01*
X34109728Y-2564197D01*
X34101706Y-2565253D01*
X33820391Y-2621210D01*
X33812563Y-2623307D01*
X33540961Y-2715505D01*
X33533471Y-2718607D01*
X33276225Y-2845466D01*
X33269211Y-2849516D01*
X33030723Y-3008869D01*
X33024295Y-3013801D01*
X32993958Y-3040405D01*
X32993958Y-3040406D01*
X34055023Y-4101470D01*
X33913738Y-4190246D01*
X33790246Y-4313738D01*
X33701471Y-4455023D01*
X32640406Y-3393958D01*
X32640405Y-3393958D01*
X32613801Y-3424295D01*
X32608869Y-3430723D01*
X32449516Y-3669211D01*
X32445466Y-3676225D01*
X32318607Y-3933471D01*
X32315505Y-3940961D01*
X32223307Y-4212563D01*
X32221210Y-4220391D01*
X32165253Y-4501706D01*
X32164197Y-4509728D01*
X32145437Y-4795956D01*
X32145437Y-4804043D01*
X25775950Y-4804043D01*
X25778886Y-4768605D01*
X25748163Y-4647281D01*
X25684606Y-4550000D01*
X26425000Y-4550000D01*
X26425000Y-4527688D01*
X26424701Y-4521604D01*
X26410170Y-4374067D01*
X26351557Y-4180848D01*
X26256379Y-4002784D01*
X26128292Y-3846707D01*
X25972215Y-3718620D01*
X25794146Y-3623440D01*
X25649999Y-3579712D01*
X25649999Y-4519382D01*
X25580948Y-4465637D01*
X25462576Y-4425000D01*
X25368927Y-4425000D01*
X25276554Y-4440414D01*
X25166486Y-4499981D01*
X25154369Y-4513142D01*
X25150597Y-4474838D01*
X25150000Y-4462684D01*
X25150000Y-3579712D01*
X25005850Y-3623440D01*
X24823983Y-3720651D01*
X24755580Y-3734893D01*
X24707077Y-3720651D01*
X24524343Y-3622978D01*
X24524342Y-3622977D01*
X24524341Y-3622977D01*
X24403548Y-3586335D01*
X24331031Y-3564337D01*
X24130000Y-3544538D01*
X23928968Y-3564337D01*
X23734574Y-3623306D01*
X23664707Y-3623929D01*
X23633698Y-3608579D01*
X23627331Y-3606204D01*
X23492483Y-3555909D01*
X23432873Y-3549500D01*
X23429550Y-3549500D01*
X22290439Y-3549500D01*
X22290420Y-3549500D01*
X22287128Y-3549501D01*
X22283848Y-3549853D01*
X22283840Y-3549854D01*
X22227515Y-3555909D01*
X22092669Y-3606204D01*
X21977454Y-3692454D01*
X21891204Y-3807668D01*
X21840909Y-3942516D01*
X21835875Y-3989342D01*
X21834500Y-4002127D01*
X21834500Y-4005430D01*
X21834499Y-4005449D01*
X21834499Y-4359216D01*
X21814814Y-4426256D01*
X21798180Y-4446897D01*
X21111681Y-5133396D01*
X21050358Y-5166881D01*
X20980666Y-5161897D01*
X20924733Y-5120025D01*
X20900316Y-5054561D01*
X20900000Y-5045715D01*
X20900000Y-424000D01*
X20919685Y-356961D01*
X20972489Y-311206D01*
X21024000Y-300000D01*
X64101588Y-300000D01*
X64168627Y-319685D01*
G37*
%TD.AperFunction*%
%TA.AperFunction,Conductor*%
G36*
X52650000Y-22938365D02*
G01*
X52757791Y-22920379D01*
X52985460Y-22842219D01*
X53197164Y-22727651D01*
X53387122Y-22579801D01*
X53550155Y-22402700D01*
X53565892Y-22378614D01*
X53619038Y-22333257D01*
X53688269Y-22323833D01*
X53751605Y-22353334D01*
X53773509Y-22378613D01*
X53789246Y-22402700D01*
X53789449Y-22403010D01*
X53906729Y-22530411D01*
X53937651Y-22593065D01*
X53939499Y-22614393D01*
X53939499Y-23794217D01*
X53919814Y-23861256D01*
X53903180Y-23881898D01*
X52311965Y-25473112D01*
X52250642Y-25506597D01*
X52235094Y-25508958D01*
X52173307Y-25514365D01*
X52173308Y-25514365D01*
X51953503Y-25573261D01*
X51747264Y-25669432D01*
X51560859Y-25799953D01*
X51399953Y-25960859D01*
X51269432Y-26147264D01*
X51173261Y-26353502D01*
X51114364Y-26573310D01*
X51094531Y-26799999D01*
X51114364Y-27026688D01*
X51125209Y-27067162D01*
X51123546Y-27137012D01*
X51093115Y-27186937D01*
X50814418Y-27465635D01*
X50104054Y-28176000D01*
X50016373Y-28263681D01*
X49955050Y-28297166D01*
X49928692Y-28300000D01*
X48900000Y-28300000D01*
X48429273Y-28300000D01*
X48373818Y-28286909D01*
X48029105Y-28114552D01*
X47977947Y-28066964D01*
X47960637Y-27999273D01*
X47982672Y-27932969D01*
X48013437Y-27902068D01*
X48084879Y-27852043D01*
X48159139Y-27800047D01*
X48320047Y-27639139D01*
X48450568Y-27452734D01*
X48546739Y-27246496D01*
X48605635Y-27026692D01*
X48625468Y-26800000D01*
X48605635Y-26573308D01*
X48546739Y-26353504D01*
X48450568Y-26147266D01*
X48364958Y-26025000D01*
X48320046Y-25960859D01*
X48159139Y-25799952D01*
X48023377Y-25704891D01*
X47979752Y-25650314D01*
X47970500Y-25603316D01*
X47970500Y-24320807D01*
X47990185Y-24253768D01*
X48006814Y-24233131D01*
X49243127Y-22996817D01*
X49304450Y-22963333D01*
X49330808Y-22960499D01*
X50857061Y-22960499D01*
X50860372Y-22960499D01*
X50919983Y-22954091D01*
X51054831Y-22903796D01*
X51170046Y-22817546D01*
X51256296Y-22702331D01*
X51267909Y-22671194D01*
X51309779Y-22615262D01*
X51375243Y-22590845D01*
X51443516Y-22605696D01*
X51460252Y-22616675D01*
X51602836Y-22727652D01*
X51814539Y-22842219D01*
X52042208Y-22920379D01*
X52150000Y-22938366D01*
X52150000Y-21951683D01*
X52178819Y-21969209D01*
X52324404Y-22010000D01*
X52437622Y-22010000D01*
X52549783Y-21994584D01*
X52650000Y-21951053D01*
X52650000Y-22938365D01*
G37*
%TD.AperFunction*%
%TD*%
M02*
