M48
; DRILL file {KiCad 7.0.2} date Tue May  2 00:15:25 2023
; FORMAT={-:-/ absolute / inch / decimal}
; #@! TF.CreationDate,2023-05-02T00:15:25+02:00
; #@! TF.GenerationSoftware,Kicad,Pcbnew,7.0.2
; #@! TF.FileFunction,Plated,1,2,PTH
FMAT,2
INCH
; #@! TA.AperFunction,Plated,PTH,ViaDrill
T1C0.0157
; #@! TA.AperFunction,Plated,PTH,ComponentDrill
T2C0.0295
; #@! TA.AperFunction,Plated,PTH,ComponentDrill
T3C0.0315
; #@! TA.AperFunction,Plated,PTH,ComponentDrill
T4C0.0354
; #@! TA.AperFunction,Plated,PTH,ComponentDrill
T5C0.0394
; #@! TA.AperFunction,Plated,PTH,ComponentDrill
T6C0.0423
; #@! TA.AperFunction,Plated,PTH,ComponentDrill
T7C0.0433
; #@! TA.AperFunction,Plated,PTH,ComponentDrill
T8C0.0610
; #@! TA.AperFunction,Plated,PTH,ComponentDrill
T9C0.0630
; #@! TA.AperFunction,Plated,PTH,ComponentDrill
T10C0.1260
%
G90
G05
T1
X1.4724Y-0.6614
X1.8268Y-0.7795
T2
X0.9Y-0.189
X0.95Y-0.189
X1.0Y-0.189
T3
X0.4094Y-0.0732
X0.4094Y-0.2732
X0.9157Y-1.4094
X0.9213Y-1.0307
X0.9213Y-1.2307
X0.9213Y-1.6063
X0.9213Y-1.8063
X0.9945Y-1.9606
X1.1157Y-1.4094
X1.1654Y-1.0246
X1.1654Y-1.1246
X1.1945Y-1.9606
X1.2362Y-1.6063
X1.2362Y-1.8063
X1.2756Y-0.4646
X1.2756Y-0.5433
X1.3937Y-1.311
X1.3937Y-1.4094
X1.4654Y-1.0246
X1.4654Y-1.1246
X1.4669Y-1.6063
X1.4724Y-1.9409
X1.4724Y-2.0394
X1.5906Y-0.5433
X1.6669Y-1.6063
X1.7283Y-0.5433
X1.748Y-1.8425
X1.748Y-2.0425
X1.863Y-1.0551
X2.063Y-1.0551
X2.4512Y-1.0126
X2.4567Y-0.3858
X2.4567Y-0.5402
X2.4567Y-0.6976
X2.4567Y-0.8551
X2.6512Y-1.0126
X2.6567Y-0.3858
X2.6567Y-0.5402
X2.6567Y-0.6976
X2.6567Y-0.8551
T4
X0.585Y-0.189
X0.685Y-0.189
T5
X0.085Y-0.5413
X0.085Y-0.6413
X0.085Y-0.7413
X0.085Y-0.8413
X0.085Y-0.9413
X0.085Y-1.0413
X0.085Y-1.1413
X0.085Y-1.2413
X0.085Y-1.3413
X0.085Y-1.4413
X0.085Y-1.5413
X0.085Y-1.6413
X0.085Y-1.7413
X0.085Y-1.8413
X0.085Y-1.9413
X0.685Y-0.5413
X0.685Y-0.6413
X0.685Y-0.7413
X0.685Y-0.8413
X0.685Y-0.9413
X0.685Y-1.0413
X0.685Y-1.1413
X0.685Y-1.2413
X0.685Y-1.3413
X0.685Y-1.4413
X0.685Y-1.5413
X0.685Y-1.6413
X0.685Y-1.7413
X0.685Y-1.8413
X0.685Y-1.9413
X2.1811Y-1.828
X2.1811Y-2.0249
T6
X0.8881Y-0.5039
X0.8881Y-0.6039
X0.8881Y-0.7039
X0.8881Y-0.8039
T7
X1.963Y-0.8449
X2.063Y-0.8449
X2.163Y-0.8449
T8
X0.8622Y-2.1378
X1.1378Y-2.1378
X1.3543Y-0.189
X1.6299Y-0.189
X2.1024Y-1.6063
X2.2992Y-1.1339
X2.5748Y-1.4094
X2.5748Y-1.685
T9
X1.6843Y-1.3307
X2.2843Y-1.3307
T10
X0.1339Y-0.1496
X2.5945Y-0.1496
X2.6142Y-2.0394
T0
M30
