%TF.GenerationSoftware,KiCad,Pcbnew,7.0.2*%
%TF.CreationDate,2023-05-02T00:15:14+02:00*%
%TF.ProjectId,Test1,54657374-312e-46b6-9963-61645f706362,rev?*%
%TF.SameCoordinates,PX669d880PY237a080*%
%TF.FileFunction,Legend,Top*%
%TF.FilePolarity,Positive*%
%FSLAX46Y46*%
G04 Gerber Fmt 4.6, Leading zero omitted, Abs format (unit mm)*
G04 Created by KiCad (PCBNEW 7.0.2) date 2023-05-02 00:15:14*
%MOMM*%
%LPD*%
G01*
G04 APERTURE LIST*
%ADD10C,0.300000*%
%ADD11C,0.150000*%
%ADD12C,0.120000*%
G04 APERTURE END LIST*
D10*
X11286428Y-43442857D02*
X9786428Y-43442857D01*
X9786428Y-43442857D02*
X10857857Y-42942857D01*
X10857857Y-42942857D02*
X9786428Y-42442857D01*
X9786428Y-42442857D02*
X11286428Y-42442857D01*
X11286428Y-41514285D02*
X11215000Y-41657142D01*
X11215000Y-41657142D02*
X11143571Y-41728571D01*
X11143571Y-41728571D02*
X11000714Y-41799999D01*
X11000714Y-41799999D02*
X10572142Y-41799999D01*
X10572142Y-41799999D02*
X10429285Y-41728571D01*
X10429285Y-41728571D02*
X10357857Y-41657142D01*
X10357857Y-41657142D02*
X10286428Y-41514285D01*
X10286428Y-41514285D02*
X10286428Y-41299999D01*
X10286428Y-41299999D02*
X10357857Y-41157142D01*
X10357857Y-41157142D02*
X10429285Y-41085714D01*
X10429285Y-41085714D02*
X10572142Y-41014285D01*
X10572142Y-41014285D02*
X11000714Y-41014285D01*
X11000714Y-41014285D02*
X11143571Y-41085714D01*
X11143571Y-41085714D02*
X11215000Y-41157142D01*
X11215000Y-41157142D02*
X11286428Y-41299999D01*
X11286428Y-41299999D02*
X11286428Y-41514285D01*
X10286428Y-40585713D02*
X10286428Y-40014285D01*
X9786428Y-40371428D02*
X11072142Y-40371428D01*
X11072142Y-40371428D02*
X11215000Y-40299999D01*
X11215000Y-40299999D02*
X11286428Y-40157142D01*
X11286428Y-40157142D02*
X11286428Y-40014285D01*
X11286428Y-39299999D02*
X11215000Y-39442856D01*
X11215000Y-39442856D02*
X11143571Y-39514285D01*
X11143571Y-39514285D02*
X11000714Y-39585713D01*
X11000714Y-39585713D02*
X10572142Y-39585713D01*
X10572142Y-39585713D02*
X10429285Y-39514285D01*
X10429285Y-39514285D02*
X10357857Y-39442856D01*
X10357857Y-39442856D02*
X10286428Y-39299999D01*
X10286428Y-39299999D02*
X10286428Y-39085713D01*
X10286428Y-39085713D02*
X10357857Y-38942856D01*
X10357857Y-38942856D02*
X10429285Y-38871428D01*
X10429285Y-38871428D02*
X10572142Y-38799999D01*
X10572142Y-38799999D02*
X11000714Y-38799999D01*
X11000714Y-38799999D02*
X11143571Y-38871428D01*
X11143571Y-38871428D02*
X11215000Y-38942856D01*
X11215000Y-38942856D02*
X11286428Y-39085713D01*
X11286428Y-39085713D02*
X11286428Y-39299999D01*
X11286428Y-38157142D02*
X10286428Y-38157142D01*
X10572142Y-38157142D02*
X10429285Y-38085713D01*
X10429285Y-38085713D02*
X10357857Y-38014285D01*
X10357857Y-38014285D02*
X10286428Y-37871427D01*
X10286428Y-37871427D02*
X10286428Y-37728570D01*
X11286428Y-37228571D02*
X10286428Y-37228571D01*
X10572142Y-37228571D02*
X10429285Y-37157142D01*
X10429285Y-37157142D02*
X10357857Y-37085714D01*
X10357857Y-37085714D02*
X10286428Y-36942856D01*
X10286428Y-36942856D02*
X10286428Y-36799999D01*
X11215000Y-35728571D02*
X11286428Y-35871428D01*
X11286428Y-35871428D02*
X11286428Y-36157143D01*
X11286428Y-36157143D02*
X11215000Y-36300000D01*
X11215000Y-36300000D02*
X11072142Y-36371428D01*
X11072142Y-36371428D02*
X10500714Y-36371428D01*
X10500714Y-36371428D02*
X10357857Y-36300000D01*
X10357857Y-36300000D02*
X10286428Y-36157143D01*
X10286428Y-36157143D02*
X10286428Y-35871428D01*
X10286428Y-35871428D02*
X10357857Y-35728571D01*
X10357857Y-35728571D02*
X10500714Y-35657143D01*
X10500714Y-35657143D02*
X10643571Y-35657143D01*
X10643571Y-35657143D02*
X10786428Y-36371428D01*
X10286428Y-34371429D02*
X11500714Y-34371429D01*
X11500714Y-34371429D02*
X11643571Y-34442857D01*
X11643571Y-34442857D02*
X11715000Y-34514286D01*
X11715000Y-34514286D02*
X11786428Y-34657143D01*
X11786428Y-34657143D02*
X11786428Y-34871429D01*
X11786428Y-34871429D02*
X11715000Y-35014286D01*
X11215000Y-34371429D02*
X11286428Y-34514286D01*
X11286428Y-34514286D02*
X11286428Y-34800000D01*
X11286428Y-34800000D02*
X11215000Y-34942857D01*
X11215000Y-34942857D02*
X11143571Y-35014286D01*
X11143571Y-35014286D02*
X11000714Y-35085714D01*
X11000714Y-35085714D02*
X10572142Y-35085714D01*
X10572142Y-35085714D02*
X10429285Y-35014286D01*
X10429285Y-35014286D02*
X10357857Y-34942857D01*
X10357857Y-34942857D02*
X10286428Y-34800000D01*
X10286428Y-34800000D02*
X10286428Y-34514286D01*
X10286428Y-34514286D02*
X10357857Y-34371429D01*
X11286428Y-33442857D02*
X11215000Y-33585714D01*
X11215000Y-33585714D02*
X11072142Y-33657143D01*
X11072142Y-33657143D02*
X9786428Y-33657143D01*
X11215000Y-32300000D02*
X11286428Y-32442857D01*
X11286428Y-32442857D02*
X11286428Y-32728572D01*
X11286428Y-32728572D02*
X11215000Y-32871429D01*
X11215000Y-32871429D02*
X11072142Y-32942857D01*
X11072142Y-32942857D02*
X10500714Y-32942857D01*
X10500714Y-32942857D02*
X10357857Y-32871429D01*
X10357857Y-32871429D02*
X10286428Y-32728572D01*
X10286428Y-32728572D02*
X10286428Y-32442857D01*
X10286428Y-32442857D02*
X10357857Y-32300000D01*
X10357857Y-32300000D02*
X10500714Y-32228572D01*
X10500714Y-32228572D02*
X10643571Y-32228572D01*
X10643571Y-32228572D02*
X10786428Y-32942857D01*
X11286428Y-31585715D02*
X10286428Y-31585715D01*
X10572142Y-31585715D02*
X10429285Y-31514286D01*
X10429285Y-31514286D02*
X10357857Y-31442858D01*
X10357857Y-31442858D02*
X10286428Y-31300000D01*
X10286428Y-31300000D02*
X10286428Y-31157143D01*
X10286428Y-29657144D02*
X11286428Y-29300001D01*
X11286428Y-29300001D02*
X10286428Y-28942858D01*
X11286428Y-27585715D02*
X11286428Y-28442858D01*
X11286428Y-28014287D02*
X9786428Y-28014287D01*
X9786428Y-28014287D02*
X10000714Y-28157144D01*
X10000714Y-28157144D02*
X10143571Y-28300001D01*
X10143571Y-28300001D02*
X10215000Y-28442858D01*
X11143571Y-26942859D02*
X11215000Y-26871430D01*
X11215000Y-26871430D02*
X11286428Y-26942859D01*
X11286428Y-26942859D02*
X11215000Y-27014287D01*
X11215000Y-27014287D02*
X11143571Y-26942859D01*
X11143571Y-26942859D02*
X11286428Y-26942859D01*
X9786428Y-25942858D02*
X9786428Y-25800001D01*
X9786428Y-25800001D02*
X9857857Y-25657144D01*
X9857857Y-25657144D02*
X9929285Y-25585716D01*
X9929285Y-25585716D02*
X10072142Y-25514287D01*
X10072142Y-25514287D02*
X10357857Y-25442858D01*
X10357857Y-25442858D02*
X10715000Y-25442858D01*
X10715000Y-25442858D02*
X11000714Y-25514287D01*
X11000714Y-25514287D02*
X11143571Y-25585716D01*
X11143571Y-25585716D02*
X11215000Y-25657144D01*
X11215000Y-25657144D02*
X11286428Y-25800001D01*
X11286428Y-25800001D02*
X11286428Y-25942858D01*
X11286428Y-25942858D02*
X11215000Y-26085716D01*
X11215000Y-26085716D02*
X11143571Y-26157144D01*
X11143571Y-26157144D02*
X11000714Y-26228573D01*
X11000714Y-26228573D02*
X10715000Y-26300001D01*
X10715000Y-26300001D02*
X10357857Y-26300001D01*
X10357857Y-26300001D02*
X10072142Y-26228573D01*
X10072142Y-26228573D02*
X9929285Y-26157144D01*
X9929285Y-26157144D02*
X9857857Y-26085716D01*
X9857857Y-26085716D02*
X9786428Y-25942858D01*
X12716428Y-42800000D02*
X13930714Y-42800000D01*
X13930714Y-42800000D02*
X14073571Y-42871428D01*
X14073571Y-42871428D02*
X14145000Y-42942857D01*
X14145000Y-42942857D02*
X14216428Y-43085714D01*
X14216428Y-43085714D02*
X14216428Y-43300000D01*
X14216428Y-43300000D02*
X14145000Y-43442857D01*
X13645000Y-42800000D02*
X13716428Y-42942857D01*
X13716428Y-42942857D02*
X13716428Y-43228571D01*
X13716428Y-43228571D02*
X13645000Y-43371428D01*
X13645000Y-43371428D02*
X13573571Y-43442857D01*
X13573571Y-43442857D02*
X13430714Y-43514285D01*
X13430714Y-43514285D02*
X13002142Y-43514285D01*
X13002142Y-43514285D02*
X12859285Y-43442857D01*
X12859285Y-43442857D02*
X12787857Y-43371428D01*
X12787857Y-43371428D02*
X12716428Y-43228571D01*
X12716428Y-43228571D02*
X12716428Y-42942857D01*
X12716428Y-42942857D02*
X12787857Y-42800000D01*
X13716428Y-42085714D02*
X12716428Y-42085714D01*
X12216428Y-42085714D02*
X12287857Y-42157142D01*
X12287857Y-42157142D02*
X12359285Y-42085714D01*
X12359285Y-42085714D02*
X12287857Y-42014285D01*
X12287857Y-42014285D02*
X12216428Y-42085714D01*
X12216428Y-42085714D02*
X12359285Y-42085714D01*
X12716428Y-41585713D02*
X12716428Y-41014285D01*
X12216428Y-41371428D02*
X13502142Y-41371428D01*
X13502142Y-41371428D02*
X13645000Y-41299999D01*
X13645000Y-41299999D02*
X13716428Y-41157142D01*
X13716428Y-41157142D02*
X13716428Y-41014285D01*
X13716428Y-40514285D02*
X12216428Y-40514285D01*
X13716428Y-39871428D02*
X12930714Y-39871428D01*
X12930714Y-39871428D02*
X12787857Y-39942856D01*
X12787857Y-39942856D02*
X12716428Y-40085713D01*
X12716428Y-40085713D02*
X12716428Y-40299999D01*
X12716428Y-40299999D02*
X12787857Y-40442856D01*
X12787857Y-40442856D02*
X12859285Y-40514285D01*
X12716428Y-38514285D02*
X13716428Y-38514285D01*
X12716428Y-39157142D02*
X13502142Y-39157142D01*
X13502142Y-39157142D02*
X13645000Y-39085713D01*
X13645000Y-39085713D02*
X13716428Y-38942856D01*
X13716428Y-38942856D02*
X13716428Y-38728570D01*
X13716428Y-38728570D02*
X13645000Y-38585713D01*
X13645000Y-38585713D02*
X13573571Y-38514285D01*
X13716428Y-37799999D02*
X12216428Y-37799999D01*
X12787857Y-37799999D02*
X12716428Y-37657142D01*
X12716428Y-37657142D02*
X12716428Y-37371427D01*
X12716428Y-37371427D02*
X12787857Y-37228570D01*
X12787857Y-37228570D02*
X12859285Y-37157142D01*
X12859285Y-37157142D02*
X13002142Y-37085713D01*
X13002142Y-37085713D02*
X13430714Y-37085713D01*
X13430714Y-37085713D02*
X13573571Y-37157142D01*
X13573571Y-37157142D02*
X13645000Y-37228570D01*
X13645000Y-37228570D02*
X13716428Y-37371427D01*
X13716428Y-37371427D02*
X13716428Y-37657142D01*
X13716428Y-37657142D02*
X13645000Y-37799999D01*
X13573571Y-36442856D02*
X13645000Y-36371427D01*
X13645000Y-36371427D02*
X13716428Y-36442856D01*
X13716428Y-36442856D02*
X13645000Y-36514284D01*
X13645000Y-36514284D02*
X13573571Y-36442856D01*
X13573571Y-36442856D02*
X13716428Y-36442856D01*
X13645000Y-35085713D02*
X13716428Y-35228570D01*
X13716428Y-35228570D02*
X13716428Y-35514284D01*
X13716428Y-35514284D02*
X13645000Y-35657141D01*
X13645000Y-35657141D02*
X13573571Y-35728570D01*
X13573571Y-35728570D02*
X13430714Y-35799998D01*
X13430714Y-35799998D02*
X13002142Y-35799998D01*
X13002142Y-35799998D02*
X12859285Y-35728570D01*
X12859285Y-35728570D02*
X12787857Y-35657141D01*
X12787857Y-35657141D02*
X12716428Y-35514284D01*
X12716428Y-35514284D02*
X12716428Y-35228570D01*
X12716428Y-35228570D02*
X12787857Y-35085713D01*
X13716428Y-34228570D02*
X13645000Y-34371427D01*
X13645000Y-34371427D02*
X13573571Y-34442856D01*
X13573571Y-34442856D02*
X13430714Y-34514284D01*
X13430714Y-34514284D02*
X13002142Y-34514284D01*
X13002142Y-34514284D02*
X12859285Y-34442856D01*
X12859285Y-34442856D02*
X12787857Y-34371427D01*
X12787857Y-34371427D02*
X12716428Y-34228570D01*
X12716428Y-34228570D02*
X12716428Y-34014284D01*
X12716428Y-34014284D02*
X12787857Y-33871427D01*
X12787857Y-33871427D02*
X12859285Y-33799999D01*
X12859285Y-33799999D02*
X13002142Y-33728570D01*
X13002142Y-33728570D02*
X13430714Y-33728570D01*
X13430714Y-33728570D02*
X13573571Y-33799999D01*
X13573571Y-33799999D02*
X13645000Y-33871427D01*
X13645000Y-33871427D02*
X13716428Y-34014284D01*
X13716428Y-34014284D02*
X13716428Y-34228570D01*
X13716428Y-33085713D02*
X12716428Y-33085713D01*
X12859285Y-33085713D02*
X12787857Y-33014284D01*
X12787857Y-33014284D02*
X12716428Y-32871427D01*
X12716428Y-32871427D02*
X12716428Y-32657141D01*
X12716428Y-32657141D02*
X12787857Y-32514284D01*
X12787857Y-32514284D02*
X12930714Y-32442856D01*
X12930714Y-32442856D02*
X13716428Y-32442856D01*
X12930714Y-32442856D02*
X12787857Y-32371427D01*
X12787857Y-32371427D02*
X12716428Y-32228570D01*
X12716428Y-32228570D02*
X12716428Y-32014284D01*
X12716428Y-32014284D02*
X12787857Y-31871427D01*
X12787857Y-31871427D02*
X12930714Y-31799998D01*
X12930714Y-31799998D02*
X13716428Y-31799998D01*
X12145000Y-30014284D02*
X14073571Y-31299998D01*
X12716428Y-28871427D02*
X13716428Y-28871427D01*
X12716428Y-29514284D02*
X13502142Y-29514284D01*
X13502142Y-29514284D02*
X13645000Y-29442855D01*
X13645000Y-29442855D02*
X13716428Y-29299998D01*
X13716428Y-29299998D02*
X13716428Y-29085712D01*
X13716428Y-29085712D02*
X13645000Y-28942855D01*
X13645000Y-28942855D02*
X13573571Y-28871427D01*
X13716428Y-28157141D02*
X12216428Y-28157141D01*
X13716428Y-27514284D02*
X12930714Y-27514284D01*
X12930714Y-27514284D02*
X12787857Y-27585712D01*
X12787857Y-27585712D02*
X12716428Y-27728569D01*
X12716428Y-27728569D02*
X12716428Y-27942855D01*
X12716428Y-27942855D02*
X12787857Y-28085712D01*
X12787857Y-28085712D02*
X12859285Y-28157141D01*
X13716428Y-26799998D02*
X12716428Y-26799998D01*
X12216428Y-26799998D02*
X12287857Y-26871426D01*
X12287857Y-26871426D02*
X12359285Y-26799998D01*
X12359285Y-26799998D02*
X12287857Y-26728569D01*
X12287857Y-26728569D02*
X12216428Y-26799998D01*
X12216428Y-26799998D02*
X12359285Y-26799998D01*
X12359285Y-26157140D02*
X12287857Y-26085712D01*
X12287857Y-26085712D02*
X12216428Y-25942855D01*
X12216428Y-25942855D02*
X12216428Y-25585712D01*
X12216428Y-25585712D02*
X12287857Y-25442855D01*
X12287857Y-25442855D02*
X12359285Y-25371426D01*
X12359285Y-25371426D02*
X12502142Y-25299997D01*
X12502142Y-25299997D02*
X12645000Y-25299997D01*
X12645000Y-25299997D02*
X12859285Y-25371426D01*
X12859285Y-25371426D02*
X13716428Y-26228569D01*
X13716428Y-26228569D02*
X13716428Y-25299997D01*
X12359285Y-24728569D02*
X12287857Y-24657141D01*
X12287857Y-24657141D02*
X12216428Y-24514284D01*
X12216428Y-24514284D02*
X12216428Y-24157141D01*
X12216428Y-24157141D02*
X12287857Y-24014284D01*
X12287857Y-24014284D02*
X12359285Y-23942855D01*
X12359285Y-23942855D02*
X12502142Y-23871426D01*
X12502142Y-23871426D02*
X12645000Y-23871426D01*
X12645000Y-23871426D02*
X12859285Y-23942855D01*
X12859285Y-23942855D02*
X13716428Y-24799998D01*
X13716428Y-24799998D02*
X13716428Y-23871426D01*
X12145000Y-22157141D02*
X14073571Y-23442855D01*
X4716428Y-26014285D02*
X5787857Y-26014285D01*
X5787857Y-26014285D02*
X6002142Y-26085714D01*
X6002142Y-26085714D02*
X6145000Y-26228571D01*
X6145000Y-26228571D02*
X6216428Y-26442857D01*
X6216428Y-26442857D02*
X6216428Y-26585714D01*
X6216428Y-24585714D02*
X6216428Y-25300000D01*
X6216428Y-25300000D02*
X4716428Y-25300000D01*
X6073571Y-23228571D02*
X6145000Y-23299999D01*
X6145000Y-23299999D02*
X6216428Y-23514285D01*
X6216428Y-23514285D02*
X6216428Y-23657142D01*
X6216428Y-23657142D02*
X6145000Y-23871428D01*
X6145000Y-23871428D02*
X6002142Y-24014285D01*
X6002142Y-24014285D02*
X5859285Y-24085714D01*
X5859285Y-24085714D02*
X5573571Y-24157142D01*
X5573571Y-24157142D02*
X5359285Y-24157142D01*
X5359285Y-24157142D02*
X5073571Y-24085714D01*
X5073571Y-24085714D02*
X4930714Y-24014285D01*
X4930714Y-24014285D02*
X4787857Y-23871428D01*
X4787857Y-23871428D02*
X4716428Y-23657142D01*
X4716428Y-23657142D02*
X4716428Y-23514285D01*
X4716428Y-23514285D02*
X4787857Y-23299999D01*
X4787857Y-23299999D02*
X4859285Y-23228571D01*
X4716428Y-22157142D02*
X5787857Y-22157142D01*
X5787857Y-22157142D02*
X6002142Y-22228571D01*
X6002142Y-22228571D02*
X6145000Y-22371428D01*
X6145000Y-22371428D02*
X6216428Y-22585714D01*
X6216428Y-22585714D02*
X6216428Y-22728571D01*
X6216428Y-20728571D02*
X6216428Y-21442857D01*
X6216428Y-21442857D02*
X4716428Y-21442857D01*
X6073571Y-19371428D02*
X6145000Y-19442856D01*
X6145000Y-19442856D02*
X6216428Y-19657142D01*
X6216428Y-19657142D02*
X6216428Y-19799999D01*
X6216428Y-19799999D02*
X6145000Y-20014285D01*
X6145000Y-20014285D02*
X6002142Y-20157142D01*
X6002142Y-20157142D02*
X5859285Y-20228571D01*
X5859285Y-20228571D02*
X5573571Y-20299999D01*
X5573571Y-20299999D02*
X5359285Y-20299999D01*
X5359285Y-20299999D02*
X5073571Y-20228571D01*
X5073571Y-20228571D02*
X4930714Y-20157142D01*
X4930714Y-20157142D02*
X4787857Y-20014285D01*
X4787857Y-20014285D02*
X4716428Y-19799999D01*
X4716428Y-19799999D02*
X4716428Y-19657142D01*
X4716428Y-19657142D02*
X4787857Y-19442856D01*
X4787857Y-19442856D02*
X4859285Y-19371428D01*
X4716428Y-18299999D02*
X5787857Y-18299999D01*
X5787857Y-18299999D02*
X6002142Y-18371428D01*
X6002142Y-18371428D02*
X6145000Y-18514285D01*
X6145000Y-18514285D02*
X6216428Y-18728571D01*
X6216428Y-18728571D02*
X6216428Y-18871428D01*
X6216428Y-16871428D02*
X6216428Y-17585714D01*
X6216428Y-17585714D02*
X4716428Y-17585714D01*
X6073571Y-15514285D02*
X6145000Y-15585713D01*
X6145000Y-15585713D02*
X6216428Y-15799999D01*
X6216428Y-15799999D02*
X6216428Y-15942856D01*
X6216428Y-15942856D02*
X6145000Y-16157142D01*
X6145000Y-16157142D02*
X6002142Y-16299999D01*
X6002142Y-16299999D02*
X5859285Y-16371428D01*
X5859285Y-16371428D02*
X5573571Y-16442856D01*
X5573571Y-16442856D02*
X5359285Y-16442856D01*
X5359285Y-16442856D02*
X5073571Y-16371428D01*
X5073571Y-16371428D02*
X4930714Y-16299999D01*
X4930714Y-16299999D02*
X4787857Y-16157142D01*
X4787857Y-16157142D02*
X4716428Y-15942856D01*
X4716428Y-15942856D02*
X4716428Y-15799999D01*
X4716428Y-15799999D02*
X4787857Y-15585713D01*
X4787857Y-15585713D02*
X4859285Y-15514285D01*
X4716428Y-14442856D02*
X5787857Y-14442856D01*
X5787857Y-14442856D02*
X6002142Y-14514285D01*
X6002142Y-14514285D02*
X6145000Y-14657142D01*
X6145000Y-14657142D02*
X6216428Y-14871428D01*
X6216428Y-14871428D02*
X6216428Y-15014285D01*
X6216428Y-13014285D02*
X6216428Y-13728571D01*
X6216428Y-13728571D02*
X4716428Y-13728571D01*
X6073571Y-11657142D02*
X6145000Y-11728570D01*
X6145000Y-11728570D02*
X6216428Y-11942856D01*
X6216428Y-11942856D02*
X6216428Y-12085713D01*
X6216428Y-12085713D02*
X6145000Y-12299999D01*
X6145000Y-12299999D02*
X6002142Y-12442856D01*
X6002142Y-12442856D02*
X5859285Y-12514285D01*
X5859285Y-12514285D02*
X5573571Y-12585713D01*
X5573571Y-12585713D02*
X5359285Y-12585713D01*
X5359285Y-12585713D02*
X5073571Y-12514285D01*
X5073571Y-12514285D02*
X4930714Y-12442856D01*
X4930714Y-12442856D02*
X4787857Y-12299999D01*
X4787857Y-12299999D02*
X4716428Y-12085713D01*
X4716428Y-12085713D02*
X4716428Y-11942856D01*
X4716428Y-11942856D02*
X4787857Y-11728570D01*
X4787857Y-11728570D02*
X4859285Y-11657142D01*
D11*
%TO.C,U1*%
X32648095Y-23157619D02*
X32648095Y-23967142D01*
X32648095Y-23967142D02*
X32695714Y-24062380D01*
X32695714Y-24062380D02*
X32743333Y-24110000D01*
X32743333Y-24110000D02*
X32838571Y-24157619D01*
X32838571Y-24157619D02*
X33029047Y-24157619D01*
X33029047Y-24157619D02*
X33124285Y-24110000D01*
X33124285Y-24110000D02*
X33171904Y-24062380D01*
X33171904Y-24062380D02*
X33219523Y-23967142D01*
X33219523Y-23967142D02*
X33219523Y-23157619D01*
X34219523Y-24157619D02*
X33648095Y-24157619D01*
X33933809Y-24157619D02*
X33933809Y-23157619D01*
X33933809Y-23157619D02*
X33838571Y-23300476D01*
X33838571Y-23300476D02*
X33743333Y-23395714D01*
X33743333Y-23395714D02*
X33648095Y-23443333D01*
%TO.C,C7*%
X29017380Y-12966666D02*
X29065000Y-13014285D01*
X29065000Y-13014285D02*
X29112619Y-13157142D01*
X29112619Y-13157142D02*
X29112619Y-13252380D01*
X29112619Y-13252380D02*
X29065000Y-13395237D01*
X29065000Y-13395237D02*
X28969761Y-13490475D01*
X28969761Y-13490475D02*
X28874523Y-13538094D01*
X28874523Y-13538094D02*
X28684047Y-13585713D01*
X28684047Y-13585713D02*
X28541190Y-13585713D01*
X28541190Y-13585713D02*
X28350714Y-13538094D01*
X28350714Y-13538094D02*
X28255476Y-13490475D01*
X28255476Y-13490475D02*
X28160238Y-13395237D01*
X28160238Y-13395237D02*
X28112619Y-13252380D01*
X28112619Y-13252380D02*
X28112619Y-13157142D01*
X28112619Y-13157142D02*
X28160238Y-13014285D01*
X28160238Y-13014285D02*
X28207857Y-12966666D01*
X28112619Y-12633332D02*
X28112619Y-11966666D01*
X28112619Y-11966666D02*
X29112619Y-12395237D01*
%TO.C,R14*%
X26582619Y-43982857D02*
X26106428Y-44316190D01*
X26582619Y-44554285D02*
X25582619Y-44554285D01*
X25582619Y-44554285D02*
X25582619Y-44173333D01*
X25582619Y-44173333D02*
X25630238Y-44078095D01*
X25630238Y-44078095D02*
X25677857Y-44030476D01*
X25677857Y-44030476D02*
X25773095Y-43982857D01*
X25773095Y-43982857D02*
X25915952Y-43982857D01*
X25915952Y-43982857D02*
X26011190Y-44030476D01*
X26011190Y-44030476D02*
X26058809Y-44078095D01*
X26058809Y-44078095D02*
X26106428Y-44173333D01*
X26106428Y-44173333D02*
X26106428Y-44554285D01*
X26582619Y-43030476D02*
X26582619Y-43601904D01*
X26582619Y-43316190D02*
X25582619Y-43316190D01*
X25582619Y-43316190D02*
X25725476Y-43411428D01*
X25725476Y-43411428D02*
X25820714Y-43506666D01*
X25820714Y-43506666D02*
X25868333Y-43601904D01*
X25915952Y-42173333D02*
X26582619Y-42173333D01*
X25535000Y-42411428D02*
X26249285Y-42649523D01*
X26249285Y-42649523D02*
X26249285Y-42030476D01*
%TO.C,R13*%
X27157142Y-47542619D02*
X26823809Y-47066428D01*
X26585714Y-47542619D02*
X26585714Y-46542619D01*
X26585714Y-46542619D02*
X26966666Y-46542619D01*
X26966666Y-46542619D02*
X27061904Y-46590238D01*
X27061904Y-46590238D02*
X27109523Y-46637857D01*
X27109523Y-46637857D02*
X27157142Y-46733095D01*
X27157142Y-46733095D02*
X27157142Y-46875952D01*
X27157142Y-46875952D02*
X27109523Y-46971190D01*
X27109523Y-46971190D02*
X27061904Y-47018809D01*
X27061904Y-47018809D02*
X26966666Y-47066428D01*
X26966666Y-47066428D02*
X26585714Y-47066428D01*
X28109523Y-47542619D02*
X27538095Y-47542619D01*
X27823809Y-47542619D02*
X27823809Y-46542619D01*
X27823809Y-46542619D02*
X27728571Y-46685476D01*
X27728571Y-46685476D02*
X27633333Y-46780714D01*
X27633333Y-46780714D02*
X27538095Y-46828333D01*
X28442857Y-46542619D02*
X29061904Y-46542619D01*
X29061904Y-46542619D02*
X28728571Y-46923571D01*
X28728571Y-46923571D02*
X28871428Y-46923571D01*
X28871428Y-46923571D02*
X28966666Y-46971190D01*
X28966666Y-46971190D02*
X29014285Y-47018809D01*
X29014285Y-47018809D02*
X29061904Y-47114047D01*
X29061904Y-47114047D02*
X29061904Y-47352142D01*
X29061904Y-47352142D02*
X29014285Y-47447380D01*
X29014285Y-47447380D02*
X28966666Y-47495000D01*
X28966666Y-47495000D02*
X28871428Y-47542619D01*
X28871428Y-47542619D02*
X28585714Y-47542619D01*
X28585714Y-47542619D02*
X28490476Y-47495000D01*
X28490476Y-47495000D02*
X28442857Y-47447380D01*
%TO.C,R12*%
X26582619Y-29362857D02*
X26106428Y-29696190D01*
X26582619Y-29934285D02*
X25582619Y-29934285D01*
X25582619Y-29934285D02*
X25582619Y-29553333D01*
X25582619Y-29553333D02*
X25630238Y-29458095D01*
X25630238Y-29458095D02*
X25677857Y-29410476D01*
X25677857Y-29410476D02*
X25773095Y-29362857D01*
X25773095Y-29362857D02*
X25915952Y-29362857D01*
X25915952Y-29362857D02*
X26011190Y-29410476D01*
X26011190Y-29410476D02*
X26058809Y-29458095D01*
X26058809Y-29458095D02*
X26106428Y-29553333D01*
X26106428Y-29553333D02*
X26106428Y-29934285D01*
X26582619Y-28410476D02*
X26582619Y-28981904D01*
X26582619Y-28696190D02*
X25582619Y-28696190D01*
X25582619Y-28696190D02*
X25725476Y-28791428D01*
X25725476Y-28791428D02*
X25820714Y-28886666D01*
X25820714Y-28886666D02*
X25868333Y-28981904D01*
X25677857Y-28029523D02*
X25630238Y-27981904D01*
X25630238Y-27981904D02*
X25582619Y-27886666D01*
X25582619Y-27886666D02*
X25582619Y-27648571D01*
X25582619Y-27648571D02*
X25630238Y-27553333D01*
X25630238Y-27553333D02*
X25677857Y-27505714D01*
X25677857Y-27505714D02*
X25773095Y-27458095D01*
X25773095Y-27458095D02*
X25868333Y-27458095D01*
X25868333Y-27458095D02*
X26011190Y-27505714D01*
X26011190Y-27505714D02*
X26582619Y-28077142D01*
X26582619Y-28077142D02*
X26582619Y-27458095D01*
%TO.C,R11*%
X8142619Y-5042857D02*
X7666428Y-5376190D01*
X8142619Y-5614285D02*
X7142619Y-5614285D01*
X7142619Y-5614285D02*
X7142619Y-5233333D01*
X7142619Y-5233333D02*
X7190238Y-5138095D01*
X7190238Y-5138095D02*
X7237857Y-5090476D01*
X7237857Y-5090476D02*
X7333095Y-5042857D01*
X7333095Y-5042857D02*
X7475952Y-5042857D01*
X7475952Y-5042857D02*
X7571190Y-5090476D01*
X7571190Y-5090476D02*
X7618809Y-5138095D01*
X7618809Y-5138095D02*
X7666428Y-5233333D01*
X7666428Y-5233333D02*
X7666428Y-5614285D01*
X8142619Y-4090476D02*
X8142619Y-4661904D01*
X8142619Y-4376190D02*
X7142619Y-4376190D01*
X7142619Y-4376190D02*
X7285476Y-4471428D01*
X7285476Y-4471428D02*
X7380714Y-4566666D01*
X7380714Y-4566666D02*
X7428333Y-4661904D01*
X8142619Y-3138095D02*
X8142619Y-3709523D01*
X8142619Y-3423809D02*
X7142619Y-3423809D01*
X7142619Y-3423809D02*
X7285476Y-3519047D01*
X7285476Y-3519047D02*
X7380714Y-3614285D01*
X7380714Y-3614285D02*
X7428333Y-3709523D01*
%TO.C,R10*%
X66757142Y-23762619D02*
X66423809Y-23286428D01*
X66185714Y-23762619D02*
X66185714Y-22762619D01*
X66185714Y-22762619D02*
X66566666Y-22762619D01*
X66566666Y-22762619D02*
X66661904Y-22810238D01*
X66661904Y-22810238D02*
X66709523Y-22857857D01*
X66709523Y-22857857D02*
X66757142Y-22953095D01*
X66757142Y-22953095D02*
X66757142Y-23095952D01*
X66757142Y-23095952D02*
X66709523Y-23191190D01*
X66709523Y-23191190D02*
X66661904Y-23238809D01*
X66661904Y-23238809D02*
X66566666Y-23286428D01*
X66566666Y-23286428D02*
X66185714Y-23286428D01*
X67709523Y-23762619D02*
X67138095Y-23762619D01*
X67423809Y-23762619D02*
X67423809Y-22762619D01*
X67423809Y-22762619D02*
X67328571Y-22905476D01*
X67328571Y-22905476D02*
X67233333Y-23000714D01*
X67233333Y-23000714D02*
X67138095Y-23048333D01*
X68328571Y-22762619D02*
X68423809Y-22762619D01*
X68423809Y-22762619D02*
X68519047Y-22810238D01*
X68519047Y-22810238D02*
X68566666Y-22857857D01*
X68566666Y-22857857D02*
X68614285Y-22953095D01*
X68614285Y-22953095D02*
X68661904Y-23143571D01*
X68661904Y-23143571D02*
X68661904Y-23381666D01*
X68661904Y-23381666D02*
X68614285Y-23572142D01*
X68614285Y-23572142D02*
X68566666Y-23667380D01*
X68566666Y-23667380D02*
X68519047Y-23715000D01*
X68519047Y-23715000D02*
X68423809Y-23762619D01*
X68423809Y-23762619D02*
X68328571Y-23762619D01*
X68328571Y-23762619D02*
X68233333Y-23715000D01*
X68233333Y-23715000D02*
X68185714Y-23667380D01*
X68185714Y-23667380D02*
X68138095Y-23572142D01*
X68138095Y-23572142D02*
X68090476Y-23381666D01*
X68090476Y-23381666D02*
X68090476Y-23143571D01*
X68090476Y-23143571D02*
X68138095Y-22953095D01*
X68138095Y-22953095D02*
X68185714Y-22857857D01*
X68185714Y-22857857D02*
X68233333Y-22810238D01*
X68233333Y-22810238D02*
X68328571Y-22762619D01*
%TO.C,R9*%
X67233333Y-28262619D02*
X66900000Y-27786428D01*
X66661905Y-28262619D02*
X66661905Y-27262619D01*
X66661905Y-27262619D02*
X67042857Y-27262619D01*
X67042857Y-27262619D02*
X67138095Y-27310238D01*
X67138095Y-27310238D02*
X67185714Y-27357857D01*
X67185714Y-27357857D02*
X67233333Y-27453095D01*
X67233333Y-27453095D02*
X67233333Y-27595952D01*
X67233333Y-27595952D02*
X67185714Y-27691190D01*
X67185714Y-27691190D02*
X67138095Y-27738809D01*
X67138095Y-27738809D02*
X67042857Y-27786428D01*
X67042857Y-27786428D02*
X66661905Y-27786428D01*
X67709524Y-28262619D02*
X67900000Y-28262619D01*
X67900000Y-28262619D02*
X67995238Y-28215000D01*
X67995238Y-28215000D02*
X68042857Y-28167380D01*
X68042857Y-28167380D02*
X68138095Y-28024523D01*
X68138095Y-28024523D02*
X68185714Y-27834047D01*
X68185714Y-27834047D02*
X68185714Y-27453095D01*
X68185714Y-27453095D02*
X68138095Y-27357857D01*
X68138095Y-27357857D02*
X68090476Y-27310238D01*
X68090476Y-27310238D02*
X67995238Y-27262619D01*
X67995238Y-27262619D02*
X67804762Y-27262619D01*
X67804762Y-27262619D02*
X67709524Y-27310238D01*
X67709524Y-27310238D02*
X67661905Y-27357857D01*
X67661905Y-27357857D02*
X67614286Y-27453095D01*
X67614286Y-27453095D02*
X67614286Y-27691190D01*
X67614286Y-27691190D02*
X67661905Y-27786428D01*
X67661905Y-27786428D02*
X67709524Y-27834047D01*
X67709524Y-27834047D02*
X67804762Y-27881666D01*
X67804762Y-27881666D02*
X67995238Y-27881666D01*
X67995238Y-27881666D02*
X68090476Y-27834047D01*
X68090476Y-27834047D02*
X68138095Y-27786428D01*
X68138095Y-27786428D02*
X68185714Y-27691190D01*
%TO.C,R8*%
X65733333Y-19512619D02*
X65400000Y-19036428D01*
X65161905Y-19512619D02*
X65161905Y-18512619D01*
X65161905Y-18512619D02*
X65542857Y-18512619D01*
X65542857Y-18512619D02*
X65638095Y-18560238D01*
X65638095Y-18560238D02*
X65685714Y-18607857D01*
X65685714Y-18607857D02*
X65733333Y-18703095D01*
X65733333Y-18703095D02*
X65733333Y-18845952D01*
X65733333Y-18845952D02*
X65685714Y-18941190D01*
X65685714Y-18941190D02*
X65638095Y-18988809D01*
X65638095Y-18988809D02*
X65542857Y-19036428D01*
X65542857Y-19036428D02*
X65161905Y-19036428D01*
X66304762Y-18941190D02*
X66209524Y-18893571D01*
X66209524Y-18893571D02*
X66161905Y-18845952D01*
X66161905Y-18845952D02*
X66114286Y-18750714D01*
X66114286Y-18750714D02*
X66114286Y-18703095D01*
X66114286Y-18703095D02*
X66161905Y-18607857D01*
X66161905Y-18607857D02*
X66209524Y-18560238D01*
X66209524Y-18560238D02*
X66304762Y-18512619D01*
X66304762Y-18512619D02*
X66495238Y-18512619D01*
X66495238Y-18512619D02*
X66590476Y-18560238D01*
X66590476Y-18560238D02*
X66638095Y-18607857D01*
X66638095Y-18607857D02*
X66685714Y-18703095D01*
X66685714Y-18703095D02*
X66685714Y-18750714D01*
X66685714Y-18750714D02*
X66638095Y-18845952D01*
X66638095Y-18845952D02*
X66590476Y-18893571D01*
X66590476Y-18893571D02*
X66495238Y-18941190D01*
X66495238Y-18941190D02*
X66304762Y-18941190D01*
X66304762Y-18941190D02*
X66209524Y-18988809D01*
X66209524Y-18988809D02*
X66161905Y-19036428D01*
X66161905Y-19036428D02*
X66114286Y-19131666D01*
X66114286Y-19131666D02*
X66114286Y-19322142D01*
X66114286Y-19322142D02*
X66161905Y-19417380D01*
X66161905Y-19417380D02*
X66209524Y-19465000D01*
X66209524Y-19465000D02*
X66304762Y-19512619D01*
X66304762Y-19512619D02*
X66495238Y-19512619D01*
X66495238Y-19512619D02*
X66590476Y-19465000D01*
X66590476Y-19465000D02*
X66638095Y-19417380D01*
X66638095Y-19417380D02*
X66685714Y-19322142D01*
X66685714Y-19322142D02*
X66685714Y-19131666D01*
X66685714Y-19131666D02*
X66638095Y-19036428D01*
X66638095Y-19036428D02*
X66590476Y-18988809D01*
X66590476Y-18988809D02*
X66495238Y-18941190D01*
%TO.C,R7*%
X65483333Y-15262619D02*
X65150000Y-14786428D01*
X64911905Y-15262619D02*
X64911905Y-14262619D01*
X64911905Y-14262619D02*
X65292857Y-14262619D01*
X65292857Y-14262619D02*
X65388095Y-14310238D01*
X65388095Y-14310238D02*
X65435714Y-14357857D01*
X65435714Y-14357857D02*
X65483333Y-14453095D01*
X65483333Y-14453095D02*
X65483333Y-14595952D01*
X65483333Y-14595952D02*
X65435714Y-14691190D01*
X65435714Y-14691190D02*
X65388095Y-14738809D01*
X65388095Y-14738809D02*
X65292857Y-14786428D01*
X65292857Y-14786428D02*
X64911905Y-14786428D01*
X65816667Y-14262619D02*
X66483333Y-14262619D01*
X66483333Y-14262619D02*
X66054762Y-15262619D01*
%TO.C,R6*%
X65233333Y-9012619D02*
X64900000Y-8536428D01*
X64661905Y-9012619D02*
X64661905Y-8012619D01*
X64661905Y-8012619D02*
X65042857Y-8012619D01*
X65042857Y-8012619D02*
X65138095Y-8060238D01*
X65138095Y-8060238D02*
X65185714Y-8107857D01*
X65185714Y-8107857D02*
X65233333Y-8203095D01*
X65233333Y-8203095D02*
X65233333Y-8345952D01*
X65233333Y-8345952D02*
X65185714Y-8441190D01*
X65185714Y-8441190D02*
X65138095Y-8488809D01*
X65138095Y-8488809D02*
X65042857Y-8536428D01*
X65042857Y-8536428D02*
X64661905Y-8536428D01*
X66090476Y-8012619D02*
X65900000Y-8012619D01*
X65900000Y-8012619D02*
X65804762Y-8060238D01*
X65804762Y-8060238D02*
X65757143Y-8107857D01*
X65757143Y-8107857D02*
X65661905Y-8250714D01*
X65661905Y-8250714D02*
X65614286Y-8441190D01*
X65614286Y-8441190D02*
X65614286Y-8822142D01*
X65614286Y-8822142D02*
X65661905Y-8917380D01*
X65661905Y-8917380D02*
X65709524Y-8965000D01*
X65709524Y-8965000D02*
X65804762Y-9012619D01*
X65804762Y-9012619D02*
X65995238Y-9012619D01*
X65995238Y-9012619D02*
X66090476Y-8965000D01*
X66090476Y-8965000D02*
X66138095Y-8917380D01*
X66138095Y-8917380D02*
X66185714Y-8822142D01*
X66185714Y-8822142D02*
X66185714Y-8584047D01*
X66185714Y-8584047D02*
X66138095Y-8488809D01*
X66138095Y-8488809D02*
X66090476Y-8441190D01*
X66090476Y-8441190D02*
X65995238Y-8393571D01*
X65995238Y-8393571D02*
X65804762Y-8393571D01*
X65804762Y-8393571D02*
X65709524Y-8441190D01*
X65709524Y-8441190D02*
X65661905Y-8488809D01*
X65661905Y-8488809D02*
X65614286Y-8584047D01*
%TO.C,R5*%
X25633333Y-33542619D02*
X25300000Y-33066428D01*
X25061905Y-33542619D02*
X25061905Y-32542619D01*
X25061905Y-32542619D02*
X25442857Y-32542619D01*
X25442857Y-32542619D02*
X25538095Y-32590238D01*
X25538095Y-32590238D02*
X25585714Y-32637857D01*
X25585714Y-32637857D02*
X25633333Y-32733095D01*
X25633333Y-32733095D02*
X25633333Y-32875952D01*
X25633333Y-32875952D02*
X25585714Y-32971190D01*
X25585714Y-32971190D02*
X25538095Y-33018809D01*
X25538095Y-33018809D02*
X25442857Y-33066428D01*
X25442857Y-33066428D02*
X25061905Y-33066428D01*
X26538095Y-32542619D02*
X26061905Y-32542619D01*
X26061905Y-32542619D02*
X26014286Y-33018809D01*
X26014286Y-33018809D02*
X26061905Y-32971190D01*
X26061905Y-32971190D02*
X26157143Y-32923571D01*
X26157143Y-32923571D02*
X26395238Y-32923571D01*
X26395238Y-32923571D02*
X26490476Y-32971190D01*
X26490476Y-32971190D02*
X26538095Y-33018809D01*
X26538095Y-33018809D02*
X26585714Y-33114047D01*
X26585714Y-33114047D02*
X26585714Y-33352142D01*
X26585714Y-33352142D02*
X26538095Y-33447380D01*
X26538095Y-33447380D02*
X26490476Y-33495000D01*
X26490476Y-33495000D02*
X26395238Y-33542619D01*
X26395238Y-33542619D02*
X26157143Y-33542619D01*
X26157143Y-33542619D02*
X26061905Y-33495000D01*
X26061905Y-33495000D02*
X26014286Y-33447380D01*
%TO.C,R4*%
X39633333Y-38542619D02*
X39300000Y-38066428D01*
X39061905Y-38542619D02*
X39061905Y-37542619D01*
X39061905Y-37542619D02*
X39442857Y-37542619D01*
X39442857Y-37542619D02*
X39538095Y-37590238D01*
X39538095Y-37590238D02*
X39585714Y-37637857D01*
X39585714Y-37637857D02*
X39633333Y-37733095D01*
X39633333Y-37733095D02*
X39633333Y-37875952D01*
X39633333Y-37875952D02*
X39585714Y-37971190D01*
X39585714Y-37971190D02*
X39538095Y-38018809D01*
X39538095Y-38018809D02*
X39442857Y-38066428D01*
X39442857Y-38066428D02*
X39061905Y-38066428D01*
X40490476Y-37875952D02*
X40490476Y-38542619D01*
X40252381Y-37495000D02*
X40014286Y-38209285D01*
X40014286Y-38209285D02*
X40633333Y-38209285D01*
%TO.C,R3*%
X34582619Y-43506666D02*
X34106428Y-43839999D01*
X34582619Y-44078094D02*
X33582619Y-44078094D01*
X33582619Y-44078094D02*
X33582619Y-43697142D01*
X33582619Y-43697142D02*
X33630238Y-43601904D01*
X33630238Y-43601904D02*
X33677857Y-43554285D01*
X33677857Y-43554285D02*
X33773095Y-43506666D01*
X33773095Y-43506666D02*
X33915952Y-43506666D01*
X33915952Y-43506666D02*
X34011190Y-43554285D01*
X34011190Y-43554285D02*
X34058809Y-43601904D01*
X34058809Y-43601904D02*
X34106428Y-43697142D01*
X34106428Y-43697142D02*
X34106428Y-44078094D01*
X33582619Y-43173332D02*
X33582619Y-42554285D01*
X33582619Y-42554285D02*
X33963571Y-42887618D01*
X33963571Y-42887618D02*
X33963571Y-42744761D01*
X33963571Y-42744761D02*
X34011190Y-42649523D01*
X34011190Y-42649523D02*
X34058809Y-42601904D01*
X34058809Y-42601904D02*
X34154047Y-42554285D01*
X34154047Y-42554285D02*
X34392142Y-42554285D01*
X34392142Y-42554285D02*
X34487380Y-42601904D01*
X34487380Y-42601904D02*
X34535000Y-42649523D01*
X34535000Y-42649523D02*
X34582619Y-42744761D01*
X34582619Y-42744761D02*
X34582619Y-43030475D01*
X34582619Y-43030475D02*
X34535000Y-43125713D01*
X34535000Y-43125713D02*
X34487380Y-43173332D01*
%TO.C,R2*%
X47582619Y-49506666D02*
X47106428Y-49839999D01*
X47582619Y-50078094D02*
X46582619Y-50078094D01*
X46582619Y-50078094D02*
X46582619Y-49697142D01*
X46582619Y-49697142D02*
X46630238Y-49601904D01*
X46630238Y-49601904D02*
X46677857Y-49554285D01*
X46677857Y-49554285D02*
X46773095Y-49506666D01*
X46773095Y-49506666D02*
X46915952Y-49506666D01*
X46915952Y-49506666D02*
X47011190Y-49554285D01*
X47011190Y-49554285D02*
X47058809Y-49601904D01*
X47058809Y-49601904D02*
X47106428Y-49697142D01*
X47106428Y-49697142D02*
X47106428Y-50078094D01*
X46677857Y-49125713D02*
X46630238Y-49078094D01*
X46630238Y-49078094D02*
X46582619Y-48982856D01*
X46582619Y-48982856D02*
X46582619Y-48744761D01*
X46582619Y-48744761D02*
X46630238Y-48649523D01*
X46630238Y-48649523D02*
X46677857Y-48601904D01*
X46677857Y-48601904D02*
X46773095Y-48554285D01*
X46773095Y-48554285D02*
X46868333Y-48554285D01*
X46868333Y-48554285D02*
X47011190Y-48601904D01*
X47011190Y-48601904D02*
X47582619Y-49173332D01*
X47582619Y-49173332D02*
X47582619Y-48554285D01*
%TO.C,R1*%
X46233333Y-29262619D02*
X45900000Y-28786428D01*
X45661905Y-29262619D02*
X45661905Y-28262619D01*
X45661905Y-28262619D02*
X46042857Y-28262619D01*
X46042857Y-28262619D02*
X46138095Y-28310238D01*
X46138095Y-28310238D02*
X46185714Y-28357857D01*
X46185714Y-28357857D02*
X46233333Y-28453095D01*
X46233333Y-28453095D02*
X46233333Y-28595952D01*
X46233333Y-28595952D02*
X46185714Y-28691190D01*
X46185714Y-28691190D02*
X46138095Y-28738809D01*
X46138095Y-28738809D02*
X46042857Y-28786428D01*
X46042857Y-28786428D02*
X45661905Y-28786428D01*
X47185714Y-29262619D02*
X46614286Y-29262619D01*
X46900000Y-29262619D02*
X46900000Y-28262619D01*
X46900000Y-28262619D02*
X46804762Y-28405476D01*
X46804762Y-28405476D02*
X46709524Y-28500714D01*
X46709524Y-28500714D02*
X46614286Y-28548333D01*
%TO.C,C6*%
X35233333Y-17317380D02*
X35185714Y-17365000D01*
X35185714Y-17365000D02*
X35042857Y-17412619D01*
X35042857Y-17412619D02*
X34947619Y-17412619D01*
X34947619Y-17412619D02*
X34804762Y-17365000D01*
X34804762Y-17365000D02*
X34709524Y-17269761D01*
X34709524Y-17269761D02*
X34661905Y-17174523D01*
X34661905Y-17174523D02*
X34614286Y-16984047D01*
X34614286Y-16984047D02*
X34614286Y-16841190D01*
X34614286Y-16841190D02*
X34661905Y-16650714D01*
X34661905Y-16650714D02*
X34709524Y-16555476D01*
X34709524Y-16555476D02*
X34804762Y-16460238D01*
X34804762Y-16460238D02*
X34947619Y-16412619D01*
X34947619Y-16412619D02*
X35042857Y-16412619D01*
X35042857Y-16412619D02*
X35185714Y-16460238D01*
X35185714Y-16460238D02*
X35233333Y-16507857D01*
X36090476Y-16412619D02*
X35900000Y-16412619D01*
X35900000Y-16412619D02*
X35804762Y-16460238D01*
X35804762Y-16460238D02*
X35757143Y-16507857D01*
X35757143Y-16507857D02*
X35661905Y-16650714D01*
X35661905Y-16650714D02*
X35614286Y-16841190D01*
X35614286Y-16841190D02*
X35614286Y-17222142D01*
X35614286Y-17222142D02*
X35661905Y-17317380D01*
X35661905Y-17317380D02*
X35709524Y-17365000D01*
X35709524Y-17365000D02*
X35804762Y-17412619D01*
X35804762Y-17412619D02*
X35995238Y-17412619D01*
X35995238Y-17412619D02*
X36090476Y-17365000D01*
X36090476Y-17365000D02*
X36138095Y-17317380D01*
X36138095Y-17317380D02*
X36185714Y-17222142D01*
X36185714Y-17222142D02*
X36185714Y-16984047D01*
X36185714Y-16984047D02*
X36138095Y-16888809D01*
X36138095Y-16888809D02*
X36090476Y-16841190D01*
X36090476Y-16841190D02*
X35995238Y-16793571D01*
X35995238Y-16793571D02*
X35804762Y-16793571D01*
X35804762Y-16793571D02*
X35709524Y-16841190D01*
X35709524Y-16841190D02*
X35661905Y-16888809D01*
X35661905Y-16888809D02*
X35614286Y-16984047D01*
%TO.C,C2*%
X42233333Y-19317380D02*
X42185714Y-19365000D01*
X42185714Y-19365000D02*
X42042857Y-19412619D01*
X42042857Y-19412619D02*
X41947619Y-19412619D01*
X41947619Y-19412619D02*
X41804762Y-19365000D01*
X41804762Y-19365000D02*
X41709524Y-19269761D01*
X41709524Y-19269761D02*
X41661905Y-19174523D01*
X41661905Y-19174523D02*
X41614286Y-18984047D01*
X41614286Y-18984047D02*
X41614286Y-18841190D01*
X41614286Y-18841190D02*
X41661905Y-18650714D01*
X41661905Y-18650714D02*
X41709524Y-18555476D01*
X41709524Y-18555476D02*
X41804762Y-18460238D01*
X41804762Y-18460238D02*
X41947619Y-18412619D01*
X41947619Y-18412619D02*
X42042857Y-18412619D01*
X42042857Y-18412619D02*
X42185714Y-18460238D01*
X42185714Y-18460238D02*
X42233333Y-18507857D01*
X42614286Y-18507857D02*
X42661905Y-18460238D01*
X42661905Y-18460238D02*
X42757143Y-18412619D01*
X42757143Y-18412619D02*
X42995238Y-18412619D01*
X42995238Y-18412619D02*
X43090476Y-18460238D01*
X43090476Y-18460238D02*
X43138095Y-18507857D01*
X43138095Y-18507857D02*
X43185714Y-18603095D01*
X43185714Y-18603095D02*
X43185714Y-18698333D01*
X43185714Y-18698333D02*
X43138095Y-18841190D01*
X43138095Y-18841190D02*
X42566667Y-19412619D01*
X42566667Y-19412619D02*
X43185714Y-19412619D01*
%TO.C,U2*%
X23368095Y-702619D02*
X23368095Y-1512142D01*
X23368095Y-1512142D02*
X23415714Y-1607380D01*
X23415714Y-1607380D02*
X23463333Y-1655000D01*
X23463333Y-1655000D02*
X23558571Y-1702619D01*
X23558571Y-1702619D02*
X23749047Y-1702619D01*
X23749047Y-1702619D02*
X23844285Y-1655000D01*
X23844285Y-1655000D02*
X23891904Y-1607380D01*
X23891904Y-1607380D02*
X23939523Y-1512142D01*
X23939523Y-1512142D02*
X23939523Y-702619D01*
X24368095Y-797857D02*
X24415714Y-750238D01*
X24415714Y-750238D02*
X24510952Y-702619D01*
X24510952Y-702619D02*
X24749047Y-702619D01*
X24749047Y-702619D02*
X24844285Y-750238D01*
X24844285Y-750238D02*
X24891904Y-797857D01*
X24891904Y-797857D02*
X24939523Y-893095D01*
X24939523Y-893095D02*
X24939523Y-988333D01*
X24939523Y-988333D02*
X24891904Y-1131190D01*
X24891904Y-1131190D02*
X24320476Y-1702619D01*
X24320476Y-1702619D02*
X24939523Y-1702619D01*
%TO.C,Q1*%
X52304761Y-1437857D02*
X52209523Y-1390238D01*
X52209523Y-1390238D02*
X52114285Y-1295000D01*
X52114285Y-1295000D02*
X51971428Y-1152142D01*
X51971428Y-1152142D02*
X51876190Y-1104523D01*
X51876190Y-1104523D02*
X51780952Y-1104523D01*
X51828571Y-1342619D02*
X51733333Y-1295000D01*
X51733333Y-1295000D02*
X51638095Y-1199761D01*
X51638095Y-1199761D02*
X51590476Y-1009285D01*
X51590476Y-1009285D02*
X51590476Y-675952D01*
X51590476Y-675952D02*
X51638095Y-485476D01*
X51638095Y-485476D02*
X51733333Y-390238D01*
X51733333Y-390238D02*
X51828571Y-342619D01*
X51828571Y-342619D02*
X52019047Y-342619D01*
X52019047Y-342619D02*
X52114285Y-390238D01*
X52114285Y-390238D02*
X52209523Y-485476D01*
X52209523Y-485476D02*
X52257142Y-675952D01*
X52257142Y-675952D02*
X52257142Y-1009285D01*
X52257142Y-1009285D02*
X52209523Y-1199761D01*
X52209523Y-1199761D02*
X52114285Y-1295000D01*
X52114285Y-1295000D02*
X52019047Y-1342619D01*
X52019047Y-1342619D02*
X51828571Y-1342619D01*
X53209523Y-1342619D02*
X52638095Y-1342619D01*
X52923809Y-1342619D02*
X52923809Y-342619D01*
X52923809Y-342619D02*
X52828571Y-485476D01*
X52828571Y-485476D02*
X52733333Y-580714D01*
X52733333Y-580714D02*
X52638095Y-628333D01*
%TO.C,PS1*%
X21843214Y-9762619D02*
X21843214Y-8762619D01*
X21843214Y-8762619D02*
X22224166Y-8762619D01*
X22224166Y-8762619D02*
X22319404Y-8810238D01*
X22319404Y-8810238D02*
X22367023Y-8857857D01*
X22367023Y-8857857D02*
X22414642Y-8953095D01*
X22414642Y-8953095D02*
X22414642Y-9095952D01*
X22414642Y-9095952D02*
X22367023Y-9191190D01*
X22367023Y-9191190D02*
X22319404Y-9238809D01*
X22319404Y-9238809D02*
X22224166Y-9286428D01*
X22224166Y-9286428D02*
X21843214Y-9286428D01*
X22795595Y-9715000D02*
X22938452Y-9762619D01*
X22938452Y-9762619D02*
X23176547Y-9762619D01*
X23176547Y-9762619D02*
X23271785Y-9715000D01*
X23271785Y-9715000D02*
X23319404Y-9667380D01*
X23319404Y-9667380D02*
X23367023Y-9572142D01*
X23367023Y-9572142D02*
X23367023Y-9476904D01*
X23367023Y-9476904D02*
X23319404Y-9381666D01*
X23319404Y-9381666D02*
X23271785Y-9334047D01*
X23271785Y-9334047D02*
X23176547Y-9286428D01*
X23176547Y-9286428D02*
X22986071Y-9238809D01*
X22986071Y-9238809D02*
X22890833Y-9191190D01*
X22890833Y-9191190D02*
X22843214Y-9143571D01*
X22843214Y-9143571D02*
X22795595Y-9048333D01*
X22795595Y-9048333D02*
X22795595Y-8953095D01*
X22795595Y-8953095D02*
X22843214Y-8857857D01*
X22843214Y-8857857D02*
X22890833Y-8810238D01*
X22890833Y-8810238D02*
X22986071Y-8762619D01*
X22986071Y-8762619D02*
X23224166Y-8762619D01*
X23224166Y-8762619D02*
X23367023Y-8810238D01*
X24319404Y-9762619D02*
X23747976Y-9762619D01*
X24033690Y-9762619D02*
X24033690Y-8762619D01*
X24033690Y-8762619D02*
X23938452Y-8905476D01*
X23938452Y-8905476D02*
X23843214Y-9000714D01*
X23843214Y-9000714D02*
X23747976Y-9048333D01*
%TO.C,J5*%
X25066666Y-55012619D02*
X25066666Y-55726904D01*
X25066666Y-55726904D02*
X25019047Y-55869761D01*
X25019047Y-55869761D02*
X24923809Y-55965000D01*
X24923809Y-55965000D02*
X24780952Y-56012619D01*
X24780952Y-56012619D02*
X24685714Y-56012619D01*
X26019047Y-55012619D02*
X25542857Y-55012619D01*
X25542857Y-55012619D02*
X25495238Y-55488809D01*
X25495238Y-55488809D02*
X25542857Y-55441190D01*
X25542857Y-55441190D02*
X25638095Y-55393571D01*
X25638095Y-55393571D02*
X25876190Y-55393571D01*
X25876190Y-55393571D02*
X25971428Y-55441190D01*
X25971428Y-55441190D02*
X26019047Y-55488809D01*
X26019047Y-55488809D02*
X26066666Y-55584047D01*
X26066666Y-55584047D02*
X26066666Y-55822142D01*
X26066666Y-55822142D02*
X26019047Y-55917380D01*
X26019047Y-55917380D02*
X25971428Y-55965000D01*
X25971428Y-55965000D02*
X25876190Y-56012619D01*
X25876190Y-56012619D02*
X25638095Y-56012619D01*
X25638095Y-56012619D02*
X25542857Y-55965000D01*
X25542857Y-55965000D02*
X25495238Y-55917380D01*
X31042857Y-56012619D02*
X31042857Y-55012619D01*
X31042857Y-55012619D02*
X31423809Y-55012619D01*
X31423809Y-55012619D02*
X31519047Y-55060238D01*
X31519047Y-55060238D02*
X31566666Y-55107857D01*
X31566666Y-55107857D02*
X31614285Y-55203095D01*
X31614285Y-55203095D02*
X31614285Y-55345952D01*
X31614285Y-55345952D02*
X31566666Y-55441190D01*
X31566666Y-55441190D02*
X31519047Y-55488809D01*
X31519047Y-55488809D02*
X31423809Y-55536428D01*
X31423809Y-55536428D02*
X31042857Y-55536428D01*
X32423809Y-55965000D02*
X32328571Y-56012619D01*
X32328571Y-56012619D02*
X32138095Y-56012619D01*
X32138095Y-56012619D02*
X32042857Y-55965000D01*
X32042857Y-55965000D02*
X31995238Y-55869761D01*
X31995238Y-55869761D02*
X31995238Y-55488809D01*
X31995238Y-55488809D02*
X32042857Y-55393571D01*
X32042857Y-55393571D02*
X32138095Y-55345952D01*
X32138095Y-55345952D02*
X32328571Y-55345952D01*
X32328571Y-55345952D02*
X32423809Y-55393571D01*
X32423809Y-55393571D02*
X32471428Y-55488809D01*
X32471428Y-55488809D02*
X32471428Y-55584047D01*
X32471428Y-55584047D02*
X31995238Y-55679285D01*
X33328571Y-56012619D02*
X33328571Y-55012619D01*
X33328571Y-55965000D02*
X33233333Y-56012619D01*
X33233333Y-56012619D02*
X33042857Y-56012619D01*
X33042857Y-56012619D02*
X32947619Y-55965000D01*
X32947619Y-55965000D02*
X32900000Y-55917380D01*
X32900000Y-55917380D02*
X32852381Y-55822142D01*
X32852381Y-55822142D02*
X32852381Y-55536428D01*
X32852381Y-55536428D02*
X32900000Y-55441190D01*
X32900000Y-55441190D02*
X32947619Y-55393571D01*
X32947619Y-55393571D02*
X33042857Y-55345952D01*
X33042857Y-55345952D02*
X33233333Y-55345952D01*
X33233333Y-55345952D02*
X33328571Y-55393571D01*
X34233333Y-56012619D02*
X34233333Y-55488809D01*
X34233333Y-55488809D02*
X34185714Y-55393571D01*
X34185714Y-55393571D02*
X34090476Y-55345952D01*
X34090476Y-55345952D02*
X33900000Y-55345952D01*
X33900000Y-55345952D02*
X33804762Y-55393571D01*
X34233333Y-55965000D02*
X34138095Y-56012619D01*
X34138095Y-56012619D02*
X33900000Y-56012619D01*
X33900000Y-56012619D02*
X33804762Y-55965000D01*
X33804762Y-55965000D02*
X33757143Y-55869761D01*
X33757143Y-55869761D02*
X33757143Y-55774523D01*
X33757143Y-55774523D02*
X33804762Y-55679285D01*
X33804762Y-55679285D02*
X33900000Y-55631666D01*
X33900000Y-55631666D02*
X34138095Y-55631666D01*
X34138095Y-55631666D02*
X34233333Y-55584047D01*
X34852381Y-56012619D02*
X34757143Y-55965000D01*
X34757143Y-55965000D02*
X34709524Y-55869761D01*
X34709524Y-55869761D02*
X34709524Y-55012619D01*
%TO.C,J4*%
X67812619Y-39633333D02*
X68526904Y-39633333D01*
X68526904Y-39633333D02*
X68669761Y-39680952D01*
X68669761Y-39680952D02*
X68765000Y-39776190D01*
X68765000Y-39776190D02*
X68812619Y-39919047D01*
X68812619Y-39919047D02*
X68812619Y-40014285D01*
X68145952Y-38728571D02*
X68812619Y-38728571D01*
X67765000Y-38966666D02*
X68479285Y-39204761D01*
X68479285Y-39204761D02*
X68479285Y-38585714D01*
X62862619Y-40633333D02*
X61862619Y-40633333D01*
X61862619Y-40633333D02*
X62576904Y-40300000D01*
X62576904Y-40300000D02*
X61862619Y-39966667D01*
X61862619Y-39966667D02*
X62862619Y-39966667D01*
X62862619Y-39347619D02*
X62815000Y-39442857D01*
X62815000Y-39442857D02*
X62767380Y-39490476D01*
X62767380Y-39490476D02*
X62672142Y-39538095D01*
X62672142Y-39538095D02*
X62386428Y-39538095D01*
X62386428Y-39538095D02*
X62291190Y-39490476D01*
X62291190Y-39490476D02*
X62243571Y-39442857D01*
X62243571Y-39442857D02*
X62195952Y-39347619D01*
X62195952Y-39347619D02*
X62195952Y-39204762D01*
X62195952Y-39204762D02*
X62243571Y-39109524D01*
X62243571Y-39109524D02*
X62291190Y-39061905D01*
X62291190Y-39061905D02*
X62386428Y-39014286D01*
X62386428Y-39014286D02*
X62672142Y-39014286D01*
X62672142Y-39014286D02*
X62767380Y-39061905D01*
X62767380Y-39061905D02*
X62815000Y-39109524D01*
X62815000Y-39109524D02*
X62862619Y-39204762D01*
X62862619Y-39204762D02*
X62862619Y-39347619D01*
X62195952Y-38728571D02*
X62195952Y-38347619D01*
X61862619Y-38585714D02*
X62719761Y-38585714D01*
X62719761Y-38585714D02*
X62815000Y-38538095D01*
X62815000Y-38538095D02*
X62862619Y-38442857D01*
X62862619Y-38442857D02*
X62862619Y-38347619D01*
X62862619Y-37871428D02*
X62815000Y-37966666D01*
X62815000Y-37966666D02*
X62767380Y-38014285D01*
X62767380Y-38014285D02*
X62672142Y-38061904D01*
X62672142Y-38061904D02*
X62386428Y-38061904D01*
X62386428Y-38061904D02*
X62291190Y-38014285D01*
X62291190Y-38014285D02*
X62243571Y-37966666D01*
X62243571Y-37966666D02*
X62195952Y-37871428D01*
X62195952Y-37871428D02*
X62195952Y-37728571D01*
X62195952Y-37728571D02*
X62243571Y-37633333D01*
X62243571Y-37633333D02*
X62291190Y-37585714D01*
X62291190Y-37585714D02*
X62386428Y-37538095D01*
X62386428Y-37538095D02*
X62672142Y-37538095D01*
X62672142Y-37538095D02*
X62767380Y-37585714D01*
X62767380Y-37585714D02*
X62815000Y-37633333D01*
X62815000Y-37633333D02*
X62862619Y-37728571D01*
X62862619Y-37728571D02*
X62862619Y-37871428D01*
X62862619Y-37109523D02*
X62195952Y-37109523D01*
X62386428Y-37109523D02*
X62291190Y-37061904D01*
X62291190Y-37061904D02*
X62243571Y-37014285D01*
X62243571Y-37014285D02*
X62195952Y-36919047D01*
X62195952Y-36919047D02*
X62195952Y-36823809D01*
%TO.C,J3*%
X53316666Y-38262619D02*
X53316666Y-38976904D01*
X53316666Y-38976904D02*
X53269047Y-39119761D01*
X53269047Y-39119761D02*
X53173809Y-39215000D01*
X53173809Y-39215000D02*
X53030952Y-39262619D01*
X53030952Y-39262619D02*
X52935714Y-39262619D01*
X53697619Y-38262619D02*
X54316666Y-38262619D01*
X54316666Y-38262619D02*
X53983333Y-38643571D01*
X53983333Y-38643571D02*
X54126190Y-38643571D01*
X54126190Y-38643571D02*
X54221428Y-38691190D01*
X54221428Y-38691190D02*
X54269047Y-38738809D01*
X54269047Y-38738809D02*
X54316666Y-38834047D01*
X54316666Y-38834047D02*
X54316666Y-39072142D01*
X54316666Y-39072142D02*
X54269047Y-39167380D01*
X54269047Y-39167380D02*
X54221428Y-39215000D01*
X54221428Y-39215000D02*
X54126190Y-39262619D01*
X54126190Y-39262619D02*
X53840476Y-39262619D01*
X53840476Y-39262619D02*
X53745238Y-39215000D01*
X53745238Y-39215000D02*
X53697619Y-39167380D01*
X55590476Y-40262619D02*
X55114286Y-40262619D01*
X55114286Y-40262619D02*
X55114286Y-39262619D01*
X55923810Y-39881666D02*
X56685715Y-39881666D01*
%TO.C,J2*%
X58066666Y-25792619D02*
X58066666Y-26506904D01*
X58066666Y-26506904D02*
X58019047Y-26649761D01*
X58019047Y-26649761D02*
X57923809Y-26745000D01*
X57923809Y-26745000D02*
X57780952Y-26792619D01*
X57780952Y-26792619D02*
X57685714Y-26792619D01*
X58495238Y-25887857D02*
X58542857Y-25840238D01*
X58542857Y-25840238D02*
X58638095Y-25792619D01*
X58638095Y-25792619D02*
X58876190Y-25792619D01*
X58876190Y-25792619D02*
X58971428Y-25840238D01*
X58971428Y-25840238D02*
X59019047Y-25887857D01*
X59019047Y-25887857D02*
X59066666Y-25983095D01*
X59066666Y-25983095D02*
X59066666Y-26078333D01*
X59066666Y-26078333D02*
X59019047Y-26221190D01*
X59019047Y-26221190D02*
X58447619Y-26792619D01*
X58447619Y-26792619D02*
X59066666Y-26792619D01*
X60840476Y-29512619D02*
X60364286Y-29512619D01*
X60364286Y-29512619D02*
X60364286Y-28512619D01*
X61173810Y-29131666D02*
X61935715Y-29131666D01*
X61554762Y-29512619D02*
X61554762Y-28750714D01*
%TO.C,J1*%
X37566666Y-7212619D02*
X37566666Y-7926904D01*
X37566666Y-7926904D02*
X37519047Y-8069761D01*
X37519047Y-8069761D02*
X37423809Y-8165000D01*
X37423809Y-8165000D02*
X37280952Y-8212619D01*
X37280952Y-8212619D02*
X37185714Y-8212619D01*
X38566666Y-8212619D02*
X37995238Y-8212619D01*
X38280952Y-8212619D02*
X38280952Y-7212619D01*
X38280952Y-7212619D02*
X38185714Y-7355476D01*
X38185714Y-7355476D02*
X38090476Y-7450714D01*
X38090476Y-7450714D02*
X37995238Y-7498333D01*
X34233333Y-1465000D02*
X34376190Y-1512619D01*
X34376190Y-1512619D02*
X34614285Y-1512619D01*
X34614285Y-1512619D02*
X34709523Y-1465000D01*
X34709523Y-1465000D02*
X34757142Y-1417380D01*
X34757142Y-1417380D02*
X34804761Y-1322142D01*
X34804761Y-1322142D02*
X34804761Y-1226904D01*
X34804761Y-1226904D02*
X34757142Y-1131666D01*
X34757142Y-1131666D02*
X34709523Y-1084047D01*
X34709523Y-1084047D02*
X34614285Y-1036428D01*
X34614285Y-1036428D02*
X34423809Y-988809D01*
X34423809Y-988809D02*
X34328571Y-941190D01*
X34328571Y-941190D02*
X34280952Y-893571D01*
X34280952Y-893571D02*
X34233333Y-798333D01*
X34233333Y-798333D02*
X34233333Y-703095D01*
X34233333Y-703095D02*
X34280952Y-607857D01*
X34280952Y-607857D02*
X34328571Y-560238D01*
X34328571Y-560238D02*
X34423809Y-512619D01*
X34423809Y-512619D02*
X34661904Y-512619D01*
X34661904Y-512619D02*
X34804761Y-560238D01*
X35661904Y-845952D02*
X35661904Y-1512619D01*
X35233333Y-845952D02*
X35233333Y-1369761D01*
X35233333Y-1369761D02*
X35280952Y-1465000D01*
X35280952Y-1465000D02*
X35376190Y-1512619D01*
X35376190Y-1512619D02*
X35519047Y-1512619D01*
X35519047Y-1512619D02*
X35614285Y-1465000D01*
X35614285Y-1465000D02*
X35661904Y-1417380D01*
X36138095Y-845952D02*
X36138095Y-1845952D01*
X36138095Y-893571D02*
X36233333Y-845952D01*
X36233333Y-845952D02*
X36423809Y-845952D01*
X36423809Y-845952D02*
X36519047Y-893571D01*
X36519047Y-893571D02*
X36566666Y-941190D01*
X36566666Y-941190D02*
X36614285Y-1036428D01*
X36614285Y-1036428D02*
X36614285Y-1322142D01*
X36614285Y-1322142D02*
X36566666Y-1417380D01*
X36566666Y-1417380D02*
X36519047Y-1465000D01*
X36519047Y-1465000D02*
X36423809Y-1512619D01*
X36423809Y-1512619D02*
X36233333Y-1512619D01*
X36233333Y-1512619D02*
X36138095Y-1465000D01*
X37042857Y-845952D02*
X37042857Y-1845952D01*
X37042857Y-893571D02*
X37138095Y-845952D01*
X37138095Y-845952D02*
X37328571Y-845952D01*
X37328571Y-845952D02*
X37423809Y-893571D01*
X37423809Y-893571D02*
X37471428Y-941190D01*
X37471428Y-941190D02*
X37519047Y-1036428D01*
X37519047Y-1036428D02*
X37519047Y-1322142D01*
X37519047Y-1322142D02*
X37471428Y-1417380D01*
X37471428Y-1417380D02*
X37423809Y-1465000D01*
X37423809Y-1465000D02*
X37328571Y-1512619D01*
X37328571Y-1512619D02*
X37138095Y-1512619D01*
X37138095Y-1512619D02*
X37042857Y-1465000D01*
X38090476Y-1512619D02*
X37995238Y-1465000D01*
X37995238Y-1465000D02*
X37947619Y-1369761D01*
X37947619Y-1369761D02*
X37947619Y-512619D01*
X38376191Y-845952D02*
X38614286Y-1512619D01*
X38852381Y-845952D02*
X38614286Y-1512619D01*
X38614286Y-1512619D02*
X38519048Y-1750714D01*
X38519048Y-1750714D02*
X38471429Y-1798333D01*
X38471429Y-1798333D02*
X38376191Y-1845952D01*
X39757143Y-1512619D02*
X39185715Y-1512619D01*
X39471429Y-1512619D02*
X39471429Y-512619D01*
X39471429Y-512619D02*
X39376191Y-655476D01*
X39376191Y-655476D02*
X39280953Y-750714D01*
X39280953Y-750714D02*
X39185715Y-798333D01*
X40138096Y-607857D02*
X40185715Y-560238D01*
X40185715Y-560238D02*
X40280953Y-512619D01*
X40280953Y-512619D02*
X40519048Y-512619D01*
X40519048Y-512619D02*
X40614286Y-560238D01*
X40614286Y-560238D02*
X40661905Y-607857D01*
X40661905Y-607857D02*
X40709524Y-703095D01*
X40709524Y-703095D02*
X40709524Y-798333D01*
X40709524Y-798333D02*
X40661905Y-941190D01*
X40661905Y-941190D02*
X40090477Y-1512619D01*
X40090477Y-1512619D02*
X40709524Y-1512619D01*
X40995239Y-512619D02*
X41328572Y-1512619D01*
X41328572Y-1512619D02*
X41661905Y-512619D01*
%TO.C,D1*%
X50661905Y-35262619D02*
X50661905Y-34262619D01*
X50661905Y-34262619D02*
X50900000Y-34262619D01*
X50900000Y-34262619D02*
X51042857Y-34310238D01*
X51042857Y-34310238D02*
X51138095Y-34405476D01*
X51138095Y-34405476D02*
X51185714Y-34500714D01*
X51185714Y-34500714D02*
X51233333Y-34691190D01*
X51233333Y-34691190D02*
X51233333Y-34834047D01*
X51233333Y-34834047D02*
X51185714Y-35024523D01*
X51185714Y-35024523D02*
X51138095Y-35119761D01*
X51138095Y-35119761D02*
X51042857Y-35215000D01*
X51042857Y-35215000D02*
X50900000Y-35262619D01*
X50900000Y-35262619D02*
X50661905Y-35262619D01*
X52185714Y-35262619D02*
X51614286Y-35262619D01*
X51900000Y-35262619D02*
X51900000Y-34262619D01*
X51900000Y-34262619D02*
X51804762Y-34405476D01*
X51804762Y-34405476D02*
X51709524Y-34500714D01*
X51709524Y-34500714D02*
X51614286Y-34548333D01*
X57758095Y-36862619D02*
X57758095Y-35862619D01*
X58329523Y-36862619D02*
X57900952Y-36291190D01*
X58329523Y-35862619D02*
X57758095Y-36434047D01*
%TO.C,C5*%
X40167380Y-34716666D02*
X40215000Y-34764285D01*
X40215000Y-34764285D02*
X40262619Y-34907142D01*
X40262619Y-34907142D02*
X40262619Y-35002380D01*
X40262619Y-35002380D02*
X40215000Y-35145237D01*
X40215000Y-35145237D02*
X40119761Y-35240475D01*
X40119761Y-35240475D02*
X40024523Y-35288094D01*
X40024523Y-35288094D02*
X39834047Y-35335713D01*
X39834047Y-35335713D02*
X39691190Y-35335713D01*
X39691190Y-35335713D02*
X39500714Y-35288094D01*
X39500714Y-35288094D02*
X39405476Y-35240475D01*
X39405476Y-35240475D02*
X39310238Y-35145237D01*
X39310238Y-35145237D02*
X39262619Y-35002380D01*
X39262619Y-35002380D02*
X39262619Y-34907142D01*
X39262619Y-34907142D02*
X39310238Y-34764285D01*
X39310238Y-34764285D02*
X39357857Y-34716666D01*
X39262619Y-33811904D02*
X39262619Y-34288094D01*
X39262619Y-34288094D02*
X39738809Y-34335713D01*
X39738809Y-34335713D02*
X39691190Y-34288094D01*
X39691190Y-34288094D02*
X39643571Y-34192856D01*
X39643571Y-34192856D02*
X39643571Y-33954761D01*
X39643571Y-33954761D02*
X39691190Y-33859523D01*
X39691190Y-33859523D02*
X39738809Y-33811904D01*
X39738809Y-33811904D02*
X39834047Y-33764285D01*
X39834047Y-33764285D02*
X40072142Y-33764285D01*
X40072142Y-33764285D02*
X40167380Y-33811904D01*
X40167380Y-33811904D02*
X40215000Y-33859523D01*
X40215000Y-33859523D02*
X40262619Y-33954761D01*
X40262619Y-33954761D02*
X40262619Y-34192856D01*
X40262619Y-34192856D02*
X40215000Y-34288094D01*
X40215000Y-34288094D02*
X40167380Y-34335713D01*
%TO.C,C4*%
X42167380Y-50716666D02*
X42215000Y-50764285D01*
X42215000Y-50764285D02*
X42262619Y-50907142D01*
X42262619Y-50907142D02*
X42262619Y-51002380D01*
X42262619Y-51002380D02*
X42215000Y-51145237D01*
X42215000Y-51145237D02*
X42119761Y-51240475D01*
X42119761Y-51240475D02*
X42024523Y-51288094D01*
X42024523Y-51288094D02*
X41834047Y-51335713D01*
X41834047Y-51335713D02*
X41691190Y-51335713D01*
X41691190Y-51335713D02*
X41500714Y-51288094D01*
X41500714Y-51288094D02*
X41405476Y-51240475D01*
X41405476Y-51240475D02*
X41310238Y-51145237D01*
X41310238Y-51145237D02*
X41262619Y-51002380D01*
X41262619Y-51002380D02*
X41262619Y-50907142D01*
X41262619Y-50907142D02*
X41310238Y-50764285D01*
X41310238Y-50764285D02*
X41357857Y-50716666D01*
X41595952Y-49859523D02*
X42262619Y-49859523D01*
X41215000Y-50097618D02*
X41929285Y-50335713D01*
X41929285Y-50335713D02*
X41929285Y-49716666D01*
%TO.C,C3*%
X62017380Y-49098989D02*
X62065000Y-49146608D01*
X62065000Y-49146608D02*
X62112619Y-49289465D01*
X62112619Y-49289465D02*
X62112619Y-49384703D01*
X62112619Y-49384703D02*
X62065000Y-49527560D01*
X62065000Y-49527560D02*
X61969761Y-49622798D01*
X61969761Y-49622798D02*
X61874523Y-49670417D01*
X61874523Y-49670417D02*
X61684047Y-49718036D01*
X61684047Y-49718036D02*
X61541190Y-49718036D01*
X61541190Y-49718036D02*
X61350714Y-49670417D01*
X61350714Y-49670417D02*
X61255476Y-49622798D01*
X61255476Y-49622798D02*
X61160238Y-49527560D01*
X61160238Y-49527560D02*
X61112619Y-49384703D01*
X61112619Y-49384703D02*
X61112619Y-49289465D01*
X61112619Y-49289465D02*
X61160238Y-49146608D01*
X61160238Y-49146608D02*
X61207857Y-49098989D01*
X61112619Y-48765655D02*
X61112619Y-48146608D01*
X61112619Y-48146608D02*
X61493571Y-48479941D01*
X61493571Y-48479941D02*
X61493571Y-48337084D01*
X61493571Y-48337084D02*
X61541190Y-48241846D01*
X61541190Y-48241846D02*
X61588809Y-48194227D01*
X61588809Y-48194227D02*
X61684047Y-48146608D01*
X61684047Y-48146608D02*
X61922142Y-48146608D01*
X61922142Y-48146608D02*
X62017380Y-48194227D01*
X62017380Y-48194227D02*
X62065000Y-48241846D01*
X62065000Y-48241846D02*
X62112619Y-48337084D01*
X62112619Y-48337084D02*
X62112619Y-48622798D01*
X62112619Y-48622798D02*
X62065000Y-48718036D01*
X62065000Y-48718036D02*
X62017380Y-48765655D01*
%TO.C,C1*%
X41983333Y-8917380D02*
X41935714Y-8965000D01*
X41935714Y-8965000D02*
X41792857Y-9012619D01*
X41792857Y-9012619D02*
X41697619Y-9012619D01*
X41697619Y-9012619D02*
X41554762Y-8965000D01*
X41554762Y-8965000D02*
X41459524Y-8869761D01*
X41459524Y-8869761D02*
X41411905Y-8774523D01*
X41411905Y-8774523D02*
X41364286Y-8584047D01*
X41364286Y-8584047D02*
X41364286Y-8441190D01*
X41364286Y-8441190D02*
X41411905Y-8250714D01*
X41411905Y-8250714D02*
X41459524Y-8155476D01*
X41459524Y-8155476D02*
X41554762Y-8060238D01*
X41554762Y-8060238D02*
X41697619Y-8012619D01*
X41697619Y-8012619D02*
X41792857Y-8012619D01*
X41792857Y-8012619D02*
X41935714Y-8060238D01*
X41935714Y-8060238D02*
X41983333Y-8107857D01*
X42935714Y-9012619D02*
X42364286Y-9012619D01*
X42650000Y-9012619D02*
X42650000Y-8012619D01*
X42650000Y-8012619D02*
X42554762Y-8155476D01*
X42554762Y-8155476D02*
X42459524Y-8250714D01*
X42459524Y-8250714D02*
X42364286Y-8298333D01*
%TO.C,A1*%
X2185714Y-11476904D02*
X2661904Y-11476904D01*
X2090476Y-11762619D02*
X2423809Y-10762619D01*
X2423809Y-10762619D02*
X2757142Y-11762619D01*
X3614285Y-11762619D02*
X3042857Y-11762619D01*
X3328571Y-11762619D02*
X3328571Y-10762619D01*
X3328571Y-10762619D02*
X3233333Y-10905476D01*
X3233333Y-10905476D02*
X3138095Y-11000714D01*
X3138095Y-11000714D02*
X3042857Y-11048333D01*
X8518095Y-48772619D02*
X8518095Y-49582142D01*
X8518095Y-49582142D02*
X8565714Y-49677380D01*
X8565714Y-49677380D02*
X8613333Y-49725000D01*
X8613333Y-49725000D02*
X8708571Y-49772619D01*
X8708571Y-49772619D02*
X8899047Y-49772619D01*
X8899047Y-49772619D02*
X8994285Y-49725000D01*
X8994285Y-49725000D02*
X9041904Y-49677380D01*
X9041904Y-49677380D02*
X9089523Y-49582142D01*
X9089523Y-49582142D02*
X9089523Y-48772619D01*
X9518095Y-49725000D02*
X9660952Y-49772619D01*
X9660952Y-49772619D02*
X9899047Y-49772619D01*
X9899047Y-49772619D02*
X9994285Y-49725000D01*
X9994285Y-49725000D02*
X10041904Y-49677380D01*
X10041904Y-49677380D02*
X10089523Y-49582142D01*
X10089523Y-49582142D02*
X10089523Y-49486904D01*
X10089523Y-49486904D02*
X10041904Y-49391666D01*
X10041904Y-49391666D02*
X9994285Y-49344047D01*
X9994285Y-49344047D02*
X9899047Y-49296428D01*
X9899047Y-49296428D02*
X9708571Y-49248809D01*
X9708571Y-49248809D02*
X9613333Y-49201190D01*
X9613333Y-49201190D02*
X9565714Y-49153571D01*
X9565714Y-49153571D02*
X9518095Y-49058333D01*
X9518095Y-49058333D02*
X9518095Y-48963095D01*
X9518095Y-48963095D02*
X9565714Y-48867857D01*
X9565714Y-48867857D02*
X9613333Y-48820238D01*
X9613333Y-48820238D02*
X9708571Y-48772619D01*
X9708571Y-48772619D02*
X9946666Y-48772619D01*
X9946666Y-48772619D02*
X10089523Y-48820238D01*
X10851428Y-49248809D02*
X10994285Y-49296428D01*
X10994285Y-49296428D02*
X11041904Y-49344047D01*
X11041904Y-49344047D02*
X11089523Y-49439285D01*
X11089523Y-49439285D02*
X11089523Y-49582142D01*
X11089523Y-49582142D02*
X11041904Y-49677380D01*
X11041904Y-49677380D02*
X10994285Y-49725000D01*
X10994285Y-49725000D02*
X10899047Y-49772619D01*
X10899047Y-49772619D02*
X10518095Y-49772619D01*
X10518095Y-49772619D02*
X10518095Y-48772619D01*
X10518095Y-48772619D02*
X10851428Y-48772619D01*
X10851428Y-48772619D02*
X10946666Y-48820238D01*
X10946666Y-48820238D02*
X10994285Y-48867857D01*
X10994285Y-48867857D02*
X11041904Y-48963095D01*
X11041904Y-48963095D02*
X11041904Y-49058333D01*
X11041904Y-49058333D02*
X10994285Y-49153571D01*
X10994285Y-49153571D02*
X10946666Y-49201190D01*
X10946666Y-49201190D02*
X10851428Y-49248809D01*
X10851428Y-49248809D02*
X10518095Y-49248809D01*
%TO.C,D2*%
X15391905Y-9222619D02*
X15391905Y-8222619D01*
X15391905Y-8222619D02*
X15630000Y-8222619D01*
X15630000Y-8222619D02*
X15772857Y-8270238D01*
X15772857Y-8270238D02*
X15868095Y-8365476D01*
X15868095Y-8365476D02*
X15915714Y-8460714D01*
X15915714Y-8460714D02*
X15963333Y-8651190D01*
X15963333Y-8651190D02*
X15963333Y-8794047D01*
X15963333Y-8794047D02*
X15915714Y-8984523D01*
X15915714Y-8984523D02*
X15868095Y-9079761D01*
X15868095Y-9079761D02*
X15772857Y-9175000D01*
X15772857Y-9175000D02*
X15630000Y-9222619D01*
X15630000Y-9222619D02*
X15391905Y-9222619D01*
X16344286Y-8317857D02*
X16391905Y-8270238D01*
X16391905Y-8270238D02*
X16487143Y-8222619D01*
X16487143Y-8222619D02*
X16725238Y-8222619D01*
X16725238Y-8222619D02*
X16820476Y-8270238D01*
X16820476Y-8270238D02*
X16868095Y-8317857D01*
X16868095Y-8317857D02*
X16915714Y-8413095D01*
X16915714Y-8413095D02*
X16915714Y-8508333D01*
X16915714Y-8508333D02*
X16868095Y-8651190D01*
X16868095Y-8651190D02*
X16296667Y-9222619D01*
X16296667Y-9222619D02*
X16915714Y-9222619D01*
D12*
%TO.C,U1*%
X32410000Y-24695000D02*
G75*
G03*
X34410000Y-24695000I1000000J0D01*
G01*
X32410000Y-24695000D02*
X30760000Y-24695000D01*
X36060000Y-24695000D02*
X34410000Y-24695000D01*
X30760000Y-24695000D02*
X30760000Y-29895000D01*
X30760000Y-29895000D02*
X36060000Y-29895000D01*
X36060000Y-29895000D02*
X36060000Y-24695000D01*
%TO.C,C7*%
X35020000Y-12800000D02*
G75*
G03*
X35020000Y-12800000I-2620000J0D01*
G01*
%TO.C,R14*%
X23400000Y-42520000D02*
X23400000Y-44780000D01*
X25120000Y-40800000D02*
G75*
G03*
X25120000Y-40800000I-1720000J0D01*
G01*
%TO.C,R13*%
X26980000Y-49800000D02*
X29240000Y-49800000D01*
X26980000Y-49800000D02*
G75*
G03*
X26980000Y-49800000I-1720000J0D01*
G01*
%TO.C,R12*%
X23400000Y-27900000D02*
X23400000Y-30160000D01*
X25120000Y-26180000D02*
G75*
G03*
X25120000Y-26180000I-1720000J0D01*
G01*
%TO.C,R11*%
X10400000Y-5220000D02*
X10400000Y-2960000D01*
X12120000Y-6940000D02*
G75*
G03*
X12120000Y-6940000I-1720000J0D01*
G01*
%TO.C,R10*%
X64120000Y-21720000D02*
X66380000Y-21720000D01*
X64120000Y-21720000D02*
G75*
G03*
X64120000Y-21720000I-1720000J0D01*
G01*
%TO.C,R9*%
X63980000Y-25720000D02*
X66240000Y-25720000D01*
X63980000Y-25720000D02*
G75*
G03*
X63980000Y-25720000I-1720000J0D01*
G01*
%TO.C,R8*%
X64120000Y-17720000D02*
X66380000Y-17720000D01*
X64120000Y-17720000D02*
G75*
G03*
X64120000Y-17720000I-1720000J0D01*
G01*
%TO.C,R7*%
X64120000Y-13720000D02*
X66380000Y-13720000D01*
X64120000Y-13720000D02*
G75*
G03*
X64120000Y-13720000I-1720000J0D01*
G01*
%TO.C,R6*%
X64120000Y-9800000D02*
X66380000Y-9800000D01*
X64120000Y-9800000D02*
G75*
G03*
X64120000Y-9800000I-1720000J0D01*
G01*
%TO.C,R5*%
X24980000Y-35800000D02*
X27240000Y-35800000D01*
X24980000Y-35800000D02*
G75*
G03*
X24980000Y-35800000I-1720000J0D01*
G01*
%TO.C,R4*%
X38980000Y-40800000D02*
X41240000Y-40800000D01*
X38980000Y-40800000D02*
G75*
G03*
X38980000Y-40800000I-1720000J0D01*
G01*
%TO.C,R3*%
X31400000Y-42520000D02*
X31400000Y-44780000D01*
X33120000Y-40800000D02*
G75*
G03*
X33120000Y-40800000I-1720000J0D01*
G01*
%TO.C,R2*%
X44400000Y-48520000D02*
X44400000Y-50780000D01*
X46120000Y-46800000D02*
G75*
G03*
X46120000Y-46800000I-1720000J0D01*
G01*
%TO.C,R1*%
X50680000Y-26800000D02*
X48420000Y-26800000D01*
X54120000Y-26800000D02*
G75*
G03*
X54120000Y-26800000I-1720000J0D01*
G01*
%TO.C,C6*%
X34688748Y-19710000D02*
X36111252Y-19710000D01*
X34688748Y-17890000D02*
X36111252Y-17890000D01*
%TO.C,C2*%
X41688748Y-21710000D02*
X43111252Y-21710000D01*
X41688748Y-19890000D02*
X43111252Y-19890000D01*
%TO.C,U2*%
X22330000Y-6650000D02*
X25930000Y-6650000D01*
X25968478Y-6638478D02*
G75*
G03*
X24130000Y-2200000I-1838478J1838478D01*
G01*
X24130000Y-2200000D02*
G75*
G03*
X22291522Y-6638478I0J-2600000D01*
G01*
%TO.C,Q1*%
X47280000Y-1880000D02*
X47280000Y-17770000D01*
X47280000Y-1880000D02*
X57520000Y-1880000D01*
X57520000Y-1880000D02*
X57520000Y-17770000D01*
X47280000Y-17770000D02*
X57520000Y-17770000D01*
X52400000Y-17770000D02*
X52400000Y-20310000D01*
X54940000Y-17770000D02*
X54940000Y-20310000D01*
X49860000Y-17770000D02*
X49860000Y-20310000D01*
%TO.C,PS1*%
X27647500Y-22370000D02*
X21307500Y-22370000D01*
X27647500Y-10600000D02*
X27647500Y-22370000D01*
X21307500Y-10600000D02*
X21307500Y-22370000D01*
X21057500Y-10350000D02*
X21057500Y-11550000D01*
X27647500Y-10600000D02*
X21307500Y-10600000D01*
X22257500Y-10350000D02*
X21057500Y-10350000D01*
%TO.C,D1*%
X53725000Y-36520000D02*
X53725000Y-31080000D01*
X45530000Y-31080000D02*
X45530000Y-36520000D01*
X55270000Y-36520000D02*
X55270000Y-31080000D01*
X53605000Y-36520000D02*
X53605000Y-31080000D01*
X45530000Y-36520000D02*
X55270000Y-36520000D01*
X44620000Y-33800000D02*
X45530000Y-33800000D01*
X53845000Y-36520000D02*
X53845000Y-31080000D01*
X56180000Y-33800000D02*
X55270000Y-33800000D01*
X55270000Y-31080000D02*
X45530000Y-31080000D01*
%TO.C,C5*%
X34360000Y-36551000D02*
X32852000Y-36551000D01*
X34360000Y-36031000D02*
X32524000Y-36031000D01*
X38447000Y-35631000D02*
X36440000Y-35631000D01*
X37290000Y-37191000D02*
X33510000Y-37191000D01*
X38531000Y-35351000D02*
X36440000Y-35351000D01*
X38630000Y-34630000D02*
X32170000Y-34630000D01*
X34360000Y-35431000D02*
X32290000Y-35431000D01*
X34360000Y-35551000D02*
X32326000Y-35551000D01*
X38630000Y-34590000D02*
X32170000Y-34590000D01*
X37234000Y-37231000D02*
X33566000Y-37231000D01*
X37395000Y-37111000D02*
X33405000Y-37111000D01*
X34360000Y-35110000D02*
X32218000Y-35110000D01*
X34360000Y-36151000D02*
X32588000Y-36151000D01*
X38256000Y-36071000D02*
X36440000Y-36071000D01*
X37705000Y-36831000D02*
X36440000Y-36831000D01*
X38582000Y-35110000D02*
X36440000Y-35110000D01*
X36202000Y-37711000D02*
X34598000Y-37711000D01*
X38628000Y-34670000D02*
X32172000Y-34670000D01*
X34360000Y-36191000D02*
X32610000Y-36191000D01*
X37239000Y-31049759D02*
X37239000Y-31679759D01*
X34360000Y-36271000D02*
X32658000Y-36271000D01*
X35802000Y-37791000D02*
X34998000Y-37791000D01*
X34360000Y-35190000D02*
X32233000Y-35190000D01*
X34360000Y-35791000D02*
X32414000Y-35791000D01*
X38212000Y-36151000D02*
X36440000Y-36151000D01*
X34360000Y-36311000D02*
X32684000Y-36311000D01*
X34360000Y-35070000D02*
X32211000Y-35070000D01*
X36909000Y-37431000D02*
X33891000Y-37431000D01*
X37624000Y-36911000D02*
X33176000Y-36911000D01*
X34360000Y-35711000D02*
X32382000Y-35711000D01*
X37884000Y-36631000D02*
X36440000Y-36631000D01*
X37050000Y-37351000D02*
X33750000Y-37351000D01*
X34360000Y-35150000D02*
X32225000Y-35150000D01*
X34360000Y-34830000D02*
X32182000Y-34830000D01*
X38064000Y-36391000D02*
X36440000Y-36391000D01*
X36832000Y-37471000D02*
X33968000Y-37471000D01*
X38601000Y-34990000D02*
X36440000Y-34990000D01*
X38234000Y-36111000D02*
X36440000Y-36111000D01*
X34360000Y-35351000D02*
X32269000Y-35351000D01*
X38622000Y-34790000D02*
X36440000Y-34790000D01*
X37816000Y-36711000D02*
X36440000Y-36711000D01*
X38090000Y-36351000D02*
X36440000Y-36351000D01*
X37176000Y-37271000D02*
X33624000Y-37271000D01*
X34360000Y-36431000D02*
X32764000Y-36431000D01*
X36033000Y-37751000D02*
X34767000Y-37751000D01*
X34360000Y-36831000D02*
X33095000Y-36831000D01*
X34360000Y-36511000D02*
X32822000Y-36511000D01*
X34360000Y-34870000D02*
X32185000Y-34870000D01*
X38370000Y-35831000D02*
X36440000Y-35831000D01*
X38615000Y-34870000D02*
X36440000Y-34870000D01*
X38190000Y-36191000D02*
X36440000Y-36191000D01*
X38352000Y-35871000D02*
X36440000Y-35871000D01*
X34360000Y-36231000D02*
X32634000Y-36231000D01*
X37537000Y-36991000D02*
X33263000Y-36991000D01*
X38007000Y-36471000D02*
X36440000Y-36471000D01*
X34360000Y-35311000D02*
X32259000Y-35311000D01*
X34360000Y-35831000D02*
X32430000Y-35831000D01*
X34360000Y-35951000D02*
X32484000Y-35951000D01*
X37444000Y-37071000D02*
X33356000Y-37071000D01*
X37492000Y-37031000D02*
X33308000Y-37031000D01*
X34360000Y-35871000D02*
X32448000Y-35871000D01*
X37743000Y-36791000D02*
X36440000Y-36791000D01*
X34360000Y-35511000D02*
X32314000Y-35511000D01*
X36750000Y-37511000D02*
X34050000Y-37511000D01*
X38550000Y-35271000D02*
X36440000Y-35271000D01*
X38334000Y-35911000D02*
X36440000Y-35911000D01*
X34360000Y-36791000D02*
X33057000Y-36791000D01*
X38418000Y-35711000D02*
X36440000Y-35711000D01*
X34360000Y-36071000D02*
X32544000Y-36071000D01*
X34360000Y-35030000D02*
X32205000Y-35030000D01*
X38510000Y-35431000D02*
X36440000Y-35431000D01*
X34360000Y-36471000D02*
X32793000Y-36471000D01*
X34360000Y-36711000D02*
X32984000Y-36711000D01*
X38433000Y-35671000D02*
X36440000Y-35671000D01*
X34360000Y-35271000D02*
X32250000Y-35271000D01*
X37554000Y-31364759D02*
X36924000Y-31364759D01*
X34360000Y-36111000D02*
X32566000Y-36111000D01*
X37114000Y-37311000D02*
X33686000Y-37311000D01*
X37780000Y-36751000D02*
X36440000Y-36751000D01*
X36981000Y-37391000D02*
X33819000Y-37391000D01*
X38575000Y-35150000D02*
X36440000Y-35150000D01*
X36459000Y-37631000D02*
X34341000Y-37631000D01*
X36340000Y-37671000D02*
X34460000Y-37671000D01*
X34360000Y-34990000D02*
X32199000Y-34990000D01*
X38296000Y-35991000D02*
X36440000Y-35991000D01*
X34360000Y-35591000D02*
X32339000Y-35591000D01*
X38589000Y-35070000D02*
X36440000Y-35070000D01*
X38559000Y-35230000D02*
X36440000Y-35230000D01*
X38498000Y-35471000D02*
X36440000Y-35471000D01*
X38630000Y-34550000D02*
X32170000Y-34550000D01*
X34360000Y-35391000D02*
X32279000Y-35391000D01*
X38166000Y-36231000D02*
X36440000Y-36231000D01*
X38521000Y-35391000D02*
X36440000Y-35391000D01*
X34360000Y-35671000D02*
X32367000Y-35671000D01*
X38541000Y-35311000D02*
X36440000Y-35311000D01*
X38618000Y-34830000D02*
X36440000Y-34830000D01*
X37850000Y-36671000D02*
X36440000Y-36671000D01*
X37665000Y-36871000D02*
X33135000Y-36871000D01*
X34360000Y-35991000D02*
X32504000Y-35991000D01*
X37978000Y-36511000D02*
X36440000Y-36511000D01*
X34360000Y-34790000D02*
X32178000Y-34790000D01*
X38486000Y-35511000D02*
X36440000Y-35511000D01*
X34360000Y-35471000D02*
X32302000Y-35471000D01*
X36565000Y-37591000D02*
X34235000Y-37591000D01*
X38036000Y-36431000D02*
X36440000Y-36431000D01*
X34360000Y-36591000D02*
X32884000Y-36591000D01*
X34360000Y-35631000D02*
X32353000Y-35631000D01*
X37582000Y-36951000D02*
X33218000Y-36951000D01*
X37344000Y-37151000D02*
X33456000Y-37151000D01*
X36662000Y-37551000D02*
X34138000Y-37551000D01*
X34360000Y-34950000D02*
X32194000Y-34950000D01*
X34360000Y-36751000D02*
X33020000Y-36751000D01*
X38142000Y-36271000D02*
X36440000Y-36271000D01*
X38567000Y-35190000D02*
X36440000Y-35190000D01*
X34360000Y-35911000D02*
X32466000Y-35911000D01*
X38627000Y-34710000D02*
X32173000Y-34710000D01*
X34360000Y-36631000D02*
X32916000Y-36631000D01*
X34360000Y-36351000D02*
X32710000Y-36351000D01*
X37948000Y-36551000D02*
X36440000Y-36551000D01*
X34360000Y-34910000D02*
X32189000Y-34910000D01*
X38276000Y-36031000D02*
X36440000Y-36031000D01*
X34360000Y-36391000D02*
X32736000Y-36391000D01*
X38606000Y-34950000D02*
X36440000Y-34950000D01*
X37916000Y-36591000D02*
X36440000Y-36591000D01*
X38386000Y-35791000D02*
X36440000Y-35791000D01*
X38474000Y-35551000D02*
X36440000Y-35551000D01*
X38461000Y-35591000D02*
X36440000Y-35591000D01*
X38611000Y-34910000D02*
X36440000Y-34910000D01*
X38402000Y-35751000D02*
X36440000Y-35751000D01*
X34360000Y-35751000D02*
X32398000Y-35751000D01*
X38595000Y-35030000D02*
X36440000Y-35030000D01*
X38316000Y-35951000D02*
X36440000Y-35951000D01*
X34360000Y-35230000D02*
X32241000Y-35230000D01*
X34360000Y-36671000D02*
X32950000Y-36671000D01*
X38116000Y-36311000D02*
X36440000Y-36311000D01*
X38624000Y-34750000D02*
X32176000Y-34750000D01*
X38670000Y-34550000D02*
G75*
G03*
X38670000Y-34550000I-3270000J0D01*
G01*
%TO.C,C4*%
X36360000Y-52551000D02*
X34852000Y-52551000D01*
X36360000Y-52031000D02*
X34524000Y-52031000D01*
X40447000Y-51631000D02*
X38440000Y-51631000D01*
X39290000Y-53191000D02*
X35510000Y-53191000D01*
X40531000Y-51351000D02*
X38440000Y-51351000D01*
X40630000Y-50630000D02*
X34170000Y-50630000D01*
X36360000Y-51431000D02*
X34290000Y-51431000D01*
X36360000Y-51551000D02*
X34326000Y-51551000D01*
X40630000Y-50590000D02*
X34170000Y-50590000D01*
X39234000Y-53231000D02*
X35566000Y-53231000D01*
X39395000Y-53111000D02*
X35405000Y-53111000D01*
X36360000Y-51110000D02*
X34218000Y-51110000D01*
X36360000Y-52151000D02*
X34588000Y-52151000D01*
X40256000Y-52071000D02*
X38440000Y-52071000D01*
X39705000Y-52831000D02*
X38440000Y-52831000D01*
X40582000Y-51110000D02*
X38440000Y-51110000D01*
X38202000Y-53711000D02*
X36598000Y-53711000D01*
X40628000Y-50670000D02*
X34172000Y-50670000D01*
X36360000Y-52191000D02*
X34610000Y-52191000D01*
X39239000Y-47049759D02*
X39239000Y-47679759D01*
X36360000Y-52271000D02*
X34658000Y-52271000D01*
X37802000Y-53791000D02*
X36998000Y-53791000D01*
X36360000Y-51190000D02*
X34233000Y-51190000D01*
X36360000Y-51791000D02*
X34414000Y-51791000D01*
X40212000Y-52151000D02*
X38440000Y-52151000D01*
X36360000Y-52311000D02*
X34684000Y-52311000D01*
X36360000Y-51070000D02*
X34211000Y-51070000D01*
X38909000Y-53431000D02*
X35891000Y-53431000D01*
X39624000Y-52911000D02*
X35176000Y-52911000D01*
X36360000Y-51711000D02*
X34382000Y-51711000D01*
X39884000Y-52631000D02*
X38440000Y-52631000D01*
X39050000Y-53351000D02*
X35750000Y-53351000D01*
X36360000Y-51150000D02*
X34225000Y-51150000D01*
X36360000Y-50830000D02*
X34182000Y-50830000D01*
X40064000Y-52391000D02*
X38440000Y-52391000D01*
X38832000Y-53471000D02*
X35968000Y-53471000D01*
X40601000Y-50990000D02*
X38440000Y-50990000D01*
X40234000Y-52111000D02*
X38440000Y-52111000D01*
X36360000Y-51351000D02*
X34269000Y-51351000D01*
X40622000Y-50790000D02*
X38440000Y-50790000D01*
X39816000Y-52711000D02*
X38440000Y-52711000D01*
X40090000Y-52351000D02*
X38440000Y-52351000D01*
X39176000Y-53271000D02*
X35624000Y-53271000D01*
X36360000Y-52431000D02*
X34764000Y-52431000D01*
X38033000Y-53751000D02*
X36767000Y-53751000D01*
X36360000Y-52831000D02*
X35095000Y-52831000D01*
X36360000Y-52511000D02*
X34822000Y-52511000D01*
X36360000Y-50870000D02*
X34185000Y-50870000D01*
X40370000Y-51831000D02*
X38440000Y-51831000D01*
X40615000Y-50870000D02*
X38440000Y-50870000D01*
X40190000Y-52191000D02*
X38440000Y-52191000D01*
X40352000Y-51871000D02*
X38440000Y-51871000D01*
X36360000Y-52231000D02*
X34634000Y-52231000D01*
X39537000Y-52991000D02*
X35263000Y-52991000D01*
X40007000Y-52471000D02*
X38440000Y-52471000D01*
X36360000Y-51311000D02*
X34259000Y-51311000D01*
X36360000Y-51831000D02*
X34430000Y-51831000D01*
X36360000Y-51951000D02*
X34484000Y-51951000D01*
X39444000Y-53071000D02*
X35356000Y-53071000D01*
X39492000Y-53031000D02*
X35308000Y-53031000D01*
X36360000Y-51871000D02*
X34448000Y-51871000D01*
X39743000Y-52791000D02*
X38440000Y-52791000D01*
X36360000Y-51511000D02*
X34314000Y-51511000D01*
X38750000Y-53511000D02*
X36050000Y-53511000D01*
X40550000Y-51271000D02*
X38440000Y-51271000D01*
X40334000Y-51911000D02*
X38440000Y-51911000D01*
X36360000Y-52791000D02*
X35057000Y-52791000D01*
X40418000Y-51711000D02*
X38440000Y-51711000D01*
X36360000Y-52071000D02*
X34544000Y-52071000D01*
X36360000Y-51030000D02*
X34205000Y-51030000D01*
X40510000Y-51431000D02*
X38440000Y-51431000D01*
X36360000Y-52471000D02*
X34793000Y-52471000D01*
X36360000Y-52711000D02*
X34984000Y-52711000D01*
X40433000Y-51671000D02*
X38440000Y-51671000D01*
X36360000Y-51271000D02*
X34250000Y-51271000D01*
X39554000Y-47364759D02*
X38924000Y-47364759D01*
X36360000Y-52111000D02*
X34566000Y-52111000D01*
X39114000Y-53311000D02*
X35686000Y-53311000D01*
X39780000Y-52751000D02*
X38440000Y-52751000D01*
X38981000Y-53391000D02*
X35819000Y-53391000D01*
X40575000Y-51150000D02*
X38440000Y-51150000D01*
X38459000Y-53631000D02*
X36341000Y-53631000D01*
X38340000Y-53671000D02*
X36460000Y-53671000D01*
X36360000Y-50990000D02*
X34199000Y-50990000D01*
X40296000Y-51991000D02*
X38440000Y-51991000D01*
X36360000Y-51591000D02*
X34339000Y-51591000D01*
X40589000Y-51070000D02*
X38440000Y-51070000D01*
X40559000Y-51230000D02*
X38440000Y-51230000D01*
X40498000Y-51471000D02*
X38440000Y-51471000D01*
X40630000Y-50550000D02*
X34170000Y-50550000D01*
X36360000Y-51391000D02*
X34279000Y-51391000D01*
X40166000Y-52231000D02*
X38440000Y-52231000D01*
X40521000Y-51391000D02*
X38440000Y-51391000D01*
X36360000Y-51671000D02*
X34367000Y-51671000D01*
X40541000Y-51311000D02*
X38440000Y-51311000D01*
X40618000Y-50830000D02*
X38440000Y-50830000D01*
X39850000Y-52671000D02*
X38440000Y-52671000D01*
X39665000Y-52871000D02*
X35135000Y-52871000D01*
X36360000Y-51991000D02*
X34504000Y-51991000D01*
X39978000Y-52511000D02*
X38440000Y-52511000D01*
X36360000Y-50790000D02*
X34178000Y-50790000D01*
X40486000Y-51511000D02*
X38440000Y-51511000D01*
X36360000Y-51471000D02*
X34302000Y-51471000D01*
X38565000Y-53591000D02*
X36235000Y-53591000D01*
X40036000Y-52431000D02*
X38440000Y-52431000D01*
X36360000Y-52591000D02*
X34884000Y-52591000D01*
X36360000Y-51631000D02*
X34353000Y-51631000D01*
X39582000Y-52951000D02*
X35218000Y-52951000D01*
X39344000Y-53151000D02*
X35456000Y-53151000D01*
X38662000Y-53551000D02*
X36138000Y-53551000D01*
X36360000Y-50950000D02*
X34194000Y-50950000D01*
X36360000Y-52751000D02*
X35020000Y-52751000D01*
X40142000Y-52271000D02*
X38440000Y-52271000D01*
X40567000Y-51190000D02*
X38440000Y-51190000D01*
X36360000Y-51911000D02*
X34466000Y-51911000D01*
X40627000Y-50710000D02*
X34173000Y-50710000D01*
X36360000Y-52631000D02*
X34916000Y-52631000D01*
X36360000Y-52351000D02*
X34710000Y-52351000D01*
X39948000Y-52551000D02*
X38440000Y-52551000D01*
X36360000Y-50910000D02*
X34189000Y-50910000D01*
X40276000Y-52031000D02*
X38440000Y-52031000D01*
X36360000Y-52391000D02*
X34736000Y-52391000D01*
X40606000Y-50950000D02*
X38440000Y-50950000D01*
X39916000Y-52591000D02*
X38440000Y-52591000D01*
X40386000Y-51791000D02*
X38440000Y-51791000D01*
X40474000Y-51551000D02*
X38440000Y-51551000D01*
X40461000Y-51591000D02*
X38440000Y-51591000D01*
X40611000Y-50910000D02*
X38440000Y-50910000D01*
X40402000Y-51751000D02*
X38440000Y-51751000D01*
X36360000Y-51751000D02*
X34398000Y-51751000D01*
X40595000Y-51030000D02*
X38440000Y-51030000D01*
X40316000Y-51951000D02*
X38440000Y-51951000D01*
X36360000Y-51230000D02*
X34241000Y-51230000D01*
X36360000Y-52671000D02*
X34950000Y-52671000D01*
X40116000Y-52311000D02*
X38440000Y-52311000D01*
X40624000Y-50750000D02*
X34176000Y-50750000D01*
X40670000Y-50550000D02*
G75*
G03*
X40670000Y-50550000I-3270000J0D01*
G01*
%TO.C,C3*%
X54159000Y-51293323D02*
X50896000Y-51293323D01*
X58878000Y-52653323D02*
X56641000Y-52653323D01*
X54159000Y-50933323D02*
X50726000Y-50933323D01*
X59389000Y-52093323D02*
X56641000Y-52093323D01*
X60168000Y-50693323D02*
X56641000Y-50693323D01*
X57689000Y-53493323D02*
X53111000Y-53493323D01*
X54159000Y-52173323D02*
X51475000Y-52173323D01*
X56910000Y-53813323D02*
X53890000Y-53813323D01*
X60462000Y-49372323D02*
X50338000Y-49372323D01*
X54159000Y-50413323D02*
X50538000Y-50413323D01*
X60262000Y-50413323D02*
X56641000Y-50413323D01*
X60307000Y-50253323D02*
X56641000Y-50253323D01*
X57437000Y-53613323D02*
X53363000Y-53613323D01*
X57246000Y-53693323D02*
X53554000Y-53693323D01*
X54159000Y-52533323D02*
X51799000Y-52533323D01*
X59566000Y-51853323D02*
X56641000Y-51853323D01*
X60470000Y-49252323D02*
X50330000Y-49252323D01*
X54159000Y-50533323D02*
X50576000Y-50533323D01*
X54159000Y-52053323D02*
X51380000Y-52053323D01*
X58606000Y-52893323D02*
X52194000Y-52893323D01*
X59621000Y-51773323D02*
X56641000Y-51773323D01*
X54159000Y-51013323D02*
X50761000Y-51013323D01*
X54159000Y-51893323D02*
X51262000Y-51893323D01*
X57839000Y-53413323D02*
X52961000Y-53413323D01*
X60250000Y-50453323D02*
X56641000Y-50453323D01*
X60003000Y-51093323D02*
X56641000Y-51093323D01*
X60480000Y-48972323D02*
X50320000Y-48972323D01*
X60021000Y-51053323D02*
X56641000Y-51053323D01*
X58275000Y-43452677D02*
X58275000Y-44452677D01*
X60074000Y-50933323D02*
X56641000Y-50933323D01*
X56630000Y-53893323D02*
X54170000Y-53893323D01*
X59594000Y-51813323D02*
X56641000Y-51813323D01*
X58792000Y-52733323D02*
X52008000Y-52733323D01*
X54159000Y-50453323D02*
X50550000Y-50453323D01*
X60123000Y-50813323D02*
X56641000Y-50813323D01*
X60397000Y-49853323D02*
X50403000Y-49853323D01*
X60365000Y-50013323D02*
X50435000Y-50013323D01*
X56778000Y-53853323D02*
X54022000Y-53853323D01*
X58920000Y-52613323D02*
X56641000Y-52613323D01*
X59925000Y-51253323D02*
X56641000Y-51253323D01*
X60430000Y-49653323D02*
X50370000Y-49653323D01*
X54159000Y-50613323D02*
X50603000Y-50613323D01*
X54159000Y-52253323D02*
X51542000Y-52253323D01*
X60347000Y-50093323D02*
X50453000Y-50093323D01*
X54159000Y-51093323D02*
X50797000Y-51093323D01*
X59189000Y-52333323D02*
X56641000Y-52333323D01*
X54159000Y-52373323D02*
X51647000Y-52373323D01*
X57142000Y-53733323D02*
X53658000Y-53733323D01*
X58170000Y-53213323D02*
X52630000Y-53213323D01*
X54159000Y-50213323D02*
X50482000Y-50213323D01*
X60390000Y-49893323D02*
X50410000Y-49893323D01*
X57525000Y-53573323D02*
X53275000Y-53573323D01*
X59420000Y-52053323D02*
X56641000Y-52053323D01*
X60154000Y-50733323D02*
X56641000Y-50733323D01*
X54159000Y-50693323D02*
X50632000Y-50693323D01*
X54159000Y-51333323D02*
X50917000Y-51333323D01*
X54159000Y-51133323D02*
X50816000Y-51133323D01*
X59079000Y-52453323D02*
X56641000Y-52453323D01*
X60440000Y-49572323D02*
X50360000Y-49572323D01*
X58109000Y-53253323D02*
X52691000Y-53253323D01*
X59673000Y-51693323D02*
X56641000Y-51693323D01*
X57030000Y-53773323D02*
X53770000Y-53773323D01*
X60458000Y-49412323D02*
X50342000Y-49412323D01*
X58400000Y-53053323D02*
X52400000Y-53053323D01*
X60237000Y-50493323D02*
X56641000Y-50493323D01*
X59357000Y-52133323D02*
X56641000Y-52133323D01*
X58045000Y-53293323D02*
X52755000Y-53293323D01*
X59723000Y-51613323D02*
X56641000Y-51613323D01*
X60338000Y-50133323D02*
X50462000Y-50133323D01*
X54159000Y-50853323D02*
X50693000Y-50853323D01*
X59538000Y-51893323D02*
X56641000Y-51893323D01*
X60480000Y-49012323D02*
X50320000Y-49012323D01*
X54159000Y-50813323D02*
X50677000Y-50813323D01*
X58836000Y-52693323D02*
X51964000Y-52693323D01*
X54159000Y-50653323D02*
X50617000Y-50653323D01*
X60382000Y-49933323D02*
X50418000Y-49933323D01*
X54159000Y-51773323D02*
X51179000Y-51773323D01*
X60411000Y-49773323D02*
X50389000Y-49773323D01*
X54159000Y-51813323D02*
X51206000Y-51813323D01*
X58289000Y-53133323D02*
X52511000Y-53133323D01*
X59817000Y-51453323D02*
X56641000Y-51453323D01*
X58961000Y-52573323D02*
X56641000Y-52573323D01*
X59292000Y-52213323D02*
X56641000Y-52213323D01*
X60479000Y-49052323D02*
X50321000Y-49052323D01*
X56462000Y-53933323D02*
X54338000Y-53933323D01*
X60424000Y-49693323D02*
X50376000Y-49693323D01*
X54159000Y-51933323D02*
X51290000Y-51933323D01*
X59450000Y-52013323D02*
X56641000Y-52013323D01*
X54159000Y-51973323D02*
X51320000Y-51973323D01*
X54159000Y-51173323D02*
X50836000Y-51173323D01*
X54159000Y-50373323D02*
X50526000Y-50373323D01*
X54159000Y-52653323D02*
X51922000Y-52653323D01*
X60418000Y-49733323D02*
X50382000Y-49733323D01*
X54159000Y-50253323D02*
X50493000Y-50253323D01*
X55999000Y-54013323D02*
X54801000Y-54013323D01*
X59840000Y-51413323D02*
X56641000Y-51413323D01*
X60107000Y-50853323D02*
X56641000Y-50853323D01*
X59647000Y-51733323D02*
X56641000Y-51733323D01*
X54159000Y-51613323D02*
X51077000Y-51613323D01*
X59964000Y-51173323D02*
X56641000Y-51173323D01*
X54159000Y-52613323D02*
X51880000Y-52613323D01*
X59510000Y-51933323D02*
X56641000Y-51933323D01*
X58454000Y-53013323D02*
X52346000Y-53013323D01*
X59883000Y-51333323D02*
X56641000Y-51333323D01*
X59795000Y-51493323D02*
X56641000Y-51493323D01*
X57765000Y-53453323D02*
X53035000Y-53453323D01*
X58345000Y-53093323D02*
X52455000Y-53093323D01*
X54159000Y-51053323D02*
X50779000Y-51053323D01*
X54159000Y-50773323D02*
X50662000Y-50773323D01*
X54159000Y-50733323D02*
X50646000Y-50733323D01*
X59153000Y-52373323D02*
X56641000Y-52373323D01*
X59040000Y-52493323D02*
X56641000Y-52493323D01*
X59771000Y-51533323D02*
X56641000Y-51533323D01*
X54159000Y-52493323D02*
X51760000Y-52493323D01*
X54159000Y-51213323D02*
X50855000Y-51213323D01*
X60328000Y-50173323D02*
X50472000Y-50173323D01*
X59984000Y-51133323D02*
X56641000Y-51133323D01*
X60478000Y-49092323D02*
X50322000Y-49092323D01*
X58775000Y-43952677D02*
X57775000Y-43952677D01*
X54159000Y-52333323D02*
X51611000Y-52333323D01*
X57979000Y-53333323D02*
X52821000Y-53333323D01*
X60318000Y-50213323D02*
X56641000Y-50213323D01*
X60475000Y-49172323D02*
X50325000Y-49172323D01*
X54159000Y-51373323D02*
X50938000Y-51373323D01*
X54159000Y-50893323D02*
X50710000Y-50893323D01*
X54159000Y-52133323D02*
X51443000Y-52133323D01*
X58506000Y-52973323D02*
X52294000Y-52973323D01*
X60465000Y-49332323D02*
X50335000Y-49332323D01*
X54159000Y-50573323D02*
X50589000Y-50573323D01*
X59747000Y-51573323D02*
X56641000Y-51573323D01*
X57910000Y-53373323D02*
X52890000Y-53373323D01*
X54159000Y-51493323D02*
X51005000Y-51493323D01*
X60473000Y-49212323D02*
X50327000Y-49212323D01*
X59224000Y-52293323D02*
X56641000Y-52293323D01*
X58701000Y-52813323D02*
X52099000Y-52813323D01*
X58654000Y-52853323D02*
X52146000Y-52853323D01*
X54159000Y-51693323D02*
X51127000Y-51693323D01*
X54159000Y-52293323D02*
X51576000Y-52293323D01*
X59945000Y-51213323D02*
X56641000Y-51213323D01*
X54159000Y-52013323D02*
X51350000Y-52013323D01*
X60374000Y-49973323D02*
X50426000Y-49973323D01*
X59325000Y-52173323D02*
X56641000Y-52173323D01*
X60224000Y-50533323D02*
X56641000Y-50533323D01*
X58747000Y-52773323D02*
X52053000Y-52773323D01*
X54159000Y-50333323D02*
X50515000Y-50333323D01*
X60138000Y-50773323D02*
X56641000Y-50773323D01*
X54159000Y-51413323D02*
X50960000Y-51413323D01*
X59258000Y-52253323D02*
X56641000Y-52253323D01*
X54159000Y-52453323D02*
X51721000Y-52453323D01*
X60057000Y-50973323D02*
X56641000Y-50973323D01*
X54159000Y-50493323D02*
X50563000Y-50493323D01*
X60183000Y-50653323D02*
X56641000Y-50653323D01*
X54159000Y-51453323D02*
X50983000Y-51453323D01*
X60454000Y-49452323D02*
X50346000Y-49452323D01*
X60356000Y-50053323D02*
X50444000Y-50053323D01*
X54159000Y-52413323D02*
X51684000Y-52413323D01*
X60477000Y-49132323D02*
X50323000Y-49132323D01*
X60274000Y-50373323D02*
X56641000Y-50373323D01*
X60404000Y-49813323D02*
X50396000Y-49813323D01*
X57609000Y-53533323D02*
X53191000Y-53533323D01*
X54159000Y-52213323D02*
X51508000Y-52213323D01*
X54159000Y-51733323D02*
X51153000Y-51733323D01*
X60211000Y-50573323D02*
X56641000Y-50573323D01*
X59904000Y-51293323D02*
X56641000Y-51293323D01*
X54159000Y-50293323D02*
X50503000Y-50293323D01*
X60435000Y-49612323D02*
X50365000Y-49612323D01*
X59116000Y-52413323D02*
X56641000Y-52413323D01*
X59698000Y-51653323D02*
X56641000Y-51653323D01*
X54159000Y-52093323D02*
X51411000Y-52093323D01*
X54159000Y-52573323D02*
X51839000Y-52573323D01*
X60039000Y-51013323D02*
X56641000Y-51013323D01*
X54159000Y-51253323D02*
X50875000Y-51253323D01*
X58556000Y-52933323D02*
X52244000Y-52933323D01*
X60450000Y-49492323D02*
X50350000Y-49492323D01*
X60468000Y-49292323D02*
X50332000Y-49292323D01*
X57344000Y-53653323D02*
X53456000Y-53653323D01*
X60197000Y-50613323D02*
X56641000Y-50613323D01*
X59001000Y-52533323D02*
X56641000Y-52533323D01*
X60297000Y-50293323D02*
X56641000Y-50293323D01*
X56262000Y-53973323D02*
X54538000Y-53973323D01*
X60285000Y-50333323D02*
X56641000Y-50333323D01*
X60090000Y-50893323D02*
X56641000Y-50893323D01*
X59480000Y-51973323D02*
X56641000Y-51973323D01*
X58230000Y-53173323D02*
X52570000Y-53173323D01*
X54159000Y-50973323D02*
X50743000Y-50973323D01*
X54159000Y-51573323D02*
X51053000Y-51573323D01*
X59862000Y-51373323D02*
X56641000Y-51373323D01*
X54159000Y-51653323D02*
X51102000Y-51653323D01*
X54159000Y-51853323D02*
X51234000Y-51853323D01*
X54159000Y-51533323D02*
X51029000Y-51533323D01*
X60480000Y-48932323D02*
X50320000Y-48932323D01*
X60445000Y-49532323D02*
X50355000Y-49532323D01*
X60520000Y-48932323D02*
G75*
G03*
X60520000Y-48932323I-5120000J0D01*
G01*
%TO.C,C1*%
X46270000Y-13800000D02*
G75*
G03*
X46270000Y-13800000I-4120000J0D01*
G01*
%TO.C,A1*%
X18800000Y-53250000D02*
X18800000Y-9810000D01*
X18800000Y-53250000D02*
X13720000Y-53250000D01*
X18800000Y-9810000D02*
X760000Y-9810000D01*
X16130000Y-50580000D02*
X18800000Y-50580000D01*
X16130000Y-12480000D02*
X18800000Y-12480000D01*
X16130000Y-12480000D02*
X16130000Y-50580000D01*
X13720000Y-55790000D02*
X5840000Y-55790000D01*
X13720000Y-45370000D02*
X13720000Y-55790000D01*
X5840000Y-55790000D02*
X5840000Y-45370000D01*
X5840000Y-45370000D02*
X13720000Y-45370000D01*
X3430000Y-50580000D02*
X760000Y-50580000D01*
X3430000Y-15020000D02*
X3430000Y-50580000D01*
X3430000Y-15020000D02*
X3430000Y-12480000D01*
X3430000Y-15020000D02*
X760000Y-15020000D01*
X3430000Y-12480000D02*
X760000Y-12480000D01*
X760000Y-53250000D02*
X5840000Y-53250000D01*
X760000Y-15020000D02*
X760000Y-53250000D01*
X760000Y-9810000D02*
X760000Y-12480000D01*
%TO.C,D2*%
X18690000Y-6345000D02*
X18690000Y-3255000D01*
X13140001Y-4799538D02*
G75*
G03*
X18689999Y-6344830I2989999J-462D01*
G01*
X18690000Y-3255170D02*
G75*
G03*
X13140000Y-4800462I-2560000J-1544830D01*
G01*
X18630000Y-4800000D02*
G75*
G03*
X18630000Y-4800000I-2500000J0D01*
G01*
%TD*%
M02*
